SplineFontDB: 3.2
FontName: ADM-3A
FullName: ADM-3A Regular
FamilyName: ADM-3A
Weight: Regular
Copyright: Copyright (c) 2022, Peter Jakubco
UComments: "2022-9-17: Created with FontForge (http://fontforge.org)"
Version: 1.0
ItalicAngle: 0
UnderlinePosition: 313
UnderlineWidth: 208
Ascent: 2048
Descent: 0
InvalidEm: 0
LayerCount: 2
Layer: 0 1 "Back" 1
Layer: 1 1 "Fore" 0
XUID: [1021 261 208283644 15436461]
StyleMap: 0x0040
FSType: 0
OS2Version: 0
OS2_WeightWidthSlopeOnly: 0
OS2_UseTypoMetrics: 1
CreationTime: 1663397476
ModificationTime: 1672471671
PfmFamily: 49
TTFWeight: 400
TTFWidth: 5
LineGap: 0
VLineGap: 0
OS2TypoAscent: 1792
OS2TypoAOffset: 0
OS2TypoDescent: 0
OS2TypoDOffset: 0
OS2TypoLinegap: 0
OS2WinAscent: 1792
OS2WinAOffset: 0
OS2WinDescent: 0
OS2WinDOffset: 0
HheadAscent: 0
HheadAOffset: 1
HheadDescent: 0
HheadDOffset: 1
OS2Vendor: 'PfEd'
MarkAttachClasses: 1
DEI: 91125

StartChar: SOH
Encoding: 1 1 0
Width: 1408
Flags: MW
LayerCount: 2
Back
Fore
SplineSet
576 1280 m 25,0,-1
 1088 1280 l 25,1,2
 1088 1408 1088 1408 1088 1461 c 0,3,4
 1088 1536 1088 1536 1013 1536 c 24,5,-1
 651 1536 l 0,6,7
 576 1536 576 1536 576 1461 c 24,8,9
 576 1461 576 1461 576 1280 c 25,0,-1
1013 1792 m 0,10,11
 1344 1792 1344 1792 1344 1461 c 24,12,13
 1344 1461 1344 1461 1344 512 c 25,14,-1
 1088 512 l 24,15,-1
 1088 1024 l 25,16,-1
 576 1024 l 25,17,-1
 576 512 l 25,18,-1
 320 512 l 25,19,20
 320 1152 320 1152 320 1461 c 0,21,22
 320 1792 320 1792 651 1792 c 24,23,24
 651 1792 651 1792 1013 1792 c 0,10,11
64 256 m 25,25,-1
 1344 256 l 25,26,-1
 1344 0 l 25,27,-1
 64 0 l 25,28,-1
 64 256 l 25,25,-1
EndSplineSet
Validated: 1
EndChar

StartChar: STX
Encoding: 2 2 1
Width: 1408
Flags: MW
LayerCount: 2
Back
Fore
SplineSet
373 1792 m 9,0,-1
 1216 949 l 25,1,-1
 1216 843 l 25,2,-1
 373 0 l 24,3,-1
 192 0 l 25,4,-1
 192 1792 l 25,5,6
 192 1792 192 1792 373 1792 c 9,0,-1
EndSplineSet
Validated: 1
EndChar

StartChar: ETX
Encoding: 3 3 2
Width: 1408
Flags: MW
LayerCount: 2
Back
Fore
SplineSet
1216 1792 m 25,0,-1
 1216 0 l 24,1,-1
 1035 0 l 24,2,-1
 192 843 l 25,3,-1
 192 949 l 25,4,-1
 1035 1792 l 24,5,6
 1035 1792 1035 1792 1216 1792 c 25,0,-1
EndSplineSet
Validated: 1
EndChar

StartChar: EOT
Encoding: 4 4 3
Width: 1408
Flags: MW
LayerCount: 2
Back
Fore
SplineSet
576 1536 m 24,0,-1
 576 768 l 24,1,-1
 1013 768 l 0,2,3
 1088 768 1088 768 1088 843 c 24,4,5
 1088 1190 1088 1190 1088 1461 c 0,6,7
 1088 1536 1088 1536 1013 1536 c 24,8,9
 1013 1536 1013 1536 576 1536 c 24,0,-1
1013 1792 m 0,10,11
 1344 1792 1344 1792 1344 1461 c 24,12,13
 1344 986 1344 986 1344 843 c 0,14,15
 1344 512 1344 512 1013 512 c 24,16,-1
 320 512 l 25,17,-1
 320 1792 l 25,18,19
 320 1792 320 1792 1013 1792 c 0,10,11
64 256 m 25,20,-1
 1344 256 l 25,21,-1
 1344 0 l 25,22,-1
 64 0 l 25,23,-1
 64 256 l 25,20,-1
EndSplineSet
Validated: 1
EndChar

StartChar: ENQ
Encoding: 5 5 4
Width: 1408
Flags: MW
LayerCount: 2
Back
Fore
SplineSet
64 256 m 29,0,-1
 1344 256 l 25,1,-1
 1344 0 l 25,2,-1
 64 0 l 25,3,-1
 64 256 l 29,0,-1
320 512 m 25,4,-1
 320 1792 l 25,5,-1
 1344 1792 l 25,6,-1
 1344 1536 l 25,7,-1
 576 1536 l 25,8,-1
 576 1280 l 25,9,-1
 1088 1280 l 25,10,-1
 1088 1024 l 25,11,-1
 576 1024 l 25,12,-1
 576 768 l 25,13,-1
 1344 768 l 25,14,-1
 1344 512 l 25,15,-1
 320 512 l 25,4,-1
EndSplineSet
Validated: 1
EndChar

StartChar: ACK
Encoding: 6 6 5
Width: 1408
Flags: MW
LayerCount: 2
Back
Fore
SplineSet
64 256 m 29,0,-1
 1344 256 l 25,1,-1
 1344 0 l 25,2,-1
 64 0 l 25,3,-1
 64 256 l 29,0,-1
320 512 m 25,4,-1
 320 1792 l 25,5,-1
 1344 1792 l 25,6,-1
 1344 1536 l 25,7,-1
 576 1536 l 25,8,-1
 576 1280 l 25,9,-1
 1088 1280 l 25,10,-1
 1088 1024 l 25,11,-1
 576 1024 l 25,12,-1
 576 512 l 25,13,-1
 320 512 l 25,4,-1
EndSplineSet
Validated: 1
EndChar

StartChar: BEEP
Encoding: 7 7 6
Width: 1408
Flags: MW
LayerCount: 2
Back
Fore
SplineSet
832 1461 m 0,0,1
 832 1536 832 1536 757 1536 c 24,2,3
 704 1536 704 1536 651 1536 c 0,4,5
 576 1536 576 1536 576 1461 c 24,6,7
 576 1114 576 1114 576 843 c 0,8,9
 576 768 576 768 651 768 c 24,10,11
 651 768 651 768 757 768 c 0,12,13
 831 768 831 768 832 843 c 24,14,15
 832 843 832 843 832 1461 c 0,0,1
757 1792 m 0,16,17
 1088 1792 1088 1792 1088 1461 c 24,18,-1
 1088 1099 l 0,19,20
 1088 1024 1088 1024 1163 1024 c 24,21,-1
 1287 1024 l 0,22,23
 1344 960 1344 960 1344 896 c 128,-1,24
 1344 832 1344 832 1287 768 c 8,25,-1
 907 768 l 0,26,27
 832 768 832 768 832 693 c 24,28,-1
 832 569 l 0,29,30
 768 512 768 512 703 512 c 0,31,32
 660 512 660 512 576 569 c 1,33,-1
 576 693 l 0,34,35
 576 768 576 768 501 768 c 24,36,-1
 121 768 l 0,37,38
 64 832 64 832 64 896 c 128,-1,39
 64 960 64 960 121 1024 c 8,40,-1
 245 1024 l 0,41,42
 320 1024 320 1024 320 1099 c 24,43,-1
 320 1461 l 0,44,45
 320 1792 320 1792 651 1792 c 24,46,47
 651 1792 651 1792 757 1792 c 0,16,17
64 256 m 25,48,-1
 1344 256 l 25,49,-1
 1344 0 l 25,50,-1
 64 0 l 25,51,-1
 64 256 l 25,48,-1
EndSplineSet
Validated: 1
EndChar

StartChar: BS
Encoding: 8 8 7
Width: 1408
Flags: MW
LayerCount: 2
Back
Fore
SplineSet
64 949 m 25,0,-1
 651 1536 l 24,1,-1
 832 1536 l 24,2,-1
 832 1355 l 25,3,-1
 501 1024 l 24,4,-1
 1344 1024 l 25,5,-1
 1344 768 l 24,6,-1
 501 768 l 24,7,-1
 832 437 l 24,8,-1
 832 256 l 25,9,-1
 651 256 l 24,10,-1
 64 843 l 25,11,-1
 64 949 l 25,0,-1
EndSplineSet
Validated: 1
EndChar

StartChar: HT
Encoding: 9 9 8
Width: 1408
Flags: MW
LayerCount: 2
Back
Fore
SplineSet
64 256 m 25,0,-1
 1344 256 l 25,1,-1
 1344 0 l 25,2,-1
 64 0 l 25,3,-1
 64 256 l 25,0,-1
576 1280 m 25,4,-1
 832 1280 l 25,5,-1
 832 1024 l 25,6,-1
 576 1024 l 25,7,-1
 576 1280 l 25,4,-1
EndSplineSet
Validated: 1
EndChar

StartChar: LF
Encoding: 10 10 9
Width: 1408
Flags: MW
LayerCount: 2
Back
Fore
SplineSet
832 1792 m 25,0,-1
 832 693 l 24,1,-1
 1163 1024 l 24,2,-1
 1344 1024 l 25,3,-1
 1344 843 l 25,4,-1
 757 256 l 25,5,-1
 651 256 l 24,6,-1
 64 843 l 25,7,-1
 64 1024 l 25,8,-1
 245 1024 l 24,9,-1
 576 693 l 24,10,-1
 576 1792 l 25,11,-1
 832 1792 l 25,0,-1
EndSplineSet
Validated: 1
EndChar

StartChar: VT
Encoding: 11 11 10
Width: 1408
Flags: MW
LayerCount: 2
Back
Fore
SplineSet
757 1536 m 25,0,-1
 1344 949 l 25,1,-1
 1344 768 l 24,2,-1
 1163 768 l 24,3,-1
 832 1099 l 25,4,-1
 832 0 l 25,5,-1
 576 0 l 25,6,-1
 576 1099 l 25,7,-1
 245 768 l 24,8,-1
 64 768 l 24,9,-1
 64 949 l 25,10,-1
 651 1536 l 24,11,12
 651 1536 651 1536 757 1536 c 25,0,-1
EndSplineSet
Validated: 1
EndChar

StartChar: FF
Encoding: 12 12 11
Width: 1408
Flags: MW
LayerCount: 2
Back
Fore
SplineSet
757 1536 m 25,0,-1
 1344 949 l 25,1,-1
 1344 843 l 25,2,-1
 757 256 l 25,3,-1
 576 256 l 25,4,-1
 576 437 l 24,5,-1
 907 768 l 24,6,-1
 64 768 l 24,7,-1
 64 1024 l 25,8,-1
 907 1024 l 24,9,-1
 576 1355 l 25,10,-1
 576 1536 l 17,11,12
 576 1536 576 1536 757 1536 c 25,0,-1
EndSplineSet
Validated: 1
EndChar

StartChar: CR
Encoding: 13 13 12
Width: 1408
Flags: MW
LayerCount: 2
Back
Fore
SplineSet
907 1536 m 9,0,-1
 320 949 l 25,1,-1
 320 843 l 25,2,-1
 907 256 l 24,3,-1
 1088 256 l 25,4,-1
 1088 437 l 24,5,-1
 651 843 l 25,6,-1
 651 949 l 25,7,-1
 1088 1355 l 25,8,-1
 1088 1536 l 17,9,10
 1088 1536 1088 1536 907 1536 c 9,0,-1
64 1792 m 25,11,-1
 1344 1792 l 25,12,-1
 1344 0 l 25,13,-1
 64 0 l 25,14,-1
 64 1792 l 25,11,-1
EndSplineSet
Validated: 1
EndChar

StartChar: SO
Encoding: 14 14 13
Width: 1408
Flags: MW
LayerCount: 2
Back
Fore
SplineSet
703 715 m 1,0,1
 703 715 703 715 245 256 c 1,2,3
 245 256 245 256 64 256 c 25,4,5
 64 256 64 256 64 437 c 9,6,7
 64 437 64 437 651 1024 c 24,8,9
 651 1024 651 1024 757 1024 c 25,10,11
 757 1024 757 1024 1344 437 c 1,12,13
 1344 437 1344 437 1344 256 c 25,14,15
 1344 256 1344 256 1163 256 c 1,16,-1
 703 715 l 1,0,1
703 1483 m 1,17,18
 703 1483 703 1483 245 1024 c 1,19,20
 245 1024 245 1024 64 1024 c 25,21,22
 64 1024 64 1024 64 1205 c 9,23,24
 64 1205 64 1205 651 1792 c 24,25,26
 651 1792 651 1792 757 1792 c 25,27,28
 757 1792 757 1792 1344 1205 c 1,29,30
 1344 1205 1344 1205 1344 1024 c 25,31,32
 1344 1024 1344 1024 1163 1024 c 1,33,-1
 703 1483 l 1,17,18
EndSplineSet
Validated: 1
EndChar

StartChar: SI
Encoding: 15 15 14
Width: 1408
Flags: MW
LayerCount: 2
Back
Fore
SplineSet
703 1333 m 129,-1,1
 703 1333 703 1333 1163 1792 c 1,2,-1
 1344 1792 l 25,3,4
 1344 1611 1344 1611 1344 1611 c 1,5,6
 757 1024 757 1024 757 1024 c 25,7,8
 651 1024 651 1024 651 1024 c 24,9,10
 64 1611 64 1611 64 1611 c 17,11,12
 64 1792 64 1792 64 1792 c 25,13,14
 245 1792 245 1792 245 1792 c 1,15,0
 703 1333 703 1333 703 1333 c 129,-1,1
703 565 m 129,-1,17
 703 565 703 565 1163 1024 c 1,18,-1
 1344 1024 l 25,19,20
 1344 843 1344 843 1344 843 c 1,21,22
 757 256 757 256 757 256 c 25,23,24
 651 256 651 256 651 256 c 24,25,26
 64 843 64 843 64 843 c 17,27,28
 64 1024 64 1024 64 1024 c 25,29,30
 245 1024 245 1024 245 1024 c 1,31,16
 703 565 703 565 703 565 c 129,-1,17
EndSplineSet
Validated: 1
EndChar

StartChar: DLE
Encoding: 16 16 15
Width: 1408
Flags: MW
LayerCount: 2
Back
Fore
SplineSet
501 768 m 1,0,1
 501 768 501 768 1013 768 c 0,2,3
 1088 768 1088 768 1088 843 c 0,4,5
 1088 843 1088 843 1088 1355 c 0,6,7
 1088 1355 1088 1355 501 768 c 1,0,1
320 949 m 129,-1,9
 320 949 320 949 907 1536 c 1,10,11
 907 1536 907 1536 394 1536 c 0,12,13
 320 1536 320 1536 320 1461 c 0,14,8
 320 949 320 949 320 949 c 129,-1,9
64 256 m 25,15,-1
 1344 255 l 25,16,-1
 1344 0 l 25,17,-1
 64 0 l 25,18,-1
 64 256 l 25,15,-1
1013 1792 m 0,19,20
 1344 1792 1344 1792 1344 1461 c 24,21,22
 1344 1461 1344 1461 1344 843 c 0,23,24
 1344 512 1344 512 1013 512 c 24,25,-1
 395 512 l 0,26,27
 64 512 64 512 64 843 c 24,28,29
 64 843 64 843 64 1461 c 0,30,31
 64 1792 64 1792 395 1792 c 24,32,33
 395 1792 395 1792 1013 1792 c 0,19,20
EndSplineSet
Validated: 1
EndChar

StartChar: DC1
Encoding: 17 17 16
Width: 1408
Flags: MW
LayerCount: 2
Back
Fore
SplineSet
832 1792 m 1,0,-1
 832 843 l 0,1,2
 832 768 832 768 907 768 c 0,3,-1
 1031 768 l 0,4,5
 1088 768 1088 768 1088 640 c 128,-1,6
 1088 512 1088 512 1031 512 c 0,7,8
 704 512 704 512 377 512 c 0,9,10
 320 512 320 512 320 640 c 128,-1,11
 320 768 320 768 377 768 c 0,12,-1
 501 768 l 0,13,14
 576 768 576 768 576 843 c 0,15,16
 576 843 576 843 576 1355 c 1,17,18
 576 1355 576 1355 501 1280 c 0,19,20
 501 1280 501 1280 320 1280 c 1,21,22
 320 1280 320 1280 320 1465 c 0,23,24
 320 1465 320 1465 651 1792 c 0,25,26
 651 1792 651 1792 832 1792 c 1,0,-1
64 256 m 25,27,-1
 1344 256 l 25,28,-1
 1344 0 l 25,29,-1
 64 0 l 25,30,-1
 64 256 l 25,27,-1
EndSplineSet
Validated: 1
EndChar

StartChar: DC2
Encoding: 18 18 17
Width: 1408
Flags: MW
LayerCount: 2
Back
Fore
SplineSet
64 256 m 1,0,1
 64 256 64 256 1344 256 c 1,2,3
 1344 256 1344 256 1344 0 c 1,4,5
 1344 0 1344 0 64 0 c 1,6,7
 64 0 64 0 64 256 c 1,0,1
775 1792 m 0,8,9
 1088 1792 1088 1792 1088 1461 c 0,10,11
 1088 1461 1088 1461 1088 1355 c 1,12,-1
 576 843 l 0,13,14
 576 768 576 768 651 768 c 0,15,-1
 1013 768 l 0,16,17
 1088 768 1088 768 1088 640 c 0,18,19
 1088 513 1088 513 1013 512 c 0,20,21
 1013 512 1013 512 320 512 c 0,22,23
 320 512 320 512 322 948 c 0,24,-1
 833 1460 l 0,25,26
 832 1536 832 1536 775 1536 c 0,27,-1
 320 1536 l 0,28,29
 320 1536 320 1536 320 1792 c 0,30,31
 320 1792 320 1792 775 1792 c 0,8,9
EndSplineSet
Validated: 1
EndChar

StartChar: DC3
Encoding: 19 19 18
Width: 1408
Flags: MW
LayerCount: 2
Back
Fore
SplineSet
64 256 m 1,0,1
 64 256 64 256 1344 256 c 0,2,3
 1344 256 1344 256 1344 0 c 0,4,5
 1344 0 1344 0 64 0 c 0,6,7
 64 0 64 0 64 256 c 1,0,1
775 1792 m 256,8,9
 1088 1792 1088 1792 1088 1465 c 0,10,11
 1088 1465 1088 1465 1088 843 c 0,12,13
 1088 512 1088 512 757 512 c 1,14,15
 757 512 757 512 320 512 c 0,16,17
 320 512 320 512 320 768 c 0,18,-1
 757 768 l 0,19,20
 832 768 832 768 832 843 c 1,21,-1
 832 949 l 0,22,23
 832 1024 832 1024 757 1024 c 24,24,-1
 320 1024 l 0,25,26
 320 1024 320 1024 320 1280 c 0,27,-1
 757 1280 l 0,28,29
 832 1280 832 1280 832 1355 c 24,30,31
 832 1410 832 1410 832 1465 c 0,32,33
 832 1536 832 1536 757 1536 c 0,34,-1
 320 1536 l 0,35,36
 320 1536 320 1536 320 1792 c 257,37,38
 320 1792 320 1792 775 1792 c 256,8,9
EndSplineSet
Validated: 1
EndChar

StartChar: DC4
Encoding: 20 20 19
Width: 1408
Flags: MW
LayerCount: 2
Back
Fore
SplineSet
64 256 m 25,0,-1
 1344 256 l 25,1,-1
 1344 0 l 25,2,-1
 64 0 l 25,3,-1
 64 256 l 25,0,-1
832 1355 m 0,4,-1
 501 1024 l 0,5,-1
 832 1024 l 0,6,7
 832 1024 832 1024 832 1355 c 0,4,-1
1088 1792 m 0,8,-1
 1088 1024 l 0,9,-1
 1287 1024 l 1,10,11
 1344 1024 1344 1024 1344 896 c 128,-1,12
 1344 768 1344 768 1287 768 c 1,13,-1
 1088 768 l 0,14,-1
 1088 512 l 0,15,16
 1088 512 1088 512 832 512 c 0,17,-1
 832 768 l 0,18,-1
 320 768 l 0,19,20
 320 768 320 768 320 1205 c 0,21,22
 320 1205 320 1205 907 1792 c 0,23,24
 907 1792 907 1792 1088 1792 c 0,8,-1
EndSplineSet
Validated: 1
EndChar

StartChar: NAK
Encoding: 21 21 20
Width: 1408
Flags: MW
LayerCount: 2
Back
Fore
SplineSet
64 256 m 25,0,-1
 1344 256 l 25,1,-1
 1344 0 l 25,2,-1
 64 0 l 25,3,-1
 64 256 l 25,0,-1
1344 1792 m 25,4,5
 1344 1792 1344 1792 1344 843 c 0,6,7
 1344 512 1344 512 1013 512 c 16,8,9
 1013 512 1013 512 651 512 c 0,10,11
 320 512 320 512 320 843 c 24,12,13
 320 843 320 843 320 1792 c 25,14,-1
 576 1792 l 25,15,-1
 576 843 l 0,16,17
 576 768 576 768 651 768 c 24,18,-1
 1013 768 l 2,19,20
 1088 768 1088 768 1088 843 c 10,21,-1
 1088 1792 l 24,22,23
 1088 1792 1088 1792 1344 1792 c 25,4,5
EndSplineSet
Validated: 1
EndChar

StartChar: SYN
Encoding: 22 22 21
Width: 1408
Flags: MW
LayerCount: 2
Back
Fore
SplineSet
64 256 m 25,0,-1
 1344 256 l 25,1,-1
 1344 0 l 25,2,-1
 64 0 l 25,3,-1
 64 256 l 25,0,-1
704 852 m 1,4,5
 704 852 704 852 1088 1461 c 1,6,7
 1088 1461 1088 1461 1088 1792 c 0,8,9
 1088 1792 1088 1792 1344 1792 c 1,10,-1
 1344 1355 l 1,11,-1
 757 512 l 1,12,13
 757 512 757 512 651 512 c 0,14,15
 651 512 651 512 64 1355 c 1,16,-1
 64 1792 l 1,17,18
 64 1792 64 1792 320 1792 c 0,19,20
 320 1628 320 1628 320 1465 c 1,21,22
 320 1465 320 1465 704 852 c 1,4,5
EndSplineSet
Validated: 1
EndChar

StartChar: ETB
Encoding: 23 23 22
Width: 1408
Flags: MW
LayerCount: 2
Back
Fore
SplineSet
64 256 m 1,0,-1
 1344 256 l 1,1,-1
 1344 0 l 1,2,-1
 64 0 l 1,3,4
 64 0 64 0 64 256 c 1,0,-1
703 625 m 1,5,6
 703 512 703 512 501 512 c 0,7,8
 501 512 501 512 395 512 c 0,9,10
 64 512 64 512 64 843 c 0,11,12
 64 843 64 843 64 1792 c 1,13,14
 64 1792 64 1792 320 1792 c 1,15,-1
 320 843 l 1,16,17
 320 768 320 768 395 768 c 0,18,19
 501 768 501 768 501 768 c 0,20,21
 576 768 576 768 576 843 c 0,22,23
 576 1223 576 1223 576 1223 c 0,24,25
 576 1280 576 1280 703 1280 c 0,26,27
 832 1280 832 1280 832 1223 c 0,28,29
 832 843 832 843 832 843 c 1,30,31
 832 768 832 768 907 768 c 0,32,33
 1013 768 1013 768 1013 768 c 0,34,35
 1088 768 1088 768 1088 843 c 0,36,37
 1088 1792 1088 1792 1088 1792 c 129,-1,38
 1088 1792 1088 1792 1344 1792 c 1,39,40
 1344 1792 1344 1792 1344 843 c 0,41,42
 1344 512 1344 512 1013 512 c 0,43,44
 1013 512 1013 512 907 512 c 0,45,46
 703 512 703 512 703 625 c 1,5,6
EndSplineSet
Validated: 1
EndChar

StartChar: CAN
Encoding: 24 24 23
Width: 1408
Flags: MW
LayerCount: 2
Back
Fore
SplineSet
64 256 m 1,0,-1
 1344 256 l 1,1,-1
 1344 0 l 1,2,-1
 64 0 l 1,3,-1
 64 256 l 1,0,-1
703 1330 m 1,4,5
 703 1330 703 1330 1164 1792 c 0,6,7
 1164 1792 1164 1792 1344 1792 c 1,8,9
 1344 1792 1344 1792 1344 1611 c 1,10,11
 1344 1611 1344 1611 898 1147 c 1,12,13
 898 1147 898 1147 1344 693 c 0,14,-1
 1344 512 l 1,15,-1
 1163 512 l 0,16,-1
 703 951 l 1,17,18
 703 951 703 951 245 512 c 0,19,20
 245 512 245 512 64 512 c 1,21,22
 64 512 64 512 64 693 c 0,23,24
 64 693 64 693 523 1152 c 1,25,26
 523 1152 523 1152 64 1611 c 1,27,-1
 64 1792 l 1,28,29
 64 1792 64 1792 245 1792 c 0,30,31
 245 1792 245 1792 703 1330 c 1,4,5
EndSplineSet
Validated: 1
EndChar

StartChar: EM
Encoding: 25 25 24
Width: 1408
Flags: MW
LayerCount: 2
Back
Fore
SplineSet
64 256 m 25,0,-1
 1344 256 l 25,1,-1
 1344 0 l 25,2,-1
 64 0 l 25,3,-1
 64 256 l 25,0,-1
704 1333 m 1,4,5
 1163 1792 1163 1792 1163 1792 c 0,6,7
 1344 1792 1344 1792 1344 1792 c 129,-1,8
 1344 1792 1344 1792 1344 1611 c 1,9,-1
 832 1099 l 1,10,-1
 832 512 l 1,11,-1
 576 512 l 1,12,-1
 576 1099 l 1,13,-1
 64 1611 l 1,14,-1
 64 1792 l 1,15,16
 245 1792 245 1792 245 1792 c 0,17,18
 704 1333 704 1333 704 1333 c 1,4,5
EndSplineSet
Validated: 1
EndChar

StartChar: SUB
Encoding: 26 26 25
Width: 1408
Flags: MW
LayerCount: 2
Back
Fore
SplineSet
64 256 m 25,0,-1
 1344 256 l 25,1,-1
 1344 0 l 25,2,-1
 64 0 l 25,3,-1
 64 256 l 25,0,-1
64 1792 m 24,4,-1
 1344 1792 l 25,5,-1
 1344 1611 l 25,6,-1
 501 768 l 24,7,-1
 1344 768 l 24,8,-1
 1344 512 l 25,9,-1
 64 512 l 25,10,-1
 64 693 l 24,11,-1
 907 1536 l 24,12,-1
 64 1536 l 24,13,14
 64 1536 64 1536 64 1792 c 24,4,-1
EndSplineSet
Validated: 1
EndChar

StartChar: ESC
Encoding: 27 27 26
Width: 1408
Flags: MW
LayerCount: 2
Back
Fore
SplineSet
1088 1536 m 24,0,-1
 320 1536 l 24,1,-1
 320 256 l 25,2,-1
 1088 256 l 24,3,-1
 1088 512 l 25,4,-1
 576 512 l 25,5,-1
 576 768 l 24,6,-1
 832 768 l 24,7,-1
 832 1024 l 25,8,-1
 576 1024 l 25,9,-1
 576 1280 l 25,10,-1
 1088 1280 l 24,11,12
 1088 1280 1088 1280 1088 1536 c 24,0,-1
64 1792 m 25,13,-1
 1344 1792 l 25,14,-1
 1344 0 l 25,15,-1
 64 0 l 25,16,-1
 64 1792 l 25,13,-1
EndSplineSet
Validated: 1
EndChar

StartChar: FS
Encoding: 28 28 27
Width: 1408
Flags: MW
LayerCount: 2
Back
Fore
SplineSet
64 256 m 25,0,-1
 1344 256 l 25,1,-1
 1344 0 l 25,2,-1
 64 0 l 25,3,-1
 64 256 l 25,0,-1
245 1792 m 24,4,-1
 1344 693 l 24,5,-1
 1344 512 l 25,6,-1
 1163 512 l 24,7,-1
 64 1611 l 25,8,-1
 64 1792 l 25,9,10
 64 1792 64 1792 245 1792 c 24,4,-1
EndSplineSet
Validated: 1
EndChar

StartChar: GS
Encoding: 29 29 28
Width: 1408
Flags: MW
LayerCount: 2
Back
Fore
SplineSet
64 256 m 25,0,-1
 1344 256 l 25,1,-1
 1344 0 l 25,2,-1
 64 0 l 25,3,-1
 64 256 l 25,0,-1
320 1792 m 25,4,-1
 1088 1792 l 25,5,-1
 1088 512 l 24,6,-1
 320 512 l 25,7,-1
 320 768 l 24,8,-1
 832 768 l 24,9,-1
 832 1536 l 24,10,-1
 320 1536 l 24,11,12
 320 1536 320 1536 320 1792 c 25,4,-1
EndSplineSet
Validated: 1
EndChar

StartChar: RS
Encoding: 30 30 29
Width: 1408
Flags: MW
LayerCount: 2
Back
Fore
SplineSet
64 1536 m 24,0,-1
 1088 1536 l 24,1,-1
 1088 1280 l 25,2,-1
 501 1280 l 24,3,-1
 1344 437 l 24,4,-1
 1344 256 l 25,5,-1
 1163 256 l 24,6,-1
 320 1099 l 25,7,-1
 320 512 l 25,8,-1
 64 512 l 25,9,10
 64 512 64 512 64 1536 c 24,0,-1
EndSplineSet
Validated: 1
EndChar

StartChar: US
Encoding: 31 31 30
Width: 1408
Flags: MW
LayerCount: 2
Back
Fore
SplineSet
1344 1792 m 25,0,-1
 1344 512 l 25,1,-1
 501 512 l 24,2,-1
 832 181 l 24,3,-1
 832 0 l 25,4,-1
 651 0 l 24,5,-1
 64 587 l 25,6,-1
 64 693 l 24,7,-1
 651 1280 l 24,8,-1
 832 1280 l 25,9,-1
 832 1099 l 25,10,-1
 501 768 l 24,11,-1
 1088 768 l 24,12,-1
 1088 1792 l 24,13,14
 1088 1792 1088 1792 1344 1792 c 25,0,-1
EndSplineSet
Validated: 1
EndChar

StartChar: exclam
Encoding: 33 33 31
Width: 1408
Flags: MW
LayerCount: 2
Back
Fore
SplineSet
576 256 m 29,0,-1
 832 256 l 25,1,-1
 832 0 l 25,2,-1
 576 0 l 25,3,-1
 576 256 l 29,0,-1
576 1792 m 25,4,-1
 832 1792 l 25,5,-1
 832 512 l 25,6,-1
 576 512 l 25,7,-1
 576 1792 l 25,4,-1
EndSplineSet
Validated: 1
EndChar

StartChar: quotedbl
Encoding: 34 34 32
Width: 1408
Flags: MW
LayerCount: 2
Back
Fore
SplineSet
832 1792 m 24,0,-1
 1088 1792 l 24,1,-1
 1088 1024 l 25,2,-1
 832 1024 l 25,3,4
 832 1024 832 1024 832 1792 c 24,0,-1
320 1792 m 24,5,-1
 576 1792 l 24,6,-1
 576 1024 l 25,7,-1
 320 1024 l 25,8,9
 320 1024 320 1024 320 1792 c 24,5,-1
EndSplineSet
Validated: 1
EndChar

StartChar: numbersign
Encoding: 35 35 33
Width: 1408
Flags: MW
LayerCount: 2
Back
Fore
SplineSet
832 1024 m 25,0,-1
 576 1024 l 25,1,-1
 576 768 l 24,2,-1
 832 768 l 17,3,4
 832 768 832 768 832 1024 c 25,0,-1
1088 1792 m 25,5,-1
 1088 1280 l 24,6,-1
 1344 1280 l 25,7,-1
 1344 1024 l 25,8,-1
 1088 1024 l 24,9,-1
 1088 768 l 24,10,-1
 1344 768 l 24,11,-1
 1344 512 l 25,12,-1
 1088 512 l 24,13,-1
 1088 0 l 24,14,-1
 832 0 l 25,15,-1
 832 512 l 25,16,-1
 576 512 l 25,17,-1
 576 0 l 25,18,-1
 320 0 l 25,19,-1
 320 512 l 25,20,-1
 64 512 l 25,21,-1
 64 768 l 24,22,-1
 320 768 l 24,23,-1
 320 1024 l 25,24,-1
 64 1024 l 25,25,-1
 64 1280 l 25,26,-1
 320 1280 l 25,27,-1
 320 1792 l 25,28,-1
 576 1792 l 25,29,-1
 576 1280 l 25,30,-1
 832 1280 l 25,31,-1
 832 1792 l 25,32,-1
 1088 1792 l 25,5,-1
EndSplineSet
Validated: 1
EndChar

StartChar: dollar
Encoding: 36 36 34
Width: 1408
Flags: MW
LayerCount: 2
Back
Fore
SplineSet
832 768 m 9,0,-1
 832 512 l 25,1,2
 832 512 832 512 1013 512 c 0,3,4
 1088 512 1088 512 1088 587 c 24,5,6
 1088 678 1088 678 1088 693 c 0,7,8
 1088 768 1088 768 1013 768 c 16,9,10
 922 768 922 768 832 768 c 9,0,-1
395 1280 m 0,11,12
 320 1280 320 1280 320 1205 c 16,13,14
 320 1114 320 1114 320 1099 c 0,15,16
 320 1024 320 1024 393 1024 c 0,17,18
 394 1024 394 1024 395 1024 c 8,19,-1
 576 1024 l 25,20,-1
 576 1280 l 25,21,22
 576 1280 576 1280 395 1280 c 0,11,12
395 768 m 16,23,24
 64 768 64 768 64 1099 c 24,25,26
 64 1099 64 1099 64 1205 c 0,27,28
 64 1536 64 1536 395 1536 c 24,29,-1
 576 1536 l 24,30,-1
 576 1792 l 25,31,-1
 832 1792 l 25,32,-1
 832 1536 l 24,33,-1
 1344 1536 l 24,34,35
 1344 1536 1344 1536 1344 1280 c 25,36,-1
 832 1280 l 25,37,-1
 832 1024 l 25,38,-1
 1013 1024 l 0,39,40
 1344 1024 1344 1024 1344 693 c 24,41,42
 1344 693 1344 693 1344 587 c 0,43,44
 1344 256 1344 256 1013 256 c 24,45,-1
 832 256 l 25,46,-1
 832 0 l 25,47,-1
 576 0 l 25,48,-1
 576 256 l 25,49,-1
 64 256 l 25,50,-1
 64 512 l 25,51,-1
 576 512 l 25,52,53
 576 512 576 512 576 768 c 24,54,-1
 395 768 l 16,23,24
EndSplineSet
Validated: 1
EndChar

StartChar: percent
Encoding: 37 37 35
Width: 1408
Flags: MW
LayerCount: 2
Back
Fore
SplineSet
1344 1355 m 25,0,-1
 245 256 l 24,1,-1
 64 256 l 25,2,-1
 64 437 l 24,3,-1
 1163 1536 l 24,4,-1
 1344 1536 l 24,5,6
 1344 1536 1344 1536 1344 1355 c 25,0,-1
832 512 m 25,7,-1
 1344 512 l 25,8,-1
 1344 0 l 25,9,-1
 832 0 l 25,10,-1
 832 512 l 25,7,-1
64 1792 m 25,11,-1
 576 1792 l 25,12,-1
 576 1280 l 25,13,-1
 64 1280 l 25,14,-1
 64 1792 l 25,11,-1
EndSplineSet
Validated: 1
EndChar

StartChar: ampersand
Encoding: 38 38 36
Width: 1408
Flags: MW
LayerCount: 2
Back
Fore
SplineSet
1141 384 m 1,0,1
 1344 182 1344 182 1344 182 c 128,-1,2
 1344 182 1344 182 1344 0 c 25,3,4
 1344 0 1344 0 1163 0 c 0,5,6
 1163 0 1163 0 961 204 c 1,7,8
 961 204 961 204 757 0 c 1,9,10
 757 0 757 0 395 0 c 0,11,12
 64 0 64 0 64 331 c 25,13,14
 64 331 64 331 64 693 c 0,15,16
 64 693 64 693 267 896 c 9,17,-1
 64 1099 l 1,18,-1
 64 1461 l 17,19,20
 64 1792 64 1792 395 1792 c 24,21,22
 395 1792 395 1792 501 1792 c 0,23,24
 832 1792 832 1792 832 1469 c 0,25,26
 832 1465 832 1465 832 1461 c 9,27,28
 832 1461 832 1461 832 1099 c 1,29,-1
 629 896 l 1,30,31
 629 896 629 896 960 565 c 1,32,33
 960 565 960 565 1163 768 c 0,34,35
 1163 768 1163 768 1344 768 c 1,36,37
 1344 768 1344 768 1344 587 c 1,38,39
 1141 384 1141 384 1141 384 c 1,0,1
780 385 m 1,40,41
 780 385 780 385 451 717 c 1,42,43
 451 717 451 717 320 587 c 9,44,45
 320 422 320 422 320 331 c 0,46,47
 320 256 320 256 395 256 c 24,48,49
 542 256 542 256 651 256 c 0,50,51
 651 256 651 256 780 385 c 1,40,41
448 1077 m 16,52,-1
 576 1205 l 1,53,54
 576 1373 576 1373 576 1461 c 0,55,56
 576 1536 576 1536 501 1536 c 24,57,-1
 395 1536 l 0,58,59
 320 1536 320 1536 320 1461 c 24,60,61
 320 1461 320 1461 320 1205 c 0,62,-1
 448 1077 l 16,52,-1
EndSplineSet
Validated: 1
EndChar

StartChar: quotesingle
Encoding: 39 39 37
Width: 1408
Flags: MW
LayerCount: 2
Back
Fore
SplineSet
576 1792 m 25,0,-1
 832 1792 l 25,1,-1
 832 1024 l 25,2,-1
 576 1024 l 25,3,-1
 576 1792 l 25,0,-1
EndSplineSet
Validated: 1
EndChar

StartChar: parenleft
Encoding: 40 40 38
Width: 1408
Flags: MW
LayerCount: 2
Back
Fore
SplineSet
1088 1792 m 25,0,-1
 1088 1611 l 1,1,-1
 576 1099 l 0,2,3
 576 1099 576 1099 576 693 c 1,4,-1
 1088 181 l 0,5,6
 1088 181 1088 181 1088 0 c 25,7,8
 1088 0 1088 0 907 0 c 24,9,10
 907 0 907 0 320 587 c 25,11,12
 320 1190 320 1190 320 1205 c 28,13,14
 320 1205 320 1205 907 1792 c 28,15,16
 997 1792 997 1792 1088 1792 c 25,0,-1
EndSplineSet
Validated: 1
EndChar

StartChar: parenright
Encoding: 41 41 39
Width: 1408
Flags: MW
LayerCount: 2
Back
Fore
SplineSet
519 1792 m 25,0,-1
 1088 1205 l 24,1,-1
 1088 587 l 25,2,-1
 501 0 l 25,3,-1
 320 0 l 25,4,-1
 320 182 l 24,5,-1
 832 693 l 24,6,-1
 832 1099 l 25,7,-1
 320 1611 l 25,8,-1
 320 1792 l 25,9,-1
 519 1792 l 25,0,-1
EndSplineSet
Validated: 1
EndChar

StartChar: asterisk
Encoding: 42 42 40
Width: 1408
Flags: MW
LayerCount: 2
Back
Fore
SplineSet
885 896 m 1,0,1
 1335 454 1335 454 1344 437 c 0,2,3
 1344 437 1344 437 1344 256 c 25,4,5
 1344 256 1344 256 1163 256 c 24,6,7
 1163 256 1163 256 832 587 c 25,8,-1
 832 0 l 25,9,-1
 576 0 l 25,10,-1
 576 587 l 25,11,-1
 245 256 l 17,12,13
 64 256 64 256 64 256 c 25,14,15
 64 437 64 437 64 437 c 130,-1,16
 64 437 64 437 523 896 c 1,17,18
 523 896 523 896 64 1355 c 1,19,20
 64 1536 64 1536 64 1536 c 152,-1,21
 64 1536 64 1536 245 1536 c 24,22,23
 245 1536 245 1536 576 1205 c 24,24,25
 576 1205 576 1205 576 1792 c 25,26,-1
 832 1792 l 25,27,-1
 832 1205 l 0,28,-1
 1162 1536 l 24,29,30
 1162 1536 1162 1536 1344 1536 c 0,31,32
 1344 1536 1344 1536 1344 1355 c 1,33,34
 1344 1355 1344 1355 885 896 c 1,0,1
EndSplineSet
Validated: 1
EndChar

StartChar: plus
Encoding: 43 43 41
Width: 1408
Flags: MW
LayerCount: 2
Back
Fore
SplineSet
576 1536 m 29,0,-1
 832 1536 l 25,1,-1
 832 1024 l 25,2,-1
 1344 1024 l 25,3,-1
 1344 768 l 24,4,-1
 832 768 l 24,5,-1
 832 256 l 25,6,-1
 576 256 l 25,7,-1
 576 768 l 24,8,-1
 64 768 l 24,9,-1
 64 1024 l 25,10,-1
 576 1024 l 25,11,-1
 576 1536 l 29,0,-1
EndSplineSet
Validated: 1
EndChar

StartChar: comma
Encoding: 44 44 42
Width: 1408
Flags: MW
LayerCount: 2
Back
Fore
SplineSet
960 331 m 0,0,1
 960 0 960 0 629 0 c 24,2,-1
 448 0 l 25,3,-1
 448 256 l 25,4,-1
 629 256 l 0,5,6
 704 256 704 256 704 331 c 24,7,-1
 704 768 l 24,8,-1
 960 768 l 24,9,10
 960 384 960 384 960 331 c 0,0,1
EndSplineSet
Validated: 1
EndChar

StartChar: hyphen
Encoding: 45 45 43
Width: 1408
Flags: MW
LayerCount: 2
Back
Fore
SplineSet
64 1024 m 25,0,-1
 1344 1024 l 25,1,-1
 1344 768 l 24,2,-1
 64 768 l 24,3,4
 64 768 64 768 64 1024 c 25,0,-1
EndSplineSet
Validated: 1
EndChar

StartChar: period
Encoding: 46 46 44
Width: 1408
Flags: MW
LayerCount: 2
Back
Fore
SplineSet
576 256 m 29,0,-1
 832 256 l 25,1,-1
 832 0 l 25,2,-1
 576 0 l 25,3,-1
 576 256 l 29,0,-1
EndSplineSet
Validated: 1
EndChar

StartChar: slash
Encoding: 47 47 45
Width: 1408
Flags: MW
LayerCount: 2
Back
Fore
SplineSet
263 256 m 25,0,-1
 64 256 l 25,1,-1
 64 455 l 24,2,-1
 1145 1536 l 25,3,-1
 1344 1536 l 25,4,-1
 1344 1337 l 25,5,6
 1344 1337 1344 1337 263 256 c 25,0,-1
EndSplineSet
Validated: 1
EndChar

StartChar: zero
Encoding: 48 48 46
Width: 1408
Flags: MW
LayerCount: 2
Back
Fore
SplineSet
1088 331 m 9,0,-1
 1088 1099 l 1,1,2
 1088 1099 1088 1099 320 331 c 1,3,4
 320 256 320 256 395 256 c 24,5,-1
 1013 256 l 0,6,7
 1088 256 1088 256 1088 331 c 9,0,-1
1088 1461 m 0,8,9
 1088 1536 1088 1536 1013 1536 c 0,10,-1
 395 1536 l 0,11,12
 320 1536 320 1536 320 1461 c 24,13,14
 320 1461 320 1461 320 693 c 0,15,16
 320 693 320 693 1088 1461 c 0,8,9
1013 1792 m 0,17,18
 1344 1792 1344 1792 1344 1461 c 24,19,20
 1344 730 1344 730 1344 331 c 0,21,22
 1344 0 1344 0 1013 0 c 24,23,-1
 395 0 l 0,24,25
 64 0 64 0 64 331 c 24,26,27
 64 1062 64 1062 64 1461 c 0,28,29
 64 1792 64 1792 395 1792 c 24,30,31
 395 1792 395 1792 1013 1792 c 0,17,18
EndSplineSet
Validated: 1
EndChar

StartChar: one
Encoding: 49 49 47
Width: 1408
Flags: MW
LayerCount: 2
Back
Fore
SplineSet
576 1734 m 0,0,1
 576 1792 576 1792 704 1792 c 128,-1,2
 832 1792 832 1792 832 1734 c 1,3,4
 832 312 832 312 832 256 c 1,5,-1
 1013 256 l 0,6,7
 1088 256 1088 256 1088 128 c 132,-1,8
 1088 0 1088 0 1013 0 c 2,9,10
 1013 0 1013 0 395 0 c 0,11,12
 320 0 320 0 320 127 c 0,13,14
 320 256 320 256 395 256 c 0,15,-1
 576 256 l 1,16,17
 576 256 576 256 576 1280 c 1,18,19
 538 1280 538 1280 378 1280 c 0,20,21
 320 1280 320 1280 320 1408 c 128,-1,22
 320 1536 320 1536 378 1536 c 0,23,-1
 501 1536 l 0,24,25
 576 1536 576 1536 576 1611 c 0,26,-1
 576 1734 l 0,0,1
EndSplineSet
Validated: 1
EndChar

StartChar: two
Encoding: 50 50 48
Width: 1408
Flags: MW
LayerCount: 2
Back
Fore
SplineSet
64 1461 m 0,0,1
 64 1792 64 1792 395 1792 c 0,2,-1
 1013 1792 l 0,3,4
 1344 1792 1344 1792 1344 1461 c 0,5,6
 1344 1114 1344 1114 1344 1099 c 0,7,8
 1344 1099 1344 1099 1013 768 c 0,9,-1
 757 768 l 1,10,11
 757 768 757 768 256 256 c 1,12,13
 256 256 256 256 1269 256 c 0,14,15
 1344 256 1344 256 1344 128 c 128,-1,16
 1344 0 1344 0 1269 0 c 2,17,18
 1269 0 1269 0 64 0 c 1,19,20
 64 218 64 218 64 437 c 0,21,22
 64 437 64 437 651 1024 c 2,23,24
 651 1024 651 1024 907 1024 c 0,25,26
 907 1024 907 1024 1088 1205 c 0,27,28
 1088 1205 1088 1205 1088 1461 c 0,29,30
 1088 1536 1088 1536 1013 1536 c 0,31,-1
 395 1536 l 0,32,33
 320 1536 320 1536 320 1461 c 0,34,-1
 320 1337 l 0,35,36
 320 1280 320 1280 193 1280 c 1,37,38
 64 1280 64 1280 64 1337 c 1,39,40
 64 1337 64 1337 64 1461 c 0,0,1
EndSplineSet
Validated: 1
EndChar

StartChar: three
Encoding: 51 51 49
Width: 1408
Flags: MW
LayerCount: 2
Back
Fore
SplineSet
139 1792 m 0,0,1
 742 1792 742 1792 1344 1792 c 25,2,3
 1344 1792 1344 1792 1344 1355 c 1,4,5
 1344 1355 1344 1355 1088 1099 c 0,6,7
 1088 1099 1088 1099 1088 1024 c 1,8,9
 1344 1024 1344 1024 1344 696 c 0,10,11
 1344 694 1344 694 1344 693 c 0,12,13
 1344 693 1344 693 1344 331 c 17,14,15
 1344 0 1344 0 1013 0 c 24,16,17
 406 0 406 0 395 0 c 0,18,19
 64 0 64 0 64 331 c 25,20,21
 64 455 64 455 64 455 c 0,22,23
 64 512 64 512 192 512 c 128,-1,24
 320 512 320 512 320 455 c 0,25,-1
 320 331 l 17,26,27
 320 256 320 256 395 256 c 24,28,29
 395 256 395 256 1013 256 c 0,30,31
 1088 256 1088 256 1088 331 c 25,32,33
 1088 550 1088 550 1088 693 c 0,34,35
 1088 768 1088 768 1013 768 c 24,36,-1
 633 768 l 0,37,38
 576 768 576 768 576 896 c 128,-1,39
 576 1024 576 1024 633 1024 c 8,40,-1
 651 1024 l 24,41,42
 651 1024 651 1024 1088 1461 c 17,43,44
 1088 1536 1088 1536 1013 1536 c 24,45,-1
 139 1536 l 0,46,47
 64 1536 64 1536 64 1664 c 128,-1,48
 64 1792 64 1792 139 1792 c 0,0,1
EndSplineSet
Validated: 1
EndChar

StartChar: four
Encoding: 52 52 50
Width: 1408
Flags: MW
LayerCount: 2
Back
Fore
SplineSet
832 768 m 24,0,-1
 832 1355 l 25,1,-1
 320 843 l 25,2,-1
 320 768 l 24,3,4
 320 768 320 768 832 768 c 24,0,-1
1088 1792 m 24,5,-1
 1088 768 l 24,6,-1
 1287 768 l 0,7,8
 1344 768 1344 768 1344 640 c 128,-1,9
 1344 512 1344 512 1287 512 c 8,10,-1
 1088 512 l 25,11,-1
 1088 0 l 25,12,-1
 832 0 l 25,13,-1
 832 512 l 25,14,-1
 64 512 l 25,15,-1
 64 949 l 25,16,-1
 907 1792 l 24,17,18
 907 1792 907 1792 1088 1792 c 24,5,-1
EndSplineSet
Validated: 1
EndChar

StartChar: five
Encoding: 53 53 51
Width: 1408
Flags: MW
LayerCount: 2
Back
Fore
SplineSet
1287 1792 m 0,0,1
 1344 1792 1344 1792 1344 1664 c 128,-1,2
 1344 1536 1344 1536 1287 1536 c 8,3,-1
 320 1536 l 24,4,-1
 320 1280 l 25,5,-1
 1013 1280 l 0,6,7
 1344 1280 1344 1280 1344 949 c 24,8,9
 1344 331 1344 331 1344 331 c 0,10,11
 1344 0 1344 0 1013 0 c 24,12,-1
 395 0 l 0,13,14
 64 0 64 0 64 331 c 24,15,16
 64 455 64 455 64 455 c 0,17,18
 64 512 64 512 192 512 c 128,-1,19
 320 512 320 512 320 455 c 8,20,-1
 320 331 l 0,21,22
 320 256 320 256 395 256 c 24,23,-1
 1013 256 l 0,24,25
 1088 256 1088 256 1088 331 c 24,26,27
 1088 949 1088 949 1088 949 c 0,28,29
 1088 1024 1088 1024 1013 1024 c 24,30,-1
 64 1024 l 25,31,-1
 64 1792 l 18,32,33
 64 1792 64 1792 1287 1792 c 0,0,1
EndSplineSet
Validated: 1
EndChar

StartChar: six
Encoding: 54 54 52
Width: 1408
Flags: MW
LayerCount: 2
Back
Fore
SplineSet
320 331 m 0,0,1
 320 256 320 256 395 256 c 24,2,-1
 1013 256 l 0,3,4
 1088 256 1088 256 1088 331 c 24,5,6
 1088 550 1088 550 1088 693 c 0,7,8
 1088 768 1088 768 1013 768 c 24,9,10
 1013 768 1013 768 320 768 c 24,11,12
 320 768 320 768 320 331 c 0,0,1
1287 1792 m 0,13,14
 1344 1792 1344 1792 1344 1664 c 128,-1,15
 1344 1536 1344 1536 1287 1536 c 0,16,-1
 757 1536 l 25,17,-1
 320 1099 l 25,18,-1
 320 1024 l 25,19,-1
 1013 1024 l 0,20,21
 1344 1024 1344 1024 1344 693 c 24,22,23
 1344 346 1344 346 1344 331 c 0,24,25
 1344 0 1344 0 1013 0 c 24,26,-1
 395 0 l 0,27,28
 64 0 64 0 64 331 c 24,29,30
 64 331 64 331 64 1205 c 24,31,32
 64 1205 64 1205 651 1792 c 24,33,34
 651 1792 651 1792 1287 1792 c 0,13,14
EndSplineSet
Validated: 1
EndChar

StartChar: seven
Encoding: 55 55 53
Width: 1408
Flags: MW
LayerCount: 2
Back
Fore
SplineSet
64 1792 m 25,0,-1
 1344 1792 l 25,1,-1
 1344 1355 l 25,2,-1
 576 587 l 25,3,-1
 576 0 l 25,4,-1
 320 0 l 25,5,-1
 320 693 l 24,6,-1
 1088 1461 l 25,7,-1
 1088 1536 l 25,8,-1
 64 1536 l 17,9,10
 64 1536 64 1536 64 1792 c 25,0,-1
EndSplineSet
Validated: 1
EndChar

StartChar: eight
Encoding: 56 56 54
Width: 1408
Flags: MW
LayerCount: 2
Back
Fore
SplineSet
320 331 m 0,0,1
 320 256 320 256 395 256 c 24,2,-1
 1013 256 l 0,3,4
 1088 256 1088 256 1088 331 c 24,5,6
 1088 693 1088 693 1088 693 c 1,7,8
 1088 768 1088 768 1013 768 c 1,9,10
 1013 768 1013 768 395 768 c 0,11,12
 320 768 320 768 320 693 c 24,13,14
 320 608 320 608 320 331 c 0,0,1
320 1099 m 0,15,16
 320 1024 320 1024 395 1024 c 24,17,-1
 1013 1024 l 0,18,19
 1088 1024 1088 1024 1088 1099 c 24,20,21
 1088 1318 1088 1318 1088 1461 c 0,22,23
 1088 1536 1088 1536 1013 1536 c 24,24,-1
 395 1536 l 0,25,26
 320 1536 320 1536 320 1461 c 24,27,28
 320 1389 320 1389 320 1099 c 0,15,16
1232 896 m 1,29,30
 1344 839 1344 839 1344 693 c 0,31,32
 1344 331 1344 331 1344 331 c 0,33,34
 1344 0 1344 0 1013 0 c 24,35,36
 395 0 395 0 395 0 c 0,37,38
 64 0 64 0 64 331 c 24,39,40
 64 331 64 331 64 693 c 0,41,42
 65 834 65 834 176 896 c 1,43,44
 64 957 64 957 64 1099 c 0,45,46
 64 1461 64 1461 64 1461 c 0,47,48
 64 1792 64 1792 395 1792 c 24,49,50
 1013 1792 1013 1792 1013 1792 c 0,51,52
 1344 1792 1344 1792 1344 1461 c 24,53,54
 1344 1446 1344 1446 1344 1099 c 0,55,56
 1344 954 1344 954 1232 896 c 1,29,30
EndSplineSet
Validated: 1
EndChar

StartChar: nine
Encoding: 57 57 55
Width: 1408
Flags: MW
LayerCount: 2
Back
Fore
SplineSet
1088 1461 m 0,0,1
 1088 1536 1088 1536 1013 1536 c 24,2,-1
 395 1536 l 0,3,4
 320 1536 320 1536 320 1461 c 24,5,6
 320 1242 320 1242 320 1099 c 0,7,8
 320 1024 320 1024 395 1024 c 24,9,-1
 1088 1024 l 25,10,11
 1088 1280 1088 1280 1088 1461 c 0,0,1
1013 1792 m 0,12,13
 1344 1792 1344 1792 1344 1461 c 24,14,15
 1344 1461 1344 1461 1344 587 c 25,16,-1
 757 0 l 1,17,-1
 121 0 l 17,18,19
 64 0 64 0 64 128 c 128,-1,20
 64 256 64 256 121 256 c 0,21,-1
 651 256 l 24,22,23
 651 256 651 256 1088 693 c 24,24,25
 1088 693 1088 693 1088 768 c 24,26,-1
 395 768 l 0,27,28
 64 768 64 768 64 1099 c 24,29,30
 64 1446 64 1446 64 1461 c 0,31,32
 64 1792 64 1792 395 1792 c 24,33,34
 395 1792 395 1792 1013 1792 c 0,12,13
EndSplineSet
Validated: 1
EndChar

StartChar: colon
Encoding: 58 58 56
Width: 1408
Flags: MW
LayerCount: 2
Back
Fore
SplineSet
576 768 m 29,0,-1
 832 768 l 25,1,-1
 832 512 l 25,2,-1
 576 512 l 25,3,-1
 576 768 l 29,0,-1
576 1280 m 25,4,-1
 832 1280 l 25,5,-1
 832 1024 l 25,6,-1
 576 1024 l 25,7,-1
 576 1280 l 25,4,-1
EndSplineSet
Validated: 1
EndChar

StartChar: semicolon
Encoding: 59 59 57
Width: 1408
Flags: MW
LayerCount: 2
Back
Fore
SplineSet
960 768 m 24,0,1
 960 768 960 768 960 331 c 0,2,3
 960 0 960 0 629 0 c 24,4,-1
 448 0 l 25,5,-1
 448 256 l 25,6,-1
 629 256 l 0,7,8
 704 256 704 256 704 331 c 24,9,-1
 704 768 l 24,10,11
 704 768 704 768 960 768 c 24,0,1
704 1280 m 25,12,-1
 960 1280 l 25,13,-1
 960 1024 l 25,14,-1
 704 1024 l 25,15,-1
 704 1280 l 25,12,-1
EndSplineSet
Validated: 1
EndChar

StartChar: less
Encoding: 60 60 58
Width: 1408
Flags: MW
LayerCount: 2
Back
Fore
SplineSet
501 896 m 1,0,1
 501 896 501 896 1216 182 c 0,2,3
 1216 182 1216 182 1216 0 c 25,4,5
 1216 0 1216 0 1035 0 c 24,6,7
 1035 0 1035 0 192 843 c 25,8,-1
 192 949 l 25,9,10
 192 949 192 949 1035 1792 c 24,11,12
 1035 1792 1035 1792 1216 1792 c 24,13,14
 1216 1792 1216 1792 1216 1611 c 1,15,-1
 501 896 l 1,0,1
EndSplineSet
Validated: 1
EndChar

StartChar: equal
Encoding: 61 61 59
Width: 1408
Flags: MW
LayerCount: 2
Back
Fore
SplineSet
64 768 m 24,0,-1
 1344 768 l 24,1,-1
 1344 512 l 25,2,-1
 64 512 l 25,3,4
 64 512 64 512 64 768 c 24,0,-1
64 1280 m 25,5,-1
 1344 1280 l 25,6,-1
 1344 1024 l 25,7,-1
 64 1024 l 25,8,-1
 64 1280 l 25,5,-1
EndSplineSet
Validated: 1
EndChar

StartChar: greater
Encoding: 62 62 60
Width: 1408
Flags: MW
LayerCount: 2
Back
Fore
SplineSet
907 896 m 129,-1,1
 907 896 907 896 192 1611 c 1,2,-1
 192 1792 l 25,3,4
 373 1792 373 1792 373 1792 c 24,5,6
 1216 949 1216 949 1216 949 c 25,7,8
 1216 843 1216 843 1216 843 c 25,9,10
 373 0 373 0 373 0 c 24,11,12
 192 0 192 0 192 0 c 25,13,14
 192 181 192 181 192 181 c 0,15,0
 907 896 907 896 907 896 c 129,-1,1
EndSplineSet
Validated: 1
EndChar

StartChar: question
Encoding: 63 63 61
Width: 1408
Flags: MW
LayerCount: 2
Back
Fore
SplineSet
1013 1792 m 0,0,1
 1344 1792 1344 1792 1344 1461 c 25,2,-1
 1344 1355 l 1,3,-1
 832 843 l 25,4,-1
 832 512 l 1,5,-1
 576 512 l 25,6,-1
 576 949 l 25,7,-1
 1088 1461 l 17,8,9
 1088 1536 1088 1536 1013 1536 c 24,10,11
 1013 1536 1013 1536 395 1536 c 0,12,13
 320 1536 320 1536 320 1461 c 25,14,-1
 320 1337 l 25,15,-1
 64 1337 l 25,16,-1
 64 1461 l 17,17,18
 64 1792 64 1792 395 1792 c 24,19,20
 395 1792 395 1792 1013 1792 c 0,0,1
576 256 m 25,21,-1
 832 256 l 25,22,-1
 832 0 l 25,23,-1
 576 0 l 25,24,-1
 576 256 l 25,21,-1
EndSplineSet
Validated: 1
EndChar

StartChar: at
Encoding: 64 64 62
Width: 1408
Flags: MW
LayerCount: 2
Back
Fore
SplineSet
1088 1461 m 1,0,1
 1088 1536 1088 1536 1013 1536 c 0,2,3
 704 1536 704 1536 395 1536 c 1,4,5
 320 1536 320 1536 320 1461 c 1,6,7
 320 1461 320 1461 320 331 c 1,8,9
 320 256 320 256 395 256 c 1,10,11
 395 256 395 256 1287 256 c 0,12,13
 1344 256 1344 256 1344 128 c 128,-1,14
 1344 0 1344 0 1287 0 c 0,15,16
 1287 0 1287 0 377 0 c 0,17,18
 64 0 64 0 64 327 c 1,19,20
 64 1026 64 1026 64 1461 c 0,21,22
 64 1792 64 1792 395 1792 c 0,23,24
 395 1792 395 1792 1013 1792 c 0,25,26
 1344 1792 1344 1792 1344 1461 c 0,27,28
 1344 986 1344 986 1344 839 c 0,29,30
 1344 512 1344 512 1013 512 c 0,31,32
 1013 512 1013 512 907 512 c 0,33,34
 576 512 576 512 576 843 c 0,35,36
 576 1213 576 1213 576 1223 c 0,37,38
 576 1280 576 1280 704 1280 c 128,-1,39
 832 1280 832 1280 832 1223 c 0,40,-1
 832 896 l 0,41,42
 832 825 832 825 907 825 c 0,43,44
 907 825 907 825 1013 825 c 0,45,46
 1088 825 1088 825 1088 896 c 0,47,48
 1088 896 1088 896 1088 1461 c 1,0,1
EndSplineSet
Validated: 1
EndChar

StartChar: A
Encoding: 65 65 63
Width: 1408
Flags: MW
LayerCount: 2
Back
Fore
SplineSet
704 1483 m 1,0,1
 704 1483 704 1483 320 1099 c 1,2,-1
 320 825 l 0,3,4
 320 768 320 768 377 768 c 24,5,6
 377 768 377 768 1031 768 c 0,7,8
 1088 768 1088 768 1088 825 c 24,9,10
 1088 825 1088 825 1088 1099 c 0,11,-1
 704 1483 l 1,0,1
757 1792 m 17,12,13
 757 1792 757 1792 1344 1205 c 24,14,-1
 1344 0 l 25,15,-1
 1088 0 l 25,16,-1
 1088 455 l 0,17,18
 1088 512 1088 512 1031 512 c 24,19,20
 704 512 704 512 377 512 c 24,21,22
 320 512 320 512 320 455 c 24,23,-1
 320 0 l 25,24,-1
 64 0 l 25,25,-1
 64 1205 l 24,26,-1
 651 1792 l 24,27,28
 651 1792 651 1792 757 1792 c 17,12,13
EndSplineSet
Validated: 1
EndChar

StartChar: B
Encoding: 66 66 64
Width: 1408
Flags: MW
LayerCount: 2
Back
Fore
SplineSet
320 768 m 0,0,-1
 320 256 l 1,1,-1
 1031 256 l 0,2,3
 1088 256 1088 256 1088 313 c 1,4,5
 1088 640 1088 640 1088 711 c 0,6,7
 1088 768 1088 768 1031 768 c 1,8,9
 320 768 320 768 320 768 c 0,0,-1
1031 1024 m 1,10,11
 1088 1024 1088 1024 1088 1081 c 0,12,-1
 1088 1465 l 1,13,14
 1088 1536 1088 1536 1031 1536 c 0,15,-1
 320 1536 l 1,16,-1
 320 1024 l 1,17,-1
 1031 1024 l 1,10,11
1031 1792 m 0,18,19
 1344 1792 1344 1792 1344 1465 c 1,20,21
 1344 1180 1344 1180 1344 1081 c 0,22,23
 1344 896 1344 896 1216 896 c 1,24,25
 1344 896 1344 896 1344 710 c 0,26,-1
 1344 313 l 1,27,28
 1344 0 1344 0 1031 0 c 0,29,-1
 64 0 l 1,30,-1
 64 1792 l 1,31,32
 64 1792 64 1792 1031 1792 c 0,18,19
EndSplineSet
Validated: 1
EndChar

StartChar: C
Encoding: 67 67 65
Width: 1408
Flags: MW
LayerCount: 2
Back
Fore
SplineSet
320 313 m 1,0,1
 320 256 320 256 377 256 c 0,2,3
 704 256 704 256 1031 256 c 0,4,5
 1088 256 1088 256 1088 313 c 0,6,7
 1088 313 1088 313 1088 512 c 1,8,9
 1088 512 1088 512 1344 512 c 1,10,-1
 1344 313 l 1,11,12
 1344 0 1344 0 1031 0 c 0,13,14
 704 0 704 0 377 0 c 0,15,16
 64 0 64 0 64 313 c 1,17,18
 64 313 64 313 64 512 c 1,19,20
 64 512 64 512 64 1280 c 1,21,-1
 64 1465 l 1,22,23
 64 1792 64 1792 377 1792 c 0,24,25
 704 1792 704 1792 1031 1792 c 0,26,27
 1344 1792 1344 1792 1344 1465 c 1,28,29
 1344 1465 1344 1465 1344 1280 c 1,30,-1
 1088 1279 l 1,31,32
 1088 1464 1088 1464 1088 1465 c 0,33,34
 1088 1536 1088 1536 1031 1536 c 0,35,36
 1031 1536 1031 1536 377 1536 c 1,37,38
 320 1536 320 1536 320 1465 c 1,39,40
 320 889 320 889 320 313 c 1,0,1
EndSplineSet
Validated: 1
EndChar

StartChar: D
Encoding: 68 68 66
Width: 1408
Flags: MW
LayerCount: 2
Back
Fore
SplineSet
1031 256 m 0,0,1
 1088 256 1088 256 1088 313 c 1,2,3
 1088 313 1088 313 1088 1465 c 1,4,5
 1088 1536 1088 1536 1031 1536 c 1,6,7
 1031 1536 1031 1536 320 1536 c 1,8,-1
 320 256 l 1,9,10
 676 256 676 256 1031 256 c 0,0,1
1031 1792 m 0,11,12
 1344 1789 1344 1789 1344 1465 c 0,13,14
 1344 1236 1344 1236 1344 313 c 0,15,16
 1344 0 1344 0 1031 0 c 1,17,18
 1031 0 1031 0 64 0 c 1,19,20
 64 0 64 0 64 1792 c 0,21,22
 64 1792 64 1792 1031 1792 c 0,11,12
EndSplineSet
Validated: 1
EndChar

StartChar: E
Encoding: 69 69 67
Width: 1408
Flags: MW
LayerCount: 2
Back
Fore
SplineSet
64 0 m 29,0,-1
 64 1792 l 25,1,-1
 1344 1792 l 25,2,-1
 1344 1536 l 25,3,-1
 320 1536 l 25,4,-1
 320 1024 l 25,5,-1
 1088 1024 l 25,6,-1
 1088 768 l 25,7,-1
 320 768 l 25,8,-1
 320 256 l 25,9,-1
 1344 256 l 25,10,-1
 1344 0 l 25,11,-1
 64 0 l 29,0,-1
EndSplineSet
Validated: 1
EndChar

StartChar: F
Encoding: 70 70 68
Width: 1408
Flags: MW
LayerCount: 2
Back
Fore
SplineSet
64 0 m 29,0,-1
 64 1792 l 25,1,-1
 1344 1792 l 25,2,-1
 1344 1536 l 25,3,-1
 320 1536 l 25,4,-1
 320 1024 l 25,5,-1
 1088 1024 l 25,6,-1
 1088 768 l 25,7,-1
 320 768 l 25,8,-1
 320 0 l 25,9,-1
 64 0 l 29,0,-1
EndSplineSet
Validated: 1
EndChar

StartChar: G
Encoding: 71 71 69
Width: 1408
Flags: MW
LayerCount: 2
Back
Fore
SplineSet
64 1465 m 1,0,1
 64 1792 64 1792 377 1792 c 1,2,3
 377 1792 377 1792 1344 1792 c 25,4,-1
 1344 1536 l 1,5,-1
 377 1536 l 1,6,7
 320 1536 320 1536 320 1465 c 1,8,9
 320 1465 320 1465 320 313 c 1,10,11
 320 256 320 256 377 256 c 1,12,13
 377 256 377 256 1088 256 c 1,14,-1
 1088 512 l 1,15,-1
 888 512 l 0,16,17
 832 569 832 569 832 667 c 0,18,19
 832 711 832 711 888 768 c 0,20,21
 888 768 888 768 1344 768 c 1,22,23
 1344 768 1344 768 1344 0 c 25,24,-1
 377 0 l 0,25,26
 64 0 64 0 64 313 c 1,27,28
 64 610 64 610 64 1465 c 1,0,1
EndSplineSet
Validated: 1
EndChar

StartChar: H
Encoding: 72 72 70
Width: 1408
Flags: MW
LayerCount: 2
Back
Fore
SplineSet
64 0 m 29,0,-1
 64 1792 l 25,1,-1
 320 1792 l 25,2,-1
 320 1024 l 25,3,-1
 1088 1024 l 25,4,-1
 1088 1792 l 25,5,-1
 1344 1792 l 25,6,-1
 1344 0 l 25,7,-1
 1088 0 l 25,8,-1
 1088 768 l 25,9,-1
 320 768 l 25,10,-1
 320 0 l 25,11,-1
 64 0 l 29,0,-1
EndSplineSet
Validated: 1
EndChar

StartChar: I
Encoding: 73 73 71
Width: 1408
Flags: MW
LayerCount: 2
Back
Fore
SplineSet
320 0 m 25,0,-1
 320 256 l 25,1,-1
 576 256 l 25,2,-1
 576 1536 l 25,3,-1
 320 1536 l 25,4,-1
 320 1792 l 25,5,-1
 1088 1792 l 25,6,-1
 1088 1536 l 25,7,-1
 832 1536 l 25,8,-1
 832 256 l 25,9,-1
 1088 256 l 25,10,-1
 1088 0 l 25,11,-1
 320 0 l 25,0,-1
EndSplineSet
Validated: 1
EndChar

StartChar: J
Encoding: 74 74 72
Width: 1408
Flags: MW
LayerCount: 2
Back
Fore
SplineSet
320 512 m 1,0,1
 320 384 320 384 320 313 c 0,2,3
 320 256 320 256 377 256 c 0,4,5
 704 256 704 256 1031 256 c 0,6,7
 1088 256 1088 256 1088 313 c 1,8,9
 1088 1054 1088 1054 1088 1792 c 1,10,-1
 1344 1792 l 1,11,12
 1344 510 1344 510 1344 313 c 1,13,14
 1344 1 1344 1 1031 0 c 0,15,16
 1031 0 1031 0 377 0 c 0,17,18
 64 0 64 0 64 313 c 1,19,20
 64 313 64 313 64 512 c 1,21,22
 64 512 64 512 320 512 c 1,0,1
EndSplineSet
Validated: 1
EndChar

StartChar: K
Encoding: 75 75 73
Width: 1408
Flags: MW
LayerCount: 2
Back
Fore
SplineSet
629 896 m 1,0,1
 629 896 629 896 1344 182 c 0,2,3
 1344 182 1344 182 1344 0 c 25,4,5
 1344 0 1344 0 1163 0 c 24,6,-1
 395 768 l 24,7,8
 395 768 395 768 320 768 c 24,9,-1
 320 0 l 25,10,-1
 64 0 l 25,11,-1
 64 1792 l 25,12,-1
 320 1792 l 25,13,-1
 320 1024 l 25,14,15
 320 1024 320 1024 395 1024 c 24,16,-1
 1163 1792 l 24,17,18
 1163 1792 1163 1792 1344 1792 c 25,19,-1
 1344 1611 l 1,20,-1
 629 896 l 1,0,1
EndSplineSet
Validated: 1
EndChar

StartChar: L
Encoding: 76 76 74
Width: 1408
Flags: MW
LayerCount: 2
Back
Fore
SplineSet
64 0 m 29,0,-1
 64 1792 l 25,1,-1
 320 1792 l 25,2,-1
 320 256 l 25,3,-1
 1344 256 l 25,4,-1
 1344 0 l 25,5,-1
 64 0 l 29,0,-1
EndSplineSet
Validated: 1
EndChar

StartChar: M
Encoding: 77 77 75
Width: 1408
Flags: MW
LayerCount: 2
Back
Fore
SplineSet
704 1333 m 1,0,1
 704 1333 704 1333 1163 1792 c 0,2,3
 1163 1792 1163 1792 1344 1792 c 25,4,-1
 1344 0 l 25,5,-1
 1088 0 l 25,6,-1
 1088 1280 l 24,7,8
 1088 1280 1088 1280 1013 1280 c 24,9,10
 1013 1280 1013 1280 832 1099 c 1,11,-1
 832 825 l 0,12,13
 832 768 832 768 704 768 c 128,-1,14
 576 768 576 768 576 825 c 0,15,-1
 576 1099 l 1,16,17
 576 1099 576 1099 395 1280 c 24,18,19
 395 1280 395 1280 320 1280 c 25,20,-1
 320 0 l 25,21,-1
 64 0 l 25,22,-1
 64 1792 l 25,23,24
 64 1792 64 1792 245 1792 c 0,25,-1
 704 1333 l 1,0,1
EndSplineSet
Validated: 1
EndChar

StartChar: N
Encoding: 78 78 76
Width: 1408
Flags: MW
LayerCount: 2
Back
Fore
SplineSet
320 1461 m 1,0,-1
 1088 693 l 1,1,2
 1088 693 1088 693 1088 1792 c 1,3,4
 1088 1792 1088 1792 1344 1792 c 1,5,6
 1344 1792 1344 1792 1344 0 c 1,7,-1
 1088 0 l 1,8,9
 1088 0 1088 0 1088 331 c 1,10,-1
 320 1099 l 1,11,12
 320 1099 320 1099 320 0 c 1,13,-1
 64 0 l 1,14,-1
 64 1792 l 1,15,16
 64 1792 64 1792 320 1792 c 1,17,18
 320 1792 320 1792 320 1461 c 1,0,-1
EndSplineSet
EndChar

StartChar: O
Encoding: 79 79 77
Width: 1408
Flags: MW
LayerCount: 2
Back
Fore
SplineSet
1013 1536 m 0,0,1
 1013 1536 1013 1536 395 1536 c 1,2,3
 320 1536 320 1536 320 1461 c 1,4,5
 320 1461 320 1461 320 331 c 1,6,7
 320 256 320 256 395 256 c 0,8,9
 395 256 395 256 1013 256 c 0,10,11
 1088 256 1088 256 1088 331 c 1,12,13
 1088 331 1088 331 1088 1280 c 1,14,15
 1088 1536 1088 1536 1013 1536 c 0,0,1
1344 512 m 2,16,-1
 1344 331 l 1,17,18
 1344 0 1344 0 1013 0 c 0,19,20
 395 0 395 0 395 0 c 0,21,22
 64 0 64 0 64 331 c 1,23,24
 64 331 64 331 64 512 c 1,25,26
 64 512 64 512 64 1280 c 1,27,-1
 64 1461 l 1,28,29
 64 1790 64 1790 395 1792 c 0,30,31
 395 1792 395 1792 1013 1792 c 0,32,33
 1344 1792 1344 1792 1344 1461 c 1,34,35
 1344 657 1344 657 1344 512 c 2,16,-1
EndSplineSet
Validated: 1
EndChar

StartChar: P
Encoding: 80 80 78
Width: 1408
Flags: MW
LayerCount: 2
Back
Fore
SplineSet
1013 1792 m 0,0,1
 1344 1792 1344 1792 1344 1461 c 1,2,3
 1344 1188 1344 1188 1344 1099 c 1,4,5
 1344 768 1344 768 1013 768 c 0,6,7
 1013 768 1013 768 320 768 c 1,8,-1
 320 0 l 25,9,-1
 64 0 l 25,10,-1
 64 1792 l 1,11,12
 87 1792 87 1792 1013 1792 c 0,0,1
1013 1024 m 0,13,14
 1088 1024 1088 1024 1088 1099 c 1,15,16
 1088 1408 1088 1408 1088 1461 c 0,17,18
 1088 1536 1088 1536 1013 1536 c 1,19,20
 1013 1536 1013 1536 320 1536 c 1,21,-1
 320 1024 l 1,22,23
 320 1024 320 1024 1013 1024 c 0,13,14
EndSplineSet
Validated: 1
EndChar

StartChar: Q
Encoding: 81 81 79
Width: 1408
Flags: MW
LayerCount: 2
Back
Fore
SplineSet
576 587 m 1,0,-1
 576 768 l 0,1,-1
 757 768 l 1,2,-1
 1344 181 l 0,3,-1
 1344 0 l 1,4,-1
 1163 0 l 0,5,6
 1163 0 1163 0 576 587 c 1,0,-1
395 0 m 1,7,8
 64 0 64 0 64 331 c 1,9,10
 64 331 64 331 64 1461 c 0,11,12
 64 1792 64 1792 395 1792 c 1,13,-1
 1013 1792 l 2,14,15
 1344 1792 1344 1792 1344 1461 c 1,16,-1
 1344 569 l 1,17,18
 1344 512 1344 512 1216 512 c 129,-1,19
 1088 512 1088 512 1088 569 c 1,20,-1
 1088 1461 l 2,21,22
 1088 1536 1088 1536 1013 1536 c 1,23,24
 1013 1536 1013 1536 395 1536 c 1,25,26
 320 1536 320 1536 320 1461 c 2,27,28
 320 1461 320 1461 320 331 c 2,29,30
 320 256 320 256 395 256 c 1,31,32
 395 256 395 256 794 256 c 0,33,34
 832 256 832 256 832 128 c 128,-1,35
 832 0 832 0 794 0 c 0,36,37
 794 0 794 0 395 0 c 1,7,8
EndSplineSet
Validated: 1
EndChar

StartChar: R
Encoding: 82 82 80
Width: 1408
Flags: MW
LayerCount: 2
Back
Fore
SplineSet
1088 1461 m 0,0,1
 1088 1536 1088 1536 1013 1536 c 24,2,-1
 320 1536 l 24,3,-1
 320 1024 l 25,4,-1
 1013 1024 l 0,5,6
 1088 1024 1088 1024 1088 1099 c 24,7,8
 1088 1099 1088 1099 1088 1461 c 0,0,1
757 768 m 25,9,10
 757 768 757 768 1344 181 c 24,11,12
 1344 181 1344 181 1344 0 c 25,13,14
 1344 0 1344 0 1163 0 c 0,15,-1
 395 768 l 24,16,17
 395 768 395 768 320 768 c 0,18,-1
 320 0 l 25,19,-1
 64 0 l 25,20,-1
 64 1792 l 1,21,-1
 1013 1792 l 1,22,23
 1344 1792 1344 1792 1344 1461 c 8,24,25
 1344 1461 1344 1461 1344 1099 c 2,26,27
 1344 768 1344 768 1013 768 c 8,28,29
 885 768 885 768 757 768 c 25,9,10
EndSplineSet
Validated: 1
EndChar

StartChar: S
Encoding: 83 83 81
Width: 1408
Flags: MW
LayerCount: 2
Back
Fore
SplineSet
1013 1792 m 0,0,1
 1344 1792 1344 1792 1344 1461 c 0,2,3
 1344 1337 1344 1337 1344 1337 c 0,4,5
 1287 1280 1287 1280 1216 1280 c 129,-1,6
 1145 1280 1145 1280 1088 1337 c 1,7,-1
 1088 1461 l 0,8,9
 1088 1536 1088 1536 1013 1536 c 24,10,-1
 395 1536 l 0,11,12
 320 1536 320 1536 320 1461 c 24,13,14
 320 1218 320 1218 320 1099 c 0,15,16
 320 1024 320 1024 395 1024 c 24,17,-1
 1013 1024 l 0,18,19
 1344 1024 1344 1024 1344 693 c 24,20,21
 1344 346 1344 346 1344 331 c 0,22,23
 1344 0 1344 0 1013 0 c 24,24,-1
 395 0 l 0,25,26
 64 0 64 0 64 331 c 0,27,28
 64 455 64 455 64 455 c 0,29,30
 129 512 129 512 193 512 c 128,-1,31
 257 512 257 512 320 455 c 8,32,-1
 320 331 l 0,33,34
 320 256 320 256 395 256 c 24,35,-1
 1013 256 l 0,36,37
 1088 256 1088 256 1088 331 c 24,38,39
 1088 550 1088 550 1088 693 c 0,40,41
 1088 768 1088 768 1013 768 c 24,42,-1
 395 768 l 0,43,44
 64 768 64 768 64 1099 c 24,45,46
 64 1446 64 1446 64 1461 c 0,47,48
 64 1792 64 1792 395 1792 c 24,49,50
 704 1792 704 1792 1013 1792 c 0,0,1
EndSplineSet
Validated: 1
EndChar

StartChar: T
Encoding: 84 84 82
Width: 1408
Flags: MW
LayerCount: 2
Back
Fore
SplineSet
64 1792 m 29,0,-1
 1344 1792 l 25,1,-1
 1344 1536 l 25,2,-1
 832 1536 l 25,3,-1
 832 0 l 25,4,-1
 576 0 l 25,5,-1
 576 1536 l 25,6,-1
 64 1536 l 25,7,-1
 64 1792 l 29,0,-1
EndSplineSet
Validated: 1
EndChar

StartChar: U
Encoding: 85 85 83
Width: 1408
Flags: MW
LayerCount: 2
Back
Fore
SplineSet
320 1792 m 25,0,-1
 320 331 l 0,1,2
 320 256 320 256 395 256 c 24,3,-1
 1013 256 l 0,4,5
 1088 256 1088 256 1088 331 c 24,6,-1
 1088 1792 l 24,7,-1
 1344 1792 l 25,8,9
 1344 1792 1344 1792 1344 331 c 0,10,11
 1344 0 1344 0 1013 0 c 24,12,-1
 395 0 l 0,13,14
 64 0 64 0 64 331 c 24,15,16
 64 331 64 331 64 1792 c 25,17,-1
 320 1792 l 25,0,-1
EndSplineSet
Validated: 1
EndChar

StartChar: V
Encoding: 86 86 84
Width: 1408
Flags: MW
LayerCount: 2
Back
Fore
SplineSet
704 309 m 1,0,1
 704 309 704 309 1088 693 c 0,2,-1
 1088 1792 l 24,3,4
 1088 1792 1088 1792 1344 1792 c 25,5,-1
 1344 587 l 25,6,-1
 757 0 l 25,7,8
 757 0 757 0 651 0 c 24,9,10
 651 0 651 0 64 587 c 25,11,-1
 64 1792 l 25,12,-1
 320 1792 l 25,13,-1
 320 693 l 0,14,-1
 704 309 l 1,0,1
EndSplineSet
Validated: 1
EndChar

StartChar: W
Encoding: 87 87 85
Width: 1408
Flags: MW
LayerCount: 2
Back
Fore
SplineSet
704 459 m 1,0,1
 245 0 245 0 245 0 c 0,2,3
 64 0 64 0 64 0 c 153,-1,4
 64 0 64 0 64 1792 c 25,5,-1
 320 1792 l 25,6,-1
 320 437 l 24,7,-1
 576 693 l 0,8,-1
 576 967 l 16,9,10
 639 1024 639 1024 703 1024 c 128,-1,11
 767 1024 767 1024 832 967 c 0,12,13
 832 967 832 967 832 693 c 0,14,-1
 1088 437 l 24,15,-1
 1088 1792 l 25,16,-1
 1344 1792 l 25,17,-1
 1344 0 l 25,18,19
 1163 0 1163 0 1163 0 c 0,20,21
 704 459 704 459 704 459 c 1,0,1
EndSplineSet
Validated: 1
EndChar

StartChar: X
Encoding: 88 88 86
Width: 1408
Flags: MW
LayerCount: 2
Back
Fore
SplineSet
523 896 m 129,-1,1
 523 896 523 896 64 1355 c 1,2,-1
 64 1792 l 25,3,-1
 320 1792 l 25,4,-1
 320 1461 l 1,5,-1
 704 1077 l 1,6,7
 704 1077 704 1077 1088 1461 c 1,8,-1
 1088 1792 l 25,9,-1
 1344 1792 l 25,10,-1
 1344 1355 l 1,11,-1
 885 896 l 1,12,13
 1344 437 1344 437 1344 437 c 0,14,15
 1344 0 1344 0 1344 0 c 153,-1,16
 1344 0 1344 0 1088 0 c 1,17,-1
 1088 331 l 0,18,-1
 704 715 l 1,19,20
 704 715 704 715 320 331 c 1,21,-1
 320 0 l 25,22,-1
 64 0 l 25,23,24
 64 437 64 437 64 437 c 0,25,0
 523 896 523 896 523 896 c 129,-1,1
EndSplineSet
Validated: 1
EndChar

StartChar: Y
Encoding: 89 89 87
Width: 1408
Flags: MW
LayerCount: 2
Back
Fore
SplineSet
703 1077 m 1,0,1
 703 1077 703 1077 1088 1461 c 1,2,-1
 1088 1792 l 1,3,-1
 1344 1792 l 25,4,-1
 1344 1355 l 25,5,-1
 832 843 l 25,6,-1
 832 0 l 25,7,-1
 576 0 l 25,8,-1
 576 843 l 25,9,-1
 64 1355 l 25,10,-1
 64 1792 l 25,11,-1
 320 1792 l 1,12,-1
 320 1461 l 1,13,-1
 703 1077 l 1,0,1
EndSplineSet
Validated: 1
EndChar

StartChar: Z
Encoding: 90 90 88
Width: 1408
Flags: MW
LayerCount: 2
Back
Fore
SplineSet
64 1792 m 25,0,-1
 1344 1792 l 25,1,-1
 1344 1355 l 25,2,-1
 320 331 l 25,3,-1
 320 256 l 25,4,-1
 1344 256 l 25,5,-1
 1344 0 l 25,6,-1
 64 0 l 25,7,-1
 64 437 l 24,8,-1
 1088 1461 l 25,9,-1
 1088 1536 l 24,10,-1
 64 1536 l 24,11,12
 64 1536 64 1536 64 1792 c 25,0,-1
EndSplineSet
Validated: 1
EndChar

StartChar: bracketleft
Encoding: 91 91 89
Width: 1408
Flags: MW
LayerCount: 2
Back
Fore
SplineSet
64 1792 m 24,0,-1
 1344 1792 l 24,1,-1
 1344 1536 l 25,2,-1
 576 1536 l 25,3,-1
 576 256 l 25,4,-1
 1344 256 l 25,5,-1
 1344 0 l 25,6,-1
 64 0 l 25,7,8
 64 0 64 0 64 1792 c 24,0,-1
EndSplineSet
Validated: 1
EndChar

StartChar: backslash
Encoding: 92 92 90
Width: 1408
Flags: MW
LayerCount: 2
Back
Fore
SplineSet
245 1536 m 0,0,1
 245 1536 245 1536 1344 437 c 25,2,-1
 1344 256 l 1,3,4
 1344 256 1344 256 1163 256 c 0,5,6
 1163 256 1163 256 64 1355 c 25,7,8
 64 1355 64 1355 64 1536 c 1,9,10
 64 1536 64 1536 245 1536 c 0,0,1
EndSplineSet
Validated: 1
EndChar

StartChar: bracketright
Encoding: 93 93 91
Width: 1408
Flags: MW
LayerCount: 2
Back
Fore
SplineSet
64 1792 m 24,0,-1
 1344 1792 l 24,1,-1
 1344 0 l 25,2,-1
 64 0 l 25,3,-1
 64 256 l 25,4,-1
 832 256 l 25,5,-1
 832 1536 l 25,6,-1
 64 1536 l 25,7,8
 64 1536 64 1536 64 1792 c 24,0,-1
EndSplineSet
Validated: 1
EndChar

StartChar: asciicircum
Encoding: 94 94 92
Width: 1408
Flags: MW
LayerCount: 2
Back
Fore
SplineSet
704 971 m 1,0,1
 704 971 704 971 245 512 c 0,2,3
 245 512 245 512 64 512 c 25,4,5
 64 512 64 512 64 693 c 24,6,7
 64 693 64 693 651 1280 c 24,8,9
 651 1280 651 1280 757 1280 c 25,10,11
 757 1280 757 1280 1344 693 c 24,12,13
 1344 693 1344 693 1344 512 c 25,14,15
 1344 512 1344 512 1163 512 c 0,16,-1
 704 971 l 1,0,1
EndSplineSet
Validated: 1
EndChar

StartChar: underscore
Encoding: 95 95 93
Width: 1408
Flags: MW
LayerCount: 2
Back
Fore
SplineSet
64 256 m 29,0,-1
 1344 256 l 25,1,-1
 1344 0 l 25,2,-1
 64 0 l 25,3,-1
 64 256 l 29,0,-1
EndSplineSet
Validated: 1
EndChar

StartChar: grave
Encoding: 96 96 94
Width: 1408
Flags: MW
LayerCount: 2
Back
Fore
SplineSet
501 1792 m 24,0,1
 501 1792 501 1792 1088 1205 c 24,2,3
 1088 1205 1088 1205 1088 1024 c 1,4,-1
 907 1024 l 25,5,-1
 320 1611 l 25,6,-1
 320 1792 l 25,7,8
 320 1792 320 1792 501 1792 c 24,0,1
EndSplineSet
Validated: 1
EndChar

StartChar: a
Encoding: 97 97 95
Width: 1408
Flags: MW
LayerCount: 2
Back
Fore
SplineSet
704 768 m 1,0,1
 704 768 704 768 505 768 c 1,2,3
 448 768 448 768 448 711 c 1,4,5
 448 711 448 711 448 569 c 1,6,7
 448 512 448 512 505 512 c 1,8,9
 505 512 505 512 704 512 c 1,10,11
 704 512 704 512 704 768 c 1,0,1
505 256 m 2,12,13
 192 256 192 256 192 569 c 0,14,15
 192 640 192 640 192 711 c 0,16,17
 192 1024 192 1024 505 1024 c 2,18,19
 505 1024 505 1024 704 1024 c 1,20,21
 704 1024 704 1024 704 1223 c 1,22,23
 704 1280 704 1280 647 1280 c 1,24,25
 647 1280 647 1280 249 1280 c 0,26,27
 192 1280 192 1280 192 1408 c 0,28,29
 193 1536 193 1536 249 1536 c 0,30,31
 448 1536 448 1536 647 1536 c 0,32,33
 960 1536 960 1536 960 1223 c 0,34,35
 960 1223 960 1223 960 512 c 1,36,-1
 1159 512 l 0,37,38
 1216 512 1216 512 1216 384 c 128,-1,39
 1216 256 1216 256 1159 256 c 0,40,-1
 505 256 l 2,12,13
EndSplineSet
Validated: 1
EndChar

StartChar: b
Encoding: 98 98 96
Width: 1408
Flags: MW
LayerCount: 2
Back
Fore
SplineSet
1031 1280 m 0,0,1
 1344 1280 1344 1280 1344 967 c 0,2,3
 1344 868 1344 868 1344 768 c 1,4,5
 1344 256 1344 256 1031 256 c 0,6,7
 1031 256 1031 256 121 256 c 0,8,9
 64 256 64 256 64 384 c 128,-1,10
 64 512 64 512 121 512 c 0,11,-1
 320 512 l 1,12,-1
 320 1734 l 0,13,14
 320 1792 320 1792 448 1792 c 128,-1,15
 576 1792 576 1792 576 1734 c 0,16,-1
 576 1280 l 1,17,-1
 1031 1280 l 0,0,1
1031 512 m 0,18,19
 1088 512 1088 512 1088 565 c 0,20,21
 1088 567 1088 567 1088 569 c 1,22,23
 1088 896 1088 896 1088 967 c 0,24,25
 1088 1024 1088 1024 1031 1024 c 1,26,27
 1031 1024 1031 1024 576 1024 c 1,28,-1
 576 512 l 1,29,30
 804 512 804 512 1031 512 c 0,18,19
EndSplineSet
Validated: 1
EndChar

StartChar: c
Encoding: 99 99 97
Width: 1408
Flags: MW
LayerCount: 2
Back
Fore
SplineSet
192 1223 m 1,0,1
 192 1536 192 1536 505 1536 c 1,2,3
 505 1536 505 1536 1159 1536 c 0,4,5
 1216 1536 1216 1536 1216 1408 c 128,-1,6
 1216 1280 1216 1280 1159 1280 c 0,7,-1
 505 1280 l 1,8,9
 448 1280 448 1280 448 1223 c 1,10,11
 448 1223 448 1223 448 569 c 1,12,13
 448 512 448 512 505 512 c 1,14,15
 505 512 505 512 1159 512 c 0,16,17
 1216 512 1216 512 1216 384 c 128,-1,18
 1216 256 1216 256 1159 256 c 0,19,-1
 505 256 l 0,20,21
 192 256 192 256 192 569 c 1,22,23
 192 569 192 569 192 1223 c 1,0,1
EndSplineSet
Validated: 1
EndChar

StartChar: d
Encoding: 100 100 98
Width: 1408
Flags: MW
LayerCount: 2
Back
Fore
SplineSet
377 256 m 0,0,1
 64 256 64 256 64 512 c 0,2,3
 64 512 64 512 64 967 c 1,4,5
 64 1280 64 1280 377 1280 c 0,6,7
 377 1280 377 1280 832 1280 c 1,8,-1
 832 1735 l 0,9,10
 832 1792 832 1792 960 1792 c 128,-1,11
 1088 1792 1088 1792 1088 1735 c 0,12,-1
 1088 512 l 1,13,-1
 1287 512 l 0,14,15
 1344 512 1344 512 1344 384 c 128,-1,16
 1344 256 1344 256 1287 256 c 0,17,18
 1287 256 1287 256 377 256 c 0,0,1
377 1024 m 1,19,20
 319 1024 319 1024 319 967 c 1,21,22
 320 569 320 569 320 569 c 0,23,24
 320 512 320 512 377 512 c 0,25,26
 377 512 377 512 832 512 c 0,27,28
 832 512 832 512 832 1024 c 1,29,-1
 377 1024 l 1,19,20
EndSplineSet
Validated: 1
EndChar

StartChar: e
Encoding: 101 101 99
Width: 1408
Flags: MW
LayerCount: 2
Back
Fore
SplineSet
885 1024 m 0,0,1
 960 1024 960 1024 960 1099 c 2,2,3
 960 1099 960 1099 960 1205 c 1,4,5
 960 1280 960 1280 885 1280 c 1,6,7
 885 1280 885 1280 523 1280 c 0,8,9
 448 1280 448 1280 448 1205 c 1,10,11
 448 1205 448 1205 448 1081 c 0,12,13
 448 1024 448 1024 505 1024 c 1,14,15
 505 1024 505 1024 885 1024 c 0,0,1
192 1205 m 0,16,17
 192 1536 192 1536 523 1536 c 1,18,19
 523 1536 523 1536 885 1536 c 1,20,21
 1216 1536 1216 1536 1216 1205 c 0,22,23
 1216 1205 1216 1205 1216 1099 c 0,24,25
 1216 768 1216 768 885 768 c 0,26,-1
 448 768 l 1,27,28
 448 595 448 595 448 587 c 0,29,30
 448 512 448 512 523 512 c 1,31,32
 903 512 903 512 903 512 c 0,33,34
 960 512 960 512 960 384 c 128,-1,35
 960 256 960 256 903 256 c 0,36,-1
 523 256 l 0,37,38
 192 256 192 256 192 587 c 1,39,40
 192 587 192 587 192 1205 c 0,16,17
EndSplineSet
Validated: 1
EndChar

StartChar: f
Encoding: 102 102 100
Width: 1408
Flags: MW
LayerCount: 2
Back
Fore
SplineSet
448 1465 m 0,0,1
 448 1792 448 1792 760 1792 c 0,2,3
 760 1792 760 1792 903 1792 c 0,4,5
 1216 1792 1216 1792 1216 1465 c 0,6,7
 1216 1465 1216 1465 1216 1280 c 1,8,9
 1216 1280 1216 1280 960 1280 c 1,10,11
 960 1408 960 1408 960 1465 c 0,12,13
 960 1536 960 1536 903 1536 c 0,14,15
 903 1536 903 1536 760 1536 c 0,16,17
 704 1536 704 1536 704 1465 c 0,18,19
 704 1024 704 1024 704 1024 c 1,20,-1
 903 1024 l 1,21,22
 960 1024 960 1024 960 896 c 128,-1,23
 960 768 960 768 903 768 c 0,24,-1
 704 768 l 0,25,-1
 704 256 l 25,26,-1
 448 256 l 25,27,-1
 448 768 l 0,28,-1
 249 768 l 0,29,30
 192 768 192 768 192 896 c 128,-1,31
 192 1024 192 1024 249 1024 c 1,32,-1
 448 1024 l 1,33,-1
 448 1465 l 0,0,1
EndSplineSet
Validated: 1
EndChar

StartChar: g
Encoding: 103 103 101
Width: 1408
Flags: MW
LayerCount: 2
Back
Fore
SplineSet
960 1223 m 1,0,1
 960 1280 960 1280 903 1280 c 1,2,3
 903 1280 903 1280 505 1280 c 0,4,5
 448 1280 448 1280 448 1223 c 1,6,7
 448 1223 448 1223 448 825 c 1,8,9
 448 768 448 768 505 768 c 1,10,11
 903 768 903 768 903 768 c 0,12,13
 960 768 960 768 960 825 c 1,14,15
 960 825 960 825 960 1223 c 1,0,1
505 512 m 2,16,17
 192 512 192 512 192 825 c 0,18,19
 192 825 192 825 192 1223 c 0,20,21
 192 1536 192 1536 505 1536 c 0,22,23
 704 1536 704 1536 903 1536 c 1,24,25
 1216 1536 1216 1536 1216 1223 c 0,26,27
 1216 612 1216 612 1216 313 c 0,28,29
 1216 0 1216 0 903 0 c 1,30,31
 903 0 903 0 448 0 c 1,32,-1
 448 256 l 1,33,-1
 903 256 l 1,34,35
 960 256 960 256 960 313 c 1,36,37
 960 413 960 413 960 512 c 1,38,-1
 505 512 l 2,16,17
EndSplineSet
Validated: 1
EndChar

StartChar: h
Encoding: 104 104 102
Width: 1408
Flags: MW
LayerCount: 2
Back
Fore
SplineSet
903 1280 m 17,0,1
 1216 1280 1216 1280 1216 967 c 0,2,3
 1216 836 1216 836 1216 256 c 25,4,-1
 960 256 l 1,5,-1
 960 967 l 1,6,7
 960 1024 960 1024 903 1024 c 1,8,9
 903 1024 903 1024 448 1024 c 1,10,-1
 448 256 l 25,11,-1
 192 256 l 1,12,-1
 192 1734 l 0,13,14
 192 1792 192 1792 320 1792 c 128,-1,15
 448 1792 448 1792 448 1734 c 8,16,-1
 448 1280 l 1,17,-1
 903 1280 l 17,0,1
EndSplineSet
Validated: 1
EndChar

StartChar: i
Encoding: 105 105 103
Width: 1408
Flags: MW
LayerCount: 2
Back
Fore
SplineSet
576 1223 m 4,0,1
 576 1280 576 1280 704 1280 c 129,-1,2
 832 1280 832 1280 832 1223 c 1,3,-1
 832 569 l 0,4,5
 832 512 832 512 888 512 c 0,6,-1
 1088 512 l 1,7,-1
 1088 256 l 1,8,-1
 320 256 l 1,9,-1
 320 512 l 1,10,-1
 518 512 l 0,11,12
 576 512 576 512 576 569 c 4,13,14
 576 569 576 569 576 1223 c 4,0,1
576 1792 m 0,15,-1
 832 1792 l 0,16,-1
 832 1536 l 1,17,-1
 576 1536 l 1,18,19
 576 1536 576 1536 576 1792 c 0,15,-1
EndSplineSet
Validated: 1
EndChar

StartChar: j
Encoding: 106 106 104
Width: 1408
Flags: MW
LayerCount: 2
Back
Fore
SplineSet
832 1792 m 1,0,-1
 1088 1792 l 1,1,-1
 1088 1536 l 1,2,-1
 832 1536 l 1,3,-1
 832 1792 l 1,0,-1
1088 331 m 0,4,5
 1088 0 1088 0 757 0 c 0,6,7
 757 0 757 0 651 0 c 0,8,9
 320 0 320 0 320 331 c 0,10,11
 320 331 320 331 320 455 c 0,12,13
 320 512 320 512 448 512 c 128,-1,14
 576 512 576 512 576 455 c 0,15,-1
 576 331 l 0,16,17
 576 256 576 256 651 256 c 0,18,19
 651 256 651 256 757 256 c 0,20,21
 832 256 832 256 832 331 c 0,22,23
 832 331 832 331 832 1223 c 0,24,25
 832 1280 832 1280 957 1280 c 0,26,27
 1088 1280 1088 1280 1088 1223 c 0,28,29
 1088 1223 1088 1223 1088 331 c 0,4,5
EndSplineSet
Validated: 1
EndChar

StartChar: k
Encoding: 107 107 105
Width: 1408
Flags: MW
LayerCount: 2
Back
Fore
SplineSet
505 1024 m 17,0,1
 505 1024 505 1024 1017 1536 c 1,2,-1
 1216 1536 l 1,3,-1
 1216 1337 l 1,4,-1
 775 896 l 1,5,6
 775 896 775 896 1216 455 c 1,7,-1
 1216 256 l 1,8,-1
 1017 256 l 1,9,-1
 505 768 l 1,10,11
 505 768 505 768 448 768 c 25,12,-1
 448 256 l 25,13,-1
 192 256 l 25,14,-1
 192 1792 l 25,15,-1
 448 1792 l 25,16,-1
 448 1024 l 25,17,-1
 505 1024 l 17,0,1
EndSplineSet
Validated: 1
EndChar

StartChar: l
Encoding: 108 108 106
Width: 1408
Flags: MW
LayerCount: 2
Back
Fore
SplineSet
320 1792 m 24,0,-1
 832 1792 l 24,1,-1
 832 512 l 25,2,-1
 1088 512 l 25,3,-1
 1088 256 l 25,4,-1
 320 256 l 25,5,-1
 320 512 l 25,6,-1
 576 512 l 25,7,-1
 576 1536 l 25,8,-1
 320 1536 l 25,9,10
 320 1536 320 1536 320 1792 c 24,0,-1
EndSplineSet
Validated: 1
EndChar

StartChar: m
Encoding: 109 109 107
Width: 1408
Flags: MW
LayerCount: 2
Back
Fore
SplineSet
518 1536 m 2,0,1
 703 1536 703 1536 703 1280 c 1,2,3
 703 1536 703 1536 888 1536 c 0,4,5
 888 1536 888 1536 1031 1536 c 0,6,7
 1344 1536 1344 1536 1344 1223 c 1,8,9
 1344 740 1344 740 1344 256 c 1,10,11
 1344 256 1344 256 1088 256 c 1,12,-1
 1088 1223 l 2,13,14
 1088 1280 1088 1280 1031 1280 c 1,15,16
 1031 1280 1031 1280 888 1280 c 0,17,18
 832 1280 832 1280 832 1223 c 0,19,20
 832 1223 832 1223 832 256 c 1,21,-1
 576 256 l 1,22,-1
 576 1223 l 2,23,24
 576 1280 576 1280 518 1280 c 0,25,26
 518 1280 518 1280 377 1280 c 0,27,28
 320 1280 320 1280 320 1223 c 2,29,-1
 320 256 l 1,30,-1
 64 256 l 25,31,-1
 64 1536 l 1,32,-1
 518 1536 l 2,0,1
EndSplineSet
Validated: 1
EndChar

StartChar: n
Encoding: 110 110 108
Width: 1408
Flags: MW
LayerCount: 2
Back
Fore
SplineSet
903 1536 m 17,0,1
 1216 1536 1216 1536 1216 1223 c 1,2,3
 1216 683 1216 683 1216 256 c 25,4,-1
 960 256 l 1,5,-1
 960 1223 l 1,6,7
 960 1280 960 1280 903 1280 c 1,8,9
 903 1280 903 1280 448 1280 c 1,10,-1
 448 256 l 25,11,-1
 192 256 l 25,12,-1
 192 1536 l 1,13,-1
 903 1536 l 17,0,1
EndSplineSet
Validated: 1
EndChar

StartChar: o
Encoding: 111 111 109
Width: 1408
Flags: MW
LayerCount: 2
Back
Fore
SplineSet
960 1205 m 1,0,1
 960 1280 960 1280 885 1280 c 1,2,3
 885 1280 885 1280 523 1280 c 0,4,5
 448 1280 448 1280 448 1205 c 1,6,7
 448 1205 448 1205 448 587 c 1,8,9
 448 512 448 512 523 512 c 1,10,11
 523 512 523 512 885 512 c 0,12,13
 960 512 960 512 960 587 c 1,14,15
 960 587 960 587 960 1205 c 1,0,1
192 1205 m 0,16,17
 192 1536 192 1536 523 1536 c 1,18,19
 523 1536 523 1536 885 1536 c 1,20,21
 1216 1536 1216 1536 1216 1205 c 0,22,23
 1216 730 1216 730 1216 587 c 0,24,25
 1216 256 1216 256 885 256 c 1,26,27
 885 256 885 256 523 256 c 1,28,29
 192 256 192 256 192 587 c 0,30,31
 192 659 192 659 192 1205 c 0,16,17
EndSplineSet
Validated: 1
EndChar

StartChar: p
Encoding: 112 112 110
Width: 1408
Flags: MW
LayerCount: 2
Back
Fore
SplineSet
885 768 m 1,0,1
 960 768 960 768 960 843 c 1,2,3
 960 843 960 843 960 1205 c 1,4,5
 960 1280 960 1280 885 1280 c 1,6,7
 885 1280 885 1280 448 1280 c 1,8,9
 448 1024 448 1024 448 768 c 0,10,11
 448 768 448 768 885 768 c 1,0,1
885 1536 m 1,12,13
 1216 1536 1216 1536 1216 1205 c 0,14,15
 1216 858 1216 858 1216 843 c 0,16,17
 1216 512 1216 512 885 512 c 1,18,19
 885 512 885 512 448 512 c 1,20,-1
 448 0 l 1,21,-1
 192 0 l 1,22,-1
 192 1536 l 1,23,-1
 885 1536 l 1,12,13
EndSplineSet
Validated: 1
EndChar

StartChar: q
Encoding: 113 113 111
Width: 1408
Flags: MW
LayerCount: 2
Back
Fore
SplineSet
395 1280 m 1,0,1
 320 1280 320 1280 320 1205 c 1,2,3
 320 1205 320 1205 320 843 c 1,4,5
 320 768 320 768 395 768 c 1,6,7
 395 768 395 768 832 768 c 1,8,-1
 832 1280 l 1,9,-1
 395 1280 l 1,0,1
395 512 m 1,10,11
 64 512 64 512 64 843 c 0,12,13
 64 1023 64 1023 64 1205 c 0,14,15
 64 1536 64 1536 395 1536 c 1,16,17
 395 1536 395 1536 786 1536 c 0,18,-1
 1088 1536 l 1,19,-1
 1088 256 l 1,20,-1
 1287 256 l 0,21,22
 1344 256 1344 256 1344 128 c 128,-1,23
 1344 0 1344 0 1287 0 c 0,24,-1
 832 0 l 1,25,-1
 832 512 l 1,26,-1
 395 512 l 1,10,11
EndSplineSet
Validated: 1
EndChar

StartChar: r
Encoding: 114 114 112
Width: 1408
Flags: MW
LayerCount: 2
Back
Fore
SplineSet
448 1280 m 1,0,1
 448 1536 448 1536 760 1536 c 1,2,3
 760 1536 760 1536 1216 1536 c 1,4,-1
 1216 1280 l 1,5,-1
 760 1280 l 1,6,7
 448 1280 448 1280 448 1024 c 1,8,9
 448 1024 448 1024 448 256 c 1,10,-1
 192 256 l 25,11,-1
 192 1536 l 25,12,-1
 448 1536 l 25,13,-1
 448 1280 l 1,0,1
EndSplineSet
Validated: 1
EndChar

StartChar: s
Encoding: 115 115 113
Width: 1408
Flags: MW
LayerCount: 2
Back
Fore
SplineSet
1216 693 m 0,0,1
 1216 640 1216 640 1216 587 c 0,2,3
 1216 256 1216 256 885 256 c 0,4,-1
 250 256 l 0,5,6
 192 256 192 256 192 384 c 128,-1,7
 192 512 192 512 250 512 c 0,8,-1
 885 512 l 0,9,10
 960 512 960 512 960 587 c 0,11,12
 960 678 960 678 960 693 c 0,13,14
 960 768 960 768 885 768 c 0,15,-1
 523 768 l 0,16,17
 192 768 192 768 192 1099 c 0,18,19
 192 1099 192 1099 192 1205 c 0,20,21
 192 1536 192 1536 523 1536 c 1,22,23
 523 1536 523 1536 1159 1536 c 0,24,25
 1216 1536 1216 1536 1216 1408 c 128,-1,26
 1216 1280 1216 1280 1159 1280 c 1,27,-1
 523 1280 l 0,28,29
 448 1280 448 1280 448 1205 c 0,30,31
 448 1114 448 1114 448 1099 c 0,32,33
 448 1024 448 1024 523 1024 c 0,34,-1
 885 1024 l 0,35,36
 1216 1024 1216 1024 1216 693 c 0,0,1
EndSplineSet
Validated: 1
EndChar

StartChar: t
Encoding: 116 116 114
Width: 1408
Flags: MW
LayerCount: 2
Back
Fore
SplineSet
832 587 m 1,0,1
 832 512 832 512 907 512 c 0,2,3
 907 512 907 512 1088 512 c 1,4,5
 1088 512 1088 512 1088 256 c 1,6,-1
 907 256 l 1,7,8
 576 256 576 256 576 587 c 1,9,10
 576 934 576 934 576 1280 c 1,11,-1
 378 1280 l 0,12,13
 320 1280 320 1280 320 1408 c 128,-1,14
 320 1536 320 1536 378 1536 c 0,15,-1
 576 1536 l 1,16,-1
 576 1735 l 0,17,18
 576 1792 576 1792 704 1792 c 128,-1,19
 832 1792 832 1792 832 1735 c 0,20,-1
 832 1536 l 1,21,-1
 1031 1536 l 0,22,23
 1088 1536 1088 1536 1088 1408 c 128,-1,24
 1088 1280 1088 1280 1031 1280 c 0,25,-1
 832 1280 l 1,26,-1
 832 587 l 1,0,1
EndSplineSet
Validated: 1
EndChar

StartChar: u
Encoding: 117 117 115
Width: 1408
Flags: MW
LayerCount: 2
Back
Fore
SplineSet
448 587 m 1,0,1
 448 512 448 512 523 512 c 1,2,3
 523 512 523 512 960 512 c 1,4,-1
 960 1479 l 0,5,6
 960 1536 960 1536 1088 1536 c 128,-1,7
 1216 1536 1216 1536 1216 1479 c 0,8,-1
 1216 256 l 1,9,-1
 523 256 l 1,10,11
 192 256 192 256 192 587 c 1,12,13
 192 1403 192 1403 192 1479 c 0,14,15
 192 1536 192 1536 320 1536 c 128,-1,16
 448 1536 448 1536 448 1479 c 0,17,-1
 448 587 l 1,0,1
EndSplineSet
Validated: 1
EndChar

StartChar: v
Encoding: 118 118 116
Width: 1408
Flags: MW
LayerCount: 2
Back
Fore
SplineSet
704 627 m 1,0,1
 704 627 704 627 1088 1479 c 1,2,3
 1088 1536 1088 1536 1216 1536 c 128,-1,4
 1344 1536 1344 1536 1344 1479 c 0,5,6
 1344 1479 1344 1479 1344 1337 c 1,7,-1
 832 256 l 1,8,-1
 576 256 l 0,9,10
 576 256 576 256 64 1337 c 1,11,12
 64 1459 64 1459 64 1479 c 0,13,14
 64 1536 64 1536 192 1536 c 128,-1,15
 320 1536 320 1536 320 1479 c 1,16,-1
 704 627 l 1,0,1
EndSplineSet
Validated: 1
EndChar

StartChar: w
Encoding: 119 119 117
Width: 1408
Flags: MW
LayerCount: 2
Back
Fore
SplineSet
64 1479 m 1,0,1
 64 1537 64 1537 190 1537 c 0,2,3
 191 1537 191 1537 192 1536 c 0,4,5
 320 1536 320 1536 320 1479 c 0,6,-1
 320 587 l 0,7,8
 320 512 320 512 395 512 c 0,9,10
 395 512 395 512 501 512 c 0,11,12
 576 512 576 512 576 587 c 1,13,-1
 576 967 l 0,14,15
 576 1024 576 1024 704 1024 c 128,-1,16
 832 1024 832 1024 832 967 c 0,17,-1
 832 587 l 1,18,19
 832 512 832 512 907 512 c 0,20,21
 907 512 907 512 1013 512 c 0,22,23
 1088 512 1088 512 1088 587 c 1,24,-1
 1088 1479 l 0,25,26
 1089 1536 1089 1536 1216.5 1536 c 128,-1,27
 1344 1536 1344 1536 1344 1479 c 1,28,29
 1344 1479 1344 1479 1344 587 c 1,30,31
 1344 256 1344 256 1013 256 c 2,32,33
 1013 256 1013 256 907 256 c 0,34,35
 703 256 703 256 703 512 c 1,36,37
 703 256 703 256 501 256 c 1,38,39
 501 256 501 256 395 256 c 0,40,41
 64 256 64 256 64 587 c 2,42,43
 64 587 64 587 64 1479 c 1,0,1
EndSplineSet
Validated: 1
EndChar

StartChar: x
Encoding: 120 120 118
Width: 1408
Flags: MW
LayerCount: 2
Back
Fore
SplineSet
703 714 m 129,-1,1
 703 714 703 714 245 256 c 1,2,3
 64 256 64 256 64 437 c 1,4,5
 521 896 521 896 521 896 c 129,-1,6
 521 896 521 896 64 1355 c 1,7,8
 64 1536 64 1536 245 1536 c 1,9,10
 704 1077 704 1077 704 1077 c 129,-1,11
 704 1077 704 1077 1163 1536 c 1,12,13
 1344 1536 1344 1536 1344 1355 c 1,14,15
 886 897 886 897 886 897 c 129,-1,16
 886 897 886 897 1344 437 c 1,17,18
 1344 256 1344 256 1163 256 c 1,19,0
 703 714 703 714 703 714 c 129,-1,1
EndSplineSet
Validated: 1
EndChar

StartChar: y
Encoding: 121 121 119
Width: 1408
Flags: MW
LayerCount: 2
Back
Fore
SplineSet
448 843 m 1,0,1
 448 768 448 768 523 768 c 1,2,3
 523 768 523 768 960 768 c 1,4,-1
 960 1479 l 0,5,6
 960 1536 960 1536 1088 1536 c 129,-1,7
 1216 1536 1216 1536 1216 1479 c 1,8,-1
 1216 331 l 0,9,10
 1216 0 1216 0 885 0 c 1,11,-1
 505 0 l 0,12,13
 448 0 448 0 448 128 c 128,-1,14
 448 256 448 256 505 256 c 0,15,-1
 885 256 l 1,16,17
 960 256 960 256 960 331 c 1,18,19
 960 331 960 331 960 512 c 0,20,-1
 523 512 l 1,21,22
 192 512 192 512 192 843 c 1,23,24
 192 843 192 843 192 1479 c 0,25,26
 192 1536 192 1536 320 1536 c 128,-1,27
 448 1536 448 1536 448 1479 c 0,28,-1
 448 843 l 1,0,1
EndSplineSet
Validated: 1
EndChar

StartChar: z
Encoding: 122 122 120
Width: 1408
Flags: MW
LayerCount: 2
Back
Fore
SplineSet
1269 1280 m 0,0,1
 1269 1280 1269 1280 501 512 c 1,2,3
 501 512 501 512 1287 512 c 0,4,5
 1344 512 1344 512 1344 384 c 128,-1,6
 1344 256 1344 256 1287 256 c 0,7,8
 1287 256 1287 256 122 256 c 0,9,10
 64 256 64 256 64 384 c 128,-1,11
 64 512 64 512 122 512 c 0,12,-1
 139 512 l 1,13,14
 139 512 139 512 907 1280 c 1,15,16
 907 1280 907 1280 122 1280 c 0,17,18
 64 1280 64 1280 64 1408 c 128,-1,19
 64 1536 64 1536 122 1536 c 0,20,21
 122 1536 122 1536 1269 1536 c 0,22,23
 1344 1536 1344 1536 1344 1408 c 128,-1,24
 1344 1280 1344 1280 1269 1280 c 0,0,1
EndSplineSet
Validated: 1
EndChar

StartChar: braceleft
Encoding: 123 123 121
Width: 1408
Flags: MW
LayerCount: 2
Back
Fore
SplineSet
576 1461 m 1,0,1
 576 1792 576 1792 907 1792 c 1,2,3
 907 1792 907 1792 1088 1792 c 1,4,-1
 1088 1536 l 1,5,-1
 907 1536 l 1,6,7
 832 1536 832 1536 832 1461 c 1,8,9
 832 1280 832 1280 832 1099 c 0,10,11
 832 896 832 896 730 896 c 1,12,13
 832 896 832 896 832 693 c 0,14,15
 832 693 832 693 832 331 c 1,16,17
 832 256 832 256 907 256 c 1,18,19
 1088 256 1088 256 1088 256 c 1,20,-1
 1088 0 l 1,21,-1
 907 0 l 0,22,23
 576 0 576 0 576 331 c 1,24,25
 576 331 576 331 576 693 c 1,26,27
 576 768 576 768 501 768 c 0,28,29
 501 768 501 768 378 768 c 0,30,31
 320 768 320 768 320 896 c 128,-1,32
 320 1024 320 1024 378 1024 c 0,33,34
 378 1024 378 1024 501 1024 c 1,35,36
 576 1024 576 1024 576 1099 c 1,37,38
 576 1280 576 1280 576 1461 c 1,0,1
EndSplineSet
Validated: 1
EndChar

StartChar: bar
Encoding: 124 124 122
Width: 1408
Flags: MW
LayerCount: 2
Back
Fore
SplineSet
576 768 m 24,0,-1
 832 768 l 24,1,-1
 832 0 l 25,2,-1
 576 0 l 25,3,4
 576 0 576 0 576 768 c 24,0,-1
576 1792 m 25,5,-1
 832 1792 l 25,6,-1
 832 1024 l 25,7,-1
 576 1024 l 25,8,-1
 576 1792 l 25,5,-1
EndSplineSet
Validated: 1
EndChar

StartChar: braceright
Encoding: 125 125 123
Width: 1408
Flags: MW
LayerCount: 2
Back
Fore
SplineSet
832 1461 m 1,0,1
 832 1280 832 1280 832 1099 c 1,2,3
 832 1024 832 1024 907 1024 c 1,4,5
 907 1024 907 1024 1031 1024 c 1,6,7
 1088 1024 1088 1024 1088 896 c 128,-1,8
 1088 768 1088 768 1031 768 c 1,9,10
 1031 768 1031 768 907 768 c 1,11,12
 832 768 832 768 832 693 c 1,13,14
 832 512 832 512 832 331 c 1,15,16
 832 0 832 0 501 0 c 0,17,18
 501 0 501 0 320 0 c 1,19,-1
 320 256 l 1,20,21
 501 256 501 256 501 256 c 1,22,23
 576 256 576 256 576 331 c 1,24,25
 576 331 576 331 576 693 c 0,26,27
 576 896 576 896 678 896 c 1,28,29
 576 896 576 896 576 1099 c 0,30,31
 576 1099 576 1099 576 1461 c 1,32,33
 576 1536 576 1536 501 1536 c 1,34,35
 501 1536 501 1536 320 1536 c 1,36,-1
 320 1792 l 1,37,-1
 501 1792 l 1,38,39
 832 1792 832 1792 832 1461 c 1,0,1
EndSplineSet
Validated: 1
EndChar

StartChar: asciitilde
Encoding: 126 126 124
Width: 1408
Flags: MW
LayerCount: 2
Back
Fore
SplineSet
1344 1099 m 0,0,1
 1344 768 1344 768 1013 768 c 24,2,-1
 395 768 l 0,3,4
 320 768 320 768 320 693 c 24,5,-1
 320 512 l 25,6,-1
 64 512 l 25,7,8
 64 514 64 514 64 693 c 0,9,10
 64 1024 64 1024 395 1024 c 24,11,-1
 1013 1024 l 0,12,13
 1088 1024 1088 1024 1088 1099 c 24,14,-1
 1088 1280 l 25,15,-1
 1344 1280 l 25,16,17
 1344 1280 1344 1280 1344 1099 c 0,0,1
EndSplineSet
Validated: 1
EndChar

StartChar: uni007F
Encoding: 127 127 125
Width: 1408
Flags: MW
LayerCount: 2
Back
Fore
SplineSet
64 1280 m 29,0,-1
 1344 1280 l 25,1,-1
 1344 0 l 25,2,-1
 64 0 l 25,3,-1
 64 1280 l 29,0,-1
EndSplineSet
Validated: 1
EndChar

StartChar: uni0080
Encoding: 128 128 126
Width: 1408
Flags: MW
LayerCount: 2
Back
Fore
SplineSet
1013 1792 m 0,0,1
 1344 1792 1344 1792 1344 1461 c 0,2,3
 1344 1461 1344 1461 1344 1280 c 1,4,5
 1344 1280 1344 1280 1088 1280 c 0,6,-1
 1088 1461 l 0,7,8
 1088 1536 1088 1536 1013 1536 c 0,9,-1
 395 1536 l 0,10,11
 320 1536 320 1536 320 1461 c 0,12,13
 320 1461 320 1461 320 843 c 0,14,15
 320 768 320 768 395 768 c 0,16,-1
 1013 768 l 2,17,18
 1088 768 1088 768 1088 843 c 2,19,-1
 1088 1024 l 0,20,21
 1088 1024 1088 1024 1344 1024 c 1,22,23
 1344 1024 1344 1024 1344 843 c 0,24,25
 1344 512 1344 512 1013 512 c 0,26,-1
 832 512 l 25,27,-1
 832 331 l 0,28,29
 832 0 832 0 501 0 c 0,30,31
 501 0 501 0 64 0 c 1,32,-1
 64 256 l 1,33,-1
 501 256 l 0,34,35
 576 256 576 256 576 331 c 0,36,37
 576 331 576 331 576 512 c 1,38,39
 576 512 576 512 395 512 c 0,40,41
 64 512 64 512 64 843 c 0,42,43
 64 843 64 843 64 1461 c 0,44,45
 64 1792 64 1792 395 1792 c 0,46,47
 395 1792 395 1792 1013 1792 c 0,0,1
EndSplineSet
Validated: 1
EndChar

StartChar: uni0081
Encoding: 129 129 127
Width: 1408
Flags: MW
LayerCount: 2
Back
Fore
SplineSet
448 1280 m 25,0,-1
 448 331 l 0,1,2
 448 256 448 256 523 256 c 24,3,-1
 960 256 l 24,4,-1
 960 1280 l 25,5,-1
 1216 1280 l 25,6,-1
 1216 0 l 25,7,-1
 523 0 l 0,8,9
 192 0 192 0 192 331 c 24,10,11
 192 331 192 331 192 1280 c 25,12,-1
 448 1280 l 25,0,-1
960 1792 m 24,13,-1
 1216 1792 l 25,14,-1
 1216 1536 l 24,15,-1
 960 1536 l 24,16,17
 960 1536 960 1536 960 1792 c 24,13,-1
192 1792 m 25,18,-1
 448 1792 l 25,19,-1
 448 1536 l 24,20,-1
 192 1536 l 24,21,22
 192 1536 192 1536 192 1792 c 25,18,-1
EndSplineSet
Validated: 1
EndChar

StartChar: uni0082
Encoding: 130 130 128
Width: 1408
Flags: MW
LayerCount: 2
Back
Fore
SplineSet
448 768 m 25,0,-1
 960 768 l 25,1,2
 960 896 960 896 960 949 c 0,3,4
 960 1024 960 1024 885 1024 c 24,5,-1
 523 1024 l 0,6,7
 448 1024 448 1024 448 949 c 24,8,9
 448 949 448 949 448 768 c 25,0,-1
1216 1792 m 137,-1,11
 1216 1792 1216 1792 1216 1536 c 24,12,-1
 779 1536 l 0,13,14
 704 1536 704 1536 704 1461 c 24,15,16
 704 1461 704 1461 704 1280 c 9,17,-1
 885 1280 l 0,18,19
 1216 1280 1216 1280 1216 949 c 25,20,21
 1216 949 1216 949 1216 512 c 9,22,-1
 448 512 l 24,23,24
 448 512 448 512 448 331 c 17,25,26
 448 256 448 256 523 256 c 24,27,-1
 960 256 l 24,28,29
 960 256 960 256 960 0 c 1,30,31
 741 0 741 0 523 0 c 0,32,33
 192 0 192 0 192 331 c 1,34,35
 192 331 192 331 192 949 c 1,36,37
 192 1280 192 1280 448 1280 c 1,38,-1
 448 1461 l 0,39,40
 448 1792 448 1792 777 1792 c 0,41,42
 778 1792 778 1792 779 1792 c 0,43,44
 997 1792 997 1792 1106.5 1792 c 128,-1,45
 1216 1792 1216 1792 1216 1792 c 137,-1,11
EndSplineSet
Validated: 1
EndChar

StartChar: uni0083
Encoding: 131 131 129
Width: 1408
Flags: MW
LayerCount: 2
Back
Fore
SplineSet
523 512 m 0,0,1
 448 512 448 512 448 437 c 0,2,3
 448 331 448 331 448 331 c 0,4,5
 448 256 448 256 523 256 c 0,6,7
 523 256 523 256 704 256 c 1,8,9
 704 256 704 256 704 512 c 1,10,11
 704 512 704 512 523 512 c 0,0,1
960 1461 m 1,12,13
 960 1536 960 1536 885 1536 c 24,14,15
 885 1536 885 1536 523 1536 c 0,16,17
 448 1536 448 1536 448 1461 c 1,18,19
 448 1461 448 1461 448 1280 c 1,20,21
 448 1280 448 1280 885 1280 c 0,22,23
 960 1280 960 1280 960 1355 c 0,24,25
 960 1355 960 1355 960 1461 c 1,12,13
885 1792 m 0,26,27
 1216 1792 1216 1792 1216 1461 c 24,28,29
 1216 1461 1216 1461 1216 1355 c 0,30,31
 1216 1024 1216 1024 960 1024 c 0,32,33
 960 640 960 640 960 331 c 0,34,35
 960 256 960 256 1035 256 c 24,36,-1
 1159 256 l 0,37,38
 1216 256 1216 256 1216 127 c 0,39,40
 1216 0 1216 0 1159 0 c 24,41,42
 1159 0 1159 0 373 0 c 0,43,44
 192 0 192 0 192 181 c 24,45,46
 192 181 192 181 192 587 c 0,47,48
 192 768 192 768 373 768 c 24,49,-1
 704 768 l 25,50,-1
 704 1024 l 24,51,-1
 192 1024 l 24,52,53
 192 1408 192 1408 192 1461 c 0,54,55
 192 1792 192 1792 523 1792 c 24,56,57
 523 1792 523 1792 885 1792 c 0,26,27
EndSplineSet
Validated: 1
EndChar

StartChar: uni0084
Encoding: 132 132 130
Width: 1408
Flags: MW
LayerCount: 2
Back
Fore
SplineSet
523 512 m 0,0,1
 448 512 448 512 448 437 c 24,2,3
 448 363 448 363 448 331 c 0,4,5
 448 256 448 256 523 256 c 24,6,-1
 704 256 l 25,7,-1
 704 512 l 17,8,9
 704 512 704 512 523 512 c 0,0,1
192 1280 m 24,10,11
 192 1280 192 1280 704 1280 c 0,12,13
 960 1280 960 1280 960 1024 c 24,14,-1
 960 331 l 0,15,16
 960 256 960 256 1035 256 c 24,17,-1
 1159 256 l 0,18,19
 1216 256 1216 256 1216 127 c 0,20,21
 1216 0 1216 0 1159 0 c 24,22,23
 1159 0 1159 0 448 0 c 0,24,25
 192 0 192 0 192 256 c 24,26,27
 192 256 192 256 192 512 c 128,-1,28
 192 768 192 768 448 768 c 24,29,-1
 704 768 l 25,30,31
 704 898 704 898 704 949 c 0,32,33
 704 1024 704 1024 629 1024 c 24,34,-1
 192 1024 l 24,35,36
 192 1152 192 1152 192 1280 c 24,10,11
704 1792 m 25,37,-1
 960 1792 l 25,38,-1
 960 1536 l 25,39,-1
 704 1536 l 17,40,41
 704 1536 704 1536 704 1792 c 25,37,-1
192 1792 m 9,42,-1
 448 1792 l 25,43,-1
 448 1536 l 25,44,-1
 192 1536 l 17,45,46
 192 1536 192 1536 192 1792 c 9,42,-1
EndSplineSet
Validated: 1
EndChar

StartChar: uni0085
Encoding: 133 133 131
Width: 1408
Flags: MW
LayerCount: 2
Back
Fore
SplineSet
651 512 m 0,0,1
 576 512 576 512 576 437 c 0,2,3
 576 346 576 346 576 331 c 0,4,5
 576 256 576 256 651 256 c 0,6,7
 651 256 651 256 832 256 c 24,8,9
 832 256 832 256 832 512 c 24,10,11
 832 512 832 512 651 512 c 0,0,1
64 1792 m 25,12,13
 66 1792 66 1792 501 1792 c 0,14,15
 832 1792 832 1792 832 1461 c 24,16,-1
 832 1280 l 0,17,-1
 907 1280 l 0,18,19
 1088 1280 1088 1280 1088 1099 c 1,20,-1
 1088 256 l 0,21,-1
 1287 256 l 0,22,23
 1344 256 1344 256 1344 127 c 17,24,25
 1344 0 1344 0 1287 0 c 0,26,27
 894 0 894 0 501 0 c 0,28,29
 320 0 320 0 320 181 c 1,30,-1
 320 587 l 1,31,32
 320 768 320 768 501 768 c 0,33,-1
 832 768 l 1,34,-1
 832 949 l 17,35,36
 832 1024 832 1024 757 1024 c 24,37,-1
 320 1024 l 24,38,39
 320 1024 320 1024 320 1280 c 24,40,-1
 576 1280 l 24,41,42
 576 1282 576 1282 576 1461 c 0,43,44
 576 1536 576 1536 501 1536 c 24,45,-1
 64 1536 l 24,46,47
 64 1536 64 1536 64 1792 c 25,12,13
EndSplineSet
Validated: 1
EndChar

StartChar: uni0086
Encoding: 134 134 132
Width: 1408
Flags: MW
LayerCount: 2
Back
Fore
SplineSet
523 512 m 0,0,1
 448 512 448 512 448 437 c 0,2,3
 448 346 448 346 448 331 c 0,4,5
 448 256 448 256 523 256 c 0,6,7
 523 256 523 256 704 256 c 24,8,9
 704 256 704 256 704 512 c 24,10,11
 704 512 704 512 523 512 c 0,0,1
704 1355 m 0,12,13
 704 1280 704 1280 779 1280 c 16,14,15
 779 1280 779 1280 885 1280 c 0,16,17
 960 1280 960 1280 960 1355 c 0,18,19
 960 1446 960 1446 960 1461 c 0,20,21
 960 1536 960 1536 885 1536 c 0,22,-1
 779 1536 l 0,23,24
 704 1536 704 1536 704 1461 c 24,25,26
 704 1453 704 1453 704 1355 c 0,12,13
960 1280 m 145,-1,28
 960 1280 960 1280 960 256 c 0,29,-1
 1159 256 l 0,30,31
 1216 256 1216 256 1216 127 c 17,32,33
 1216 0 1216 0 1159 0 c 0,34,35
 766 0 766 0 373 0 c 0,36,37
 192 0 192 0 192 181 c 1,38,39
 192 587 192 587 192 587 c 1,40,41
 192 768 192 768 373 768 c 0,42,43
 373 768 373 768 704 768 c 1,44,-1
 704 949 l 17,45,46
 704 1024 704 1024 629 1024 c 24,47,48
 192 1024 192 1024 192 1024 c 24,49,50
 192 1152 192 1152 192 1280 c 0,51,52
 192 1280 192 1280 448 1280 c 25,53,54
 448 1280 448 1280 448 1461 c 0,55,56
 448 1792 448 1792 779 1792 c 0,57,58
 779 1792 779 1792 885 1792 c 8,59,60
 1216 1789 1216 1789 1216 1461 c 9,61,62
 1216 1280 1216 1280 1216 1280 c 0,63,27
 960 1280 960 1280 960 1280 c 145,-1,28
EndSplineSet
Validated: 1
EndChar

StartChar: uni0087
Encoding: 135 135 133
Width: 1408
Flags: MW
LayerCount: 2
Back
Fore
SplineSet
1216 1792 m 25,0,-1
 1216 1536 l 24,1,-1
 523 1536 l 0,2,3
 448 1536 448 1536 448 1461 c 24,4,5
 448 1114 448 1114 448 843 c 0,6,7
 448 768 448 768 523 768 c 24,8,-1
 1216 768 l 25,9,-1
 1216 512 l 24,10,-1
 960 512 l 24,11,-1
 960 331 l 0,12,13
 960 0 960 0 629 0 c 24,14,-1
 192 0 l 25,15,-1
 192 256 l 24,16,-1
 629 256 l 0,17,18
 704 256 704 256 704 331 c 24,19,20
 704 331 704 331 704 512 c 24,21,-1
 523 512 l 0,22,23
 192 512 192 512 192 843 c 24,24,25
 192 1318 192 1318 192 1461 c 0,26,27
 192 1792 192 1792 523 1792 c 24,28,29
 523 1792 523 1792 1216 1792 c 25,0,-1
EndSplineSet
Validated: 1
EndChar

StartChar: uni0088
Encoding: 136 136 134
Width: 1408
Flags: MW
LayerCount: 2
Back
Fore
SplineSet
885 1280 m 0,0,1
 960 1280 960 1280 960 1355 c 24,2,3
 960 1446 960 1446 960 1461 c 0,4,5
 960 1536 960 1536 885 1536 c 24,6,-1
 523 1536 l 0,7,8
 448 1536 448 1536 448 1461 c 24,9,10
 448 1370 448 1370 448 1355 c 0,11,12
 448 1280 448 1280 523 1280 c 24,13,14
 523 1280 523 1280 885 1280 c 0,0,1
1142 1154 m 1,15,16
 1216 1105 1216 1105 1216 967 c 0,17,18
 1216 967 1216 967 1216 843 c 0,19,20
 1216 512 1216 512 885 512 c 0,21,22
 885 512 885 512 448 512 c 1,23,24
 448 384 448 384 448 331 c 0,25,26
 448 256 448 256 523 256 c 1,27,28
 713 256 713 256 903 256 c 0,29,30
 960 256 960 256 960 127 c 0,31,32
 960 0 960 0 903 0 c 0,33,34
 713 0 713 0 523 0 c 0,35,36
 192 0 192 0 192 331 c 1,37,38
 192 649 192 649 192 967 c 0,39,40
 192 1102 192 1102 265 1154 c 1,41,42
 192 1207 192 1207 192 1355 c 0,43,44
 192 1458 192 1458 192 1461 c 0,45,46
 192 1792 192 1792 523 1792 c 24,47,48
 885 1792 885 1792 885 1792 c 0,49,50
 1216 1792 1216 1792 1216 1461 c 24,51,52
 1216 1461 1216 1461 1216 1355 c 0,53,54
 1216 1211 1216 1211 1142 1154 c 1,15,16
885 768 m 0,55,56
 960 768 960 768 960 843 c 2,57,58
 960 843 960 843 960 949 c 1,59,60
 960 1024 960 1024 885 1024 c 1,61,62
 523 1024 523 1024 523 1024 c 0,63,64
 448 1024 448 1024 448 949 c 1,65,66
 448 858 448 858 448 843 c 0,67,68
 448 768 448 768 523 768 c 1,69,70
 523 768 523 768 885 768 c 0,55,56
EndSplineSet
Validated: 1
EndChar

StartChar: uni0089
Encoding: 137 137 135
Width: 1408
Flags: MW
LayerCount: 2
Back
Fore
SplineSet
960 1792 m 25,0,-1
 1216 1792 l 25,1,-1
 1216 1536 l 24,2,-1
 960 1536 l 24,3,4
 960 1536 960 1536 960 1792 c 25,0,-1
192 1792 m 24,5,-1
 448 1792 l 24,6,-1
 448 1536 l 24,7,-1
 192 1536 l 24,8,9
 192 1536 192 1536 192 1792 c 24,5,-1
885 768 m 0,10,11
 960 768 960 768 960 843 c 2,12,13
 960 843 960 843 960 949 c 1,14,15
 960 1024 960 1024 885 1024 c 1,16,17
 523 1024 523 1024 523 1024 c 0,18,19
 448 1024 448 1024 448 949 c 1,20,21
 448 858 448 858 448 843 c 0,22,23
 448 768 448 768 523 768 c 1,24,25
 523 768 523 768 885 768 c 0,10,11
192 967 m 0,26,27
 192 1280 192 1280 505 1280 c 1,28,29
 505 1280 505 1280 903 1280 c 1,30,31
 1216 1280 1216 1280 1216 967 c 0,32,33
 1216 825 1216 825 1216 825 c 0,34,35
 1216 512 1216 512 903 512 c 24,36,-1
 448 512 l 1,37,38
 448 384 448 384 448 331 c 0,39,40
 448 256 448 256 523 256 c 1,41,42
 523 256 523 256 903 256 c 0,43,44
 960 256 960 256 960 127 c 0,45,46
 960 0 960 0 903 0 c 0,47,-1
 505 0 l 0,48,49
 192 0 192 0 192 313 c 1,50,51
 192 960 192 960 192 967 c 0,26,27
EndSplineSet
Validated: 1
EndChar

StartChar: uni008A
Encoding: 138 138 136
Width: 1408
Flags: MW
LayerCount: 2
Back
Fore
SplineSet
1031 768 m 0,0,1
 1088 768 1088 768 1088 825 c 2,2,3
 1088 825 1088 825 1088 949 c 1,4,5
 1088 1024 1088 1024 1013 1024 c 1,6,7
 832 1024 832 1024 651 1024 c 0,8,9
 576 1024 576 1024 576 949 c 1,10,11
 576 858 576 858 576 843 c 0,12,13
 576 768 576 768 651 768 c 1,14,15
 841 768 841 768 1031 768 c 0,0,1
1013 1280 m 1,16,17
 1344 1280 1344 1280 1344 949 c 0,18,19
 1344 949 1344 949 1344 825 c 0,20,21
 1344 512 1344 512 1031 512 c 24,22,-1
 576 512 l 1,23,24
 576 384 576 384 576 331 c 0,25,26
 576 256 576 256 651 256 c 1,27,28
 651 256 651 256 1031 256 c 0,29,30
 1088 256 1088 256 1088 127 c 0,31,32
 1088 0 1088 0 1031 0 c 0,33,-1
 651 0 l 0,34,35
 320 0 320 0 320 331 c 1,36,37
 320 640 320 640 320 949 c 0,38,39
 320 1280 320 1280 576 1280 c 1,40,41
 576 1280 576 1280 576 1461 c 0,42,43
 576 1536 576 1536 501 1536 c 24,44,-1
 64 1536 l 24,45,46
 64 1536 64 1536 64 1792 c 25,47,48
 501 1792 501 1792 501 1792 c 0,49,50
 832 1792 832 1792 832 1461 c 24,51,-1
 832 1280 l 0,52,-1
 1013 1280 l 1,16,17
EndSplineSet
Validated: 1
EndChar

StartChar: uni008B
Encoding: 139 139 137
Width: 1408
Flags: MW
LayerCount: 2
Back
Fore
SplineSet
576 1024 m 24,0,-1
 832 1024 l 24,1,-1
 832 256 l 24,2,-1
 1088 256 l 24,3,-1
 1088 0 l 25,4,-1
 320 0 l 25,5,-1
 320 256 l 24,6,-1
 576 256 l 24,7,-1
 576 1024 l 24,0,-1
832 1536 m 24,8,-1
 1088 1536 l 24,9,-1
 1088 1280 l 24,10,-1
 832 1280 l 24,11,12
 832 1280 832 1280 832 1536 c 24,8,-1
320 1536 m 24,13,-1
 576 1536 l 24,14,-1
 576 1280 l 24,15,-1
 320 1280 l 24,16,17
 320 1280 320 1280 320 1536 c 24,13,-1
EndSplineSet
Validated: 1
EndChar

StartChar: uni008C
Encoding: 140 140 138
Width: 1408
Flags: MW
LayerCount: 2
Back
Fore
SplineSet
320 1280 m 24,0,1
 320 1280 320 1280 320 1461 c 0,2,3
 320 1792 320 1792 651 1792 c 24,4,-1
 757 1792 l 0,5,6
 1088 1792 1088 1792 1088 1461 c 24,7,8
 1088 1461 1088 1461 1088 1280 c 24,9,-1
 832 1280 l 24,10,-1
 832 1461 l 0,11,12
 832 1536 832 1536 757 1536 c 24,13,-1
 651 1536 l 0,14,15
 576 1536 576 1536 576 1461 c 24,16,-1
 576 1280 l 24,17,18
 576 1280 576 1280 320 1280 c 24,0,1
576 1024 m 24,19,-1
 832 1024 l 24,20,-1
 832 256 l 24,21,-1
 1088 256 l 24,22,-1
 1088 0 l 25,23,-1
 320 0 l 25,24,-1
 320 256 l 24,25,-1
 576 256 l 24,26,-1
 576 1024 l 24,19,-1
EndSplineSet
Validated: 1
EndChar

StartChar: uni008D
Encoding: 141 141 139
Width: 1408
Flags: MW
LayerCount: 2
Back
Fore
SplineSet
192 1792 m 25,0,1
 629 1792 629 1792 629 1792 c 0,2,3
 960 1792 960 1792 960 1461 c 24,4,5
 960 1461 960 1461 960 1280 c 24,6,-1
 704 1280 l 24,7,-1
 704 1461 l 0,8,9
 704 1536 704 1536 629 1536 c 24,10,-1
 192 1536 l 24,11,12
 192 1536 192 1536 192 1792 c 25,0,1
704 1024 m 24,13,-1
 960 1024 l 24,14,-1
 960 256 l 24,15,-1
 1216 256 l 24,16,-1
 1216 0 l 25,17,-1
 448 0 l 25,18,-1
 448 256 l 24,19,-1
 704 256 l 24,20,-1
 704 1024 l 24,13,-1
EndSplineSet
Validated: 1
EndChar

StartChar: uni008E
Encoding: 142 142 140
Width: 1408
Flags: MW
LayerCount: 2
Back
Fore
SplineSet
1088 1792 m 25,0,-1
 1344 1792 l 25,1,-1
 1344 1536 l 24,2,-1
 1088 1536 l 24,3,4
 1088 1536 1088 1536 1088 1792 c 25,0,-1
64 1792 m 25,5,-1
 320 1792 l 25,6,-1
 320 1536 l 24,7,-1
 64 1536 l 24,8,9
 64 1536 64 1536 64 1792 c 25,5,-1
704 1227 m 1,10,11
 704 1227 704 1227 320 843 c 1,12,-1
 320 768 l 25,13,-1
 1088 768 l 25,14,-1
 1088 843 l 1,15,-1
 704 1227 l 1,10,11
64 0 m 25,16,-1
 64 949 l 25,17,-1
 651 1536 l 24,18,-1
 757 1536 l 24,19,-1
 1344 949 l 25,20,-1
 1344 0 l 25,21,-1
 1088 0 l 25,22,-1
 1088 512 l 24,23,-1
 320 512 l 24,24,-1
 320 0 l 25,25,-1
 64 0 l 25,16,-1
EndSplineSet
Validated: 1
EndChar

StartChar: uni008F
Encoding: 143 143 141
Width: 1408
Flags: MW
LayerCount: 2
Back
Fore
SplineSet
704 1227 m 1,0,1
 704 1227 704 1227 320 843 c 1,2,-1
 320 768 l 25,3,-1
 1088 768 l 25,4,-1
 1088 843 l 1,5,-1
 704 1227 l 1,0,1
832 1461 m 24,6,7
 832 1461 832 1461 1344 949 c 1,8,-1
 1344 0 l 25,9,-1
 1088 0 l 25,10,-1
 1088 512 l 24,11,12
 1088 512 1088 512 320 512 c 24,13,-1
 320 0 l 25,14,-1
 64 0 l 25,15,-1
 64 949 l 1,16,17
 64 949 64 949 576 1461 c 24,18,-1
 576 1536 l 24,19,-1
 395 1536 l 0,20,21
 320 1536 320 1536 320 1461 c 24,22,-1
 320 1280 l 24,23,-1
 64 1280 l 24,24,25
 64 1282 64 1282 64 1461 c 0,26,27
 64 1792 64 1792 395 1792 c 24,28,-1
 1013 1792 l 0,29,30
 1344 1792 1344 1792 1344 1461 c 24,31,32
 1344 1461 1344 1461 1344 1280 c 24,33,-1
 1088 1280 l 24,34,-1
 1088 1461 l 0,35,36
 1088 1536 1088 1536 1013 1536 c 24,37,-1
 832 1536 l 24,38,39
 832 1536 832 1536 832 1461 c 24,6,7
EndSplineSet
Validated: 1
EndChar

StartChar: uni0090
Encoding: 144 144 142
Width: 1408
Flags: MW
LayerCount: 2
Back
Fore
SplineSet
64 1280 m 24,0,-1
 576 1280 l 24,1,-1
 576 1461 l 0,2,3
 576 1792 576 1792 907 1792 c 24,4,-1
 1344 1792 l 25,5,-1
 1344 1536 l 24,6,-1
 907 1536 l 0,7,8
 832 1536 832 1536 832 1461 c 24,9,10
 832 1461 832 1461 832 1280 c 24,11,-1
 1344 1280 l 24,12,-1
 1344 1024 l 24,13,-1
 320 1024 l 24,14,-1
 320 768 l 25,15,-1
 1088 768 l 25,16,-1
 1088 512 l 24,17,-1
 320 512 l 24,18,-1
 320 256 l 24,19,-1
 1344 256 l 24,20,-1
 1344 0 l 25,21,-1
 64 0 l 25,22,23
 64 0 64 0 64 1280 c 24,0,-1
EndSplineSet
Validated: 1
EndChar

StartChar: uni0091
Encoding: 145 145 143
Width: 1408
Flags: MW
LayerCount: 2
Back
Fore
SplineSet
320 587 m 0,0,1
 320 512 320 512 395 512 c 24,2,-1
 576 512 l 24,3,-1
 576 768 l 25,4,-1
 395 768 l 0,5,6
 320 768 320 768 320 693 c 24,7,8
 320 685 320 685 320 587 c 0,0,1
832 1280 m 24,9,-1
 832 1024 l 24,10,-1
 1013 1024 l 0,11,12
 1088 1024 1088 1024 1088 1099 c 24,13,14
 1088 1190 1088 1190 1088 1205 c 0,15,16
 1088 1280 1088 1280 1013 1280 c 24,17,18
 1013 1280 1013 1280 832 1280 c 24,9,-1
64 1536 m 24,19,-1
 1163 1536 l 0,20,21
 1344 1536 1344 1536 1344 1355 c 24,22,23
 1344 1062 1344 1062 1344 949 c 0,24,25
 1344 768 1344 768 1163 768 c 24,26,-1
 832 768 l 25,27,-1
 832 512 l 24,28,-1
 1344 512 l 24,29,-1
 1344 256 l 24,30,-1
 245 256 l 0,31,32
 64 256 64 256 64 437 c 24,33,34
 64 747 64 747 64 843 c 0,35,36
 64 1024 64 1024 245 1024 c 24,37,-1
 576 1024 l 24,38,-1
 576 1280 l 24,39,-1
 64 1280 l 24,40,41
 64 1280 64 1280 64 1536 c 24,19,-1
EndSplineSet
Validated: 1
EndChar

StartChar: uni0092
Encoding: 146 146 144
Width: 1408
Flags: MW
LayerCount: 2
Back
Fore
SplineSet
320 1024 m 24,0,-1
 576 1024 l 24,1,2
 576 1024 576 1024 576 1461 c 0,3,4
 576 1536 576 1536 501 1536 c 24,5,6
 501 1536 501 1536 395 1536 c 0,7,8
 320 1536 320 1536 320 1461 c 24,9,10
 320 1461 320 1461 320 1024 c 24,0,-1
64 1461 m 0,11,12
 64 1792 64 1792 395 1792 c 24,13,14
 395 1792 395 1792 501 1792 c 0,15,16
 832 1792 832 1792 832 1461 c 24,17,-1
 832 1280 l 24,18,-1
 1344 1280 l 24,19,-1
 1344 1024 l 24,20,-1
 832 1024 l 24,21,-1
 832 768 l 25,22,-1
 1088 768 l 25,23,-1
 1088 512 l 24,24,-1
 832 512 l 24,25,-1
 832 256 l 24,26,-1
 1344 256 l 24,27,-1
 1344 0 l 25,28,-1
 576 0 l 24,29,-1
 576 768 l 25,30,-1
 320 768 l 25,31,-1
 320 0 l 25,32,-1
 64 0 l 25,33,34
 64 896 64 896 64 1461 c 0,11,12
EndSplineSet
Validated: 1
EndChar

StartChar: uni0093
Encoding: 147 147 145
Width: 1408
Flags: MW
LayerCount: 2
Back
Fore
SplineSet
523 1024 m 0,0,1
 448 1024 448 1024 448 949 c 24,2,3
 448 730 448 730 448 587 c 0,4,5
 448 512 448 512 523 512 c 24,6,-1
 885 512 l 0,7,8
 960 512 960 512 960 587 c 24,9,10
 960 806 960 806 960 949 c 0,11,12
 960 1024 960 1024 885 1024 c 24,13,14
 885 1024 885 1024 523 1024 c 0,0,1
523 1536 m 0,15,16
 448 1536 448 1536 448 1461 c 24,17,18
 448 1370 448 1370 448 1355 c 0,19,20
 448 1280 448 1280 523 1280 c 24,21,-1
 885 1280 l 0,22,23
 960 1280 960 1280 960 1355 c 24,24,25
 960 1446 960 1446 960 1461 c 0,26,27
 960 1536 960 1536 885 1536 c 24,28,29
 885 1536 885 1536 523 1536 c 0,15,16
1140 1152 m 1,30,31
 1216 1106 1216 1106 1216 949 c 0,32,33
 1216 616 1216 616 1216 587 c 0,34,35
 1216 256 1216 256 885 256 c 24,36,37
 523 256 523 256 523 256 c 0,38,39
 192 256 192 256 192 587 c 24,40,41
 192 846 192 846 192 949 c 0,42,43
 192 1100 192 1100 267 1151 c 1,44,45
 192 1196 192 1196 192 1355 c 0,46,47
 192 1437 192 1437 192 1461 c 0,48,49
 192 1792 192 1792 523 1792 c 24,50,51
 882 1792 882 1792 885 1792 c 0,52,53
 1213 1792 1213 1792 1216 1461 c 24,54,55
 1216 1461 1216 1461 1216 1355 c 0,56,57
 1216 1201 1216 1201 1140 1152 c 1,30,31
EndSplineSet
Validated: 1
EndChar

StartChar: uni0094
Encoding: 148 148 146
Width: 1408
Flags: MW
LayerCount: 2
Back
Fore
SplineSet
960 1792 m 25,0,-1
 1216 1792 l 25,1,-1
 1216 1536 l 24,2,-1
 960 1536 l 24,3,4
 960 1536 960 1536 960 1792 c 25,0,-1
192 1792 m 25,5,-1
 448 1792 l 24,6,-1
 448 1536 l 24,7,-1
 192 1536 l 24,8,9
 192 1536 192 1536 192 1792 c 25,5,-1
523 1024 m 0,10,11
 448 1024 448 1024 448 949 c 24,12,13
 448 730 448 730 448 587 c 0,14,15
 448 512 448 512 523 512 c 24,16,-1
 885 512 l 0,17,18
 960 512 960 512 960 587 c 24,19,20
 960 806 960 806 960 949 c 0,21,22
 960 1024 960 1024 885 1024 c 24,23,24
 885 1024 885 1024 523 1024 c 0,10,11
885 1280 m 0,25,26
 1216 1280 1216 1280 1216 949 c 24,27,28
 1216 602 1216 602 1216 587 c 0,29,30
 1216 256 1216 256 885 256 c 24,31,-1
 523 256 l 0,32,33
 192 256 192 256 192 587 c 24,34,35
 192 934 192 934 192 949 c 0,36,37
 192 1280 192 1280 523 1280 c 24,38,39
 523 1280 523 1280 885 1280 c 0,25,26
EndSplineSet
Validated: 1
EndChar

StartChar: uni0095
Encoding: 149 149 147
Width: 1408
Flags: MW
LayerCount: 2
Back
Fore
SplineSet
651 1024 m 0,0,1
 576 1024 576 1024 576 949 c 24,2,3
 576 949 576 949 576 587 c 0,4,5
 576 512 576 512 651 512 c 24,6,-1
 1013 512 l 0,7,8
 1088 512 1088 512 1088 587 c 24,9,10
 1088 587 1088 587 1088 949 c 2,11,12
 1088 1024 1088 1024 1013 1024 c 8,13,14
 832 1024 832 1024 651 1024 c 0,0,1
1013 1280 m 2,15,16
 1344 1280 1344 1280 1344 949 c 0,17,18
 1344 949 1344 949 1344 587 c 0,19,20
 1344 256 1344 256 1013 256 c 10,21,-1
 651 256 l 0,22,23
 320 256 320 256 320 587 c 24,24,25
 320 587 320 587 320 949 c 1,26,27
 320 1280 320 1280 576 1280 c 0,28,29
 576 1280 576 1280 576 1461 c 0,30,31
 576 1536 576 1536 501 1536 c 24,32,-1
 64 1536 l 24,33,34
 64 1536 64 1536 64 1792 c 25,35,36
 65 1792 65 1792 501 1792 c 0,37,38
 832 1792 832 1792 832 1461 c 24,39,-1
 832 1280 l 24,40,-1
 1013 1280 l 2,15,16
EndSplineSet
Validated: 1
EndChar

StartChar: uni0096
Encoding: 150 150 148
Width: 1408
Flags: MW
LayerCount: 2
Back
Fore
SplineSet
832 1461 m 0,0,1
 832 1536 832 1536 757 1536 c 24,2,-1
 395 1536 l 0,3,4
 320 1536 320 1536 320 1461 c 24,5,6
 320 1461 320 1461 320 1337 c 25,7,-1
 377 1280 l 24,8,-1
 576 1280 l 24,9,-1
 576 331 l 0,10,11
 576 256 576 256 651 256 c 24,12,-1
 1088 256 l 24,13,-1
 1088 1280 l 24,14,-1
 832 1280 l 24,15,-1
 832 1461 l 0,0,1
64 1461 m 0,16,17
 64 1792 64 1792 395 1792 c 24,18,-1
 757 1792 l 0,19,20
 1088 1792 1088 1792 1088 1461 c 24,21,-1
 1088 1337 l 0,22,23
 1088 1280 1088 1280 1145 1280 c 24,24,-1
 1344 1280 l 24,25,-1
 1344 0 l 25,26,-1
 651 0 l 0,27,28
 320 0 320 0 320 331 c 24,29,-1
 320 1280 l 24,30,-1
 64 1280 l 24,31,32
 64 1287 64 1287 64 1461 c 0,16,17
EndSplineSet
Validated: 1
EndChar

StartChar: uni0097
Encoding: 151 151 149
Width: 1408
Flags: MW
LayerCount: 2
Back
Fore
SplineSet
1344 1280 m 24,0,-1
 1344 0 l 25,1,2
 1344 0 1344 0 651 0 c 24,3,4
 320 0 320 0 320 331 c 0,5,6
 320 640 320 640 320 1280 c 24,7,8
 320 1280 320 1280 519 1280 c 24,9,10
 576 1280 576 1280 576 1337 c 0,11,12
 576 1461 576 1461 576 1461 c 24,13,14
 576 1536 576 1536 501 1536 c 0,15,16
 501 1536 501 1536 64 1536 c 24,17,-1
 64 1792 l 25,18,-1
 501 1792 l 24,19,20
 832 1792 832 1792 832 1461 c 0,21,22
 832 1281 832 1281 832 1280 c 24,23,24
 832 1280 832 1280 576 1280 c 24,25,-1
 576 331 l 24,26,27
 576 256 576 256 651 256 c 0,28,29
 651 256 651 256 1088 256 c 24,30,-1
 1088 1280 l 24,31,-1
 1344 1280 l 24,0,-1
EndSplineSet
Validated: 1
EndChar

StartChar: uni0098
Encoding: 152 152 150
Width: 1408
Flags: MW
LayerCount: 2
Back
Fore
SplineSet
960 1792 m 25,0,-1
 1216 1792 l 25,1,-1
 1216 1536 l 24,2,-1
 960 1536 l 24,3,4
 960 1536 960 1536 960 1792 c 25,0,-1
448 1792 m 24,5,-1
 448 1536 l 24,6,-1
 192 1536 l 24,7,-1
 192 1792 l 25,8,9
 192 1792 192 1792 448 1792 c 24,5,-1
1216 1280 m 24,10,11
 1216 1280 1216 1280 1216 331 c 0,12,13
 1216 0 1216 0 885 0 c 24,14,-1
 448 0 l 24,15,-1
 448 256 l 24,16,-1
 885 256 l 0,17,18
 960 256 960 256 960 331 c 24,19,20
 960 331 960 331 960 512 c 24,21,-1
 523 512 l 0,22,23
 192 512 192 512 192 843 c 24,24,25
 192 843 192 843 192 1280 c 24,26,-1
 448 1280 l 24,27,-1
 448 843 l 0,28,29
 448 768 448 768 523 768 c 24,30,-1
 960 768 l 25,31,-1
 960 1280 l 24,32,33
 960 1280 960 1280 1216 1280 c 24,10,11
EndSplineSet
Validated: 1
EndChar

StartChar: uni0099
Encoding: 153 153 151
Width: 1408
Flags: MW
LayerCount: 2
Back
Fore
SplineSet
1088 1792 m 25,0,-1
 1344 1792 l 25,1,-1
 1344 1536 l 24,2,-1
 1088 1536 l 24,3,4
 1088 1536 1088 1536 1088 1792 c 25,0,-1
64 1792 m 25,5,-1
 320 1792 l 25,6,-1
 320 1536 l 24,7,-1
 64 1536 l 24,8,9
 64 1536 64 1536 64 1792 c 25,5,-1
1088 949 m 0,10,11
 1088 1024 1088 1024 1013 1024 c 24,12,-1
 395 1024 l 0,13,14
 320 1024 320 1024 320 949 c 24,15,16
 320 602 320 602 320 331 c 0,17,18
 320 256 320 256 395 256 c 24,19,-1
 1013 256 l 0,20,21
 1088 256 1088 256 1088 331 c 24,22,23
 1088 467 1088 467 1088 949 c 0,10,11
1013 1280 m 0,24,25
 1344 1280 1344 1280 1344 949 c 24,26,27
 1344 474 1344 474 1344 331 c 0,28,29
 1344 0 1344 0 1013 0 c 24,30,-1
 395 0 l 0,31,32
 64 0 64 0 64 331 c 24,33,34
 64 806 64 806 64 949 c 0,35,36
 64 1280 64 1280 395 1280 c 24,37,38
 395 1280 395 1280 1013 1280 c 0,24,25
EndSplineSet
Validated: 1
EndChar

StartChar: uni009A
Encoding: 154 154 152
Width: 1408
Flags: MW
LayerCount: 2
Back
Fore
SplineSet
1088 1792 m 25,0,-1
 1344 1792 l 25,1,-1
 1344 1536 l 24,2,-1
 1088 1536 l 24,3,4
 1088 1536 1088 1536 1088 1792 c 25,0,-1
320 1792 m 25,5,-1
 320 1536 l 24,6,-1
 64 1536 l 24,7,-1
 64 1792 l 25,8,-1
 320 1792 l 25,5,-1
1344 1280 m 24,9,10
 1344 1280 1344 1280 1344 331 c 0,11,12
 1344 0 1344 0 1013 0 c 24,13,-1
 395 0 l 0,14,15
 64 0 64 0 64 331 c 24,16,17
 64 331 64 331 64 1280 c 24,18,-1
 320 1280 l 24,19,-1
 320 331 l 0,20,21
 320 256 320 256 395 256 c 24,22,-1
 1013 256 l 0,23,24
 1088 256 1088 256 1088 331 c 24,25,-1
 1088 1280 l 24,26,27
 1088 1280 1088 1280 1344 1280 c 24,9,10
EndSplineSet
Validated: 1
EndChar

StartChar: uni009B
Encoding: 155 155 153
Width: 1408
Flags: MW
LayerCount: 2
Back
Fore
SplineSet
704 1280 m 24,0,-1
 523 1280 l 0,1,2
 448 1280 448 1280 448 1205 c 24,3,4
 448 858 448 858 448 587 c 0,5,6
 448 512 448 512 523 512 c 24,7,-1
 704 512 l 24,8,9
 704 512 704 512 704 1280 c 24,0,-1
1216 1536 m 24,10,-1
 1216 1280 l 24,11,-1
 960 1280 l 24,12,-1
 960 512 l 24,13,-1
 1216 512 l 24,14,-1
 1216 256 l 24,15,-1
 960 256 l 24,16,-1
 960 0 l 25,17,-1
 704 0 l 25,18,-1
 704 256 l 24,19,-1
 523 256 l 0,20,21
 192 256 192 256 192 587 c 24,22,23
 192 1062 192 1062 192 1205 c 0,24,25
 192 1536 192 1536 523 1536 c 24,26,-1
 704 1536 l 24,27,-1
 704 1792 l 25,28,-1
 960 1792 l 25,29,-1
 960 1536 l 24,30,-1
 1216 1536 l 24,10,-1
EndSplineSet
Validated: 1
EndChar

StartChar: uni009C
Encoding: 156 156 154
Width: 1408
Flags: MW
LayerCount: 2
Back
Fore
SplineSet
1088 1792 m 25,0,-1
 1088 1536 l 24,1,-1
 651 1536 l 0,2,3
 576 1536 576 1536 576 1461 c 24,4,5
 576 1461 576 1461 576 512 c 24,6,-1
 1013 512 l 0,7,8
 1088 512 1088 512 1088 587 c 24,9,-1
 1088 768 l 25,10,-1
 1344 768 l 25,11,12
 1344 768 1344 768 1344 587 c 0,13,14
 1344 256 1344 256 1013 256 c 24,15,-1
 64 256 l 24,16,-1
 64 512 l 24,17,-1
 320 512 l 24,18,-1
 320 1461 l 0,19,20
 320 1792 320 1792 651 1792 c 24,21,22
 651 1792 651 1792 1088 1792 c 25,0,-1
EndSplineSet
Validated: 1
EndChar

StartChar: uni009D
Encoding: 157 157 155
Width: 1408
Flags: MW
LayerCount: 2
Back
Fore
SplineSet
704 1077 m 1,0,1
 704 1077 704 1077 1088 1461 c 1,2,-1
 1088 1792 l 25,3,-1
 1344 1792 l 0,4,5
 1344 1792 1344 1792 1344 1355 c 8,6,-1
 1013 1024 l 24,7,-1
 1344 1024 l 24,8,9
 1344 1024 1344 1024 1344 768 c 25,10,-1
 832 768 l 25,11,12
 832 768 832 768 832 512 c 24,13,-1
 1344 512 l 24,14,15
 1344 512 1344 512 1344 256 c 24,16,-1
 832 256 l 24,17,-1
 832 0 l 25,18,19
 832 0 832 0 576 0 c 24,20,-1
 576 256 l 24,21,-1
 64 256 l 24,22,23
 64 256 64 256 64 512 c 24,24,-1
 576 512 l 24,25,26
 576 512 576 512 576 768 c 25,27,-1
 64 768 l 25,28,29
 64 768 64 768 64 1024 c 24,30,-1
 395 1024 l 24,31,-1
 64 1355 l 25,32,-1
 64 1792 l 25,33,-1
 320 1792 l 1,34,-1
 320 1461 l 1,35,-1
 704 1077 l 1,0,1
EndSplineSet
Validated: 1
EndChar

StartChar: uni009E
Encoding: 158 158 156
Width: 1408
Flags: MW
LayerCount: 2
Back
Fore
SplineSet
576 512 m 24,0,-1
 1344 512 l 24,1,-1
 1344 256 l 24,2,-1
 1088 256 l 24,3,-1
 1088 0 l 25,4,-1
 832 0 l 25,5,-1
 832 256 l 24,6,-1
 576 256 l 24,7,8
 576 256 576 256 576 512 c 24,0,-1
1088 1461 m 0,9,10
 1088 1536 1088 1536 1013 1536 c 24,11,-1
 320 1536 l 24,12,-1
 320 1024 l 24,13,-1
 1013 1024 l 0,14,15
 1088 1024 1088 1024 1088 1099 c 24,16,17
 1088 1171 1088 1171 1088 1461 c 0,9,10
64 1792 m 25,18,-1
 1013 1792 l 0,19,20
 1344 1792 1344 1792 1344 1461 c 24,21,22
 1344 1114 1344 1114 1344 1099 c 0,23,24
 1344 768 1344 768 1013 768 c 24,25,-1
 320 768 l 25,26,-1
 320 0 l 25,27,-1
 64 0 l 25,28,-1
 64 1792 l 25,18,-1
EndSplineSet
Validated: 1
EndChar

StartChar: uni009F
Encoding: 159 159 157
Width: 1408
Flags: MW
LayerCount: 2
Back
Fore
SplineSet
1344 1792 m 25,0,1
 1344 1792 1344 1792 1344 1536 c 24,2,-1
 907 1536 l 0,3,4
 832 1536 832 1536 832 1461 c 25,5,6
 832 1461 832 1461 832 1024 c 24,7,-1
 1088 1024 l 24,8,9
 1088 1024 1088 1024 1088 768 c 25,10,-1
 832 768 l 25,11,-1
 832 331 l 0,12,13
 832 0 832 0 501 0 c 24,14,15
 501 0 501 0 64 0 c 25,16,17
 64 0 64 0 64 256 c 24,18,-1
 501 256 l 0,19,20
 576 256 576 256 576 331 c 24,21,22
 576 331 576 331 576 768 c 25,23,-1
 320 768 l 25,24,25
 320 768 320 768 320 1024 c 0,26,-1
 576 1024 l 25,27,28
 576 1024 576 1024 576 1461 c 17,29,30
 576 1792 576 1792 907 1792 c 24,31,32
 907 1792 907 1792 1344 1792 c 25,0,1
EndSplineSet
Validated: 1
EndChar

StartChar: uni00A0
Encoding: 160 160 158
Width: 1408
Flags: MW
LayerCount: 2
Back
Fore
SplineSet
704 437 m 0,0,1
 704 512 704 512 629 512 c 0,2,-1
 523 512 l 0,3,4
 448 512 448 512 448 437 c 0,5,6
 448 346 448 346 448 331 c 0,7,8
 448 256 448 256 523 256 c 0,9,10
 523 256 523 256 629 256 c 0,11,12
 704 256 704 256 704 331 c 0,13,14
 704 331 704 331 704 437 c 0,0,1
704 1280 m 1,15,16
 960 1280 960 1280 960 949 c 1,17,-1
 960 256 l 24,18,-1
 1159 256 l 0,19,20
 1216 256 1216 256 1216 127 c 0,21,22
 1216 0 1216 0 1159 0 c 24,23,24
 1159 0 1159 0 523 0 c 0,25,26
 192 0 192 0 192 331 c 24,27,28
 192 331 192 331 192 437 c 0,29,30
 192 768 192 768 523 768 c 24,31,-1
 704 768 l 25,32,33
 704 900 704 900 704 949 c 0,34,35
 704 1024 704 1024 629 1024 c 24,36,-1
 192 1024 l 24,37,38
 192 1024 192 1024 192 1280 c 24,39,-1
 448 1280 l 24,40,-1
 448 1461 l 0,41,42
 448 1792 448 1792 779 1792 c 24,43,44
 779 1792 779 1792 1216 1792 c 25,45,46
 1216 1792 1216 1792 1216 1536 c 24,47,-1
 779 1536 l 0,48,49
 704 1536 704 1536 704 1461 c 24,50,51
 704 1461 704 1461 704 1280 c 1,15,16
EndSplineSet
Validated: 1
EndChar

StartChar: exclamdown
Encoding: 161 161 159
Width: 1408
Flags: MW
LayerCount: 2
Back
Fore
SplineSet
448 256 m 24,0,-1
 448 1024 l 24,1,2
 448 1024 448 1024 704 1024 c 24,3,-1
 704 256 l 24,4,-1
 960 256 l 24,5,6
 960 256 960 256 960 0 c 25,7,-1
 192 0 l 25,8,-1
 192 256 l 24,9,-1
 448 256 l 24,0,-1
448 1280 m 24,10,11
 448 1280 448 1280 448 1461 c 17,12,13
 448 1792 448 1792 779 1792 c 0,14,15
 779 1792 779 1792 1216 1792 c 0,16,17
 1216 1792 1216 1792 1216 1536 c 0,18,-1
 779 1536 l 1,19,20
 704 1536 704 1536 704 1461 c 8,21,-1
 704 1280 l 24,22,23
 704 1280 704 1280 448 1280 c 24,10,11
EndSplineSet
Validated: 1
EndChar

StartChar: cent
Encoding: 162 162 160
Width: 1408
Flags: MW
LayerCount: 2
Back
Fore
SplineSet
523 1024 m 0,0,1
 448 1024 448 1024 448 949 c 24,2,3
 448 949 448 949 448 331 c 0,4,5
 448 256 448 256 523 256 c 24,6,-1
 885 256 l 0,7,8
 960 256 960 256 960 331 c 24,9,10
 960 949 960 949 960 949 c 2,11,12
 960 1024 960 1024 885 1024 c 8,13,14
 704 1024 704 1024 523 1024 c 0,0,1
885 1280 m 0,15,16
 1216 1280 1216 1280 1216 949 c 24,17,18
 1216 949 1216 949 1216 331 c 0,19,20
 1216 0 1216 0 885 0 c 24,21,-1
 523 0 l 0,22,23
 192 0 192 0 192 331 c 24,24,25
 192 806 192 806 192 949 c 0,26,27
 192 1280 192 1280 448 1280 c 1,28,-1
 448 1461 l 0,29,30
 448 1792 448 1792 779 1792 c 24,31,32
 779 1792 779 1792 1216 1792 c 25,33,34
 1216 1792 1216 1792 1216 1536 c 24,35,-1
 779 1536 l 0,36,37
 704 1536 704 1536 704 1461 c 24,38,39
 704 1461 704 1461 704 1280 c 24,40,-1
 885 1280 l 0,15,16
EndSplineSet
Validated: 1
EndChar

StartChar: sterling
Encoding: 163 163 161
Width: 1408
Flags: MW
LayerCount: 2
Back
Fore
SplineSet
1216 1280 m 24,0,-1
 1216 0 l 25,1,-1
 523 0 l 0,2,3
 192 0 192 0 192 331 c 24,4,5
 192 331 192 331 192 1205 c 25,6,-1
 779 1792 l 24,7,-1
 1216 1792 l 25,8,-1
 1216 1536 l 24,9,-1
 903 1536 l 24,10,-1
 448 1099 l 25,11,12
 448 678 448 678 448 331 c 0,13,14
 448 256 448 256 523 256 c 24,15,-1
 960 256 l 24,16,-1
 960 1280 l 24,17,18
 960 1280 960 1280 1216 1280 c 24,0,-1
EndSplineSet
Validated: 1
EndChar

StartChar: currency
Encoding: 164 164 162
Width: 1408
Flags: MW
LayerCount: 2
Back
Fore
SplineSet
1276 902 m 1,0,1
 1344 838 1344 838 1344 693 c 0,2,3
 1344 693 1344 693 1344 0 c 25,4,5
 1344 0 1344 0 1088 0 c 25,6,-1
 1088 768 l 25,7,-1
 576 768 l 25,8,-1
 576 0 l 1,9,10
 320 0 320 0 320 0 c 25,11,12
 320 1024 320 1024 320 1024 c 1,13,14
 1088 1024 1088 1024 1088 1024 c 24,15,16
 1088 1088 1088 1088 1088 1205 c 0,17,18
 1088 1280 1088 1280 1013 1280 c 24,19,20
 395 1280 395 1280 395 1280 c 0,21,22
 64 1280 64 1280 64 1611 c 0,23,24
 64 1790 64 1790 64 1792 c 25,25,26
 64 1792 64 1792 320 1792 c 25,27,-1
 320 1611 l 0,28,29
 320 1536 320 1536 395 1536 c 24,30,31
 1013 1536 1013 1536 1013 1536 c 0,32,33
 1344 1536 1344 1536 1344 1205 c 24,34,35
 1344 1205 1344 1205 1344 1099 c 0,36,37
 1344 952 1344 952 1276 902 c 1,0,1
EndSplineSet
Validated: 1
EndChar

StartChar: yen
Encoding: 165 165 163
Width: 1408
Flags: MW
LayerCount: 2
Back
Fore
SplineSet
1088 1205 m 17,0,1
 1088 1280 1088 1280 1013 1280 c 24,2,3
 1013 1280 1013 1280 395 1280 c 0,4,5
 320 1280 320 1280 320 1205 c 1,6,7
 320 1205 320 1205 1088 437 c 1,8,-1
 1088 1205 l 17,0,1
188 1487 m 1,9,10
 188 1487 188 1487 64 1611 c 1,11,-1
 64 1792 l 25,12,13
 245 1792 245 1792 245 1792 c 152,-1,14
 245 1792 245 1792 501 1536 c 25,15,-1
 1013 1536 l 0,16,17
 1344 1536 1344 1536 1344 1205 c 0,18,19
 1344 0 1344 0 1344 0 c 153,-1,20
 1344 0 1344 0 1088 0 c 25,21,-1
 1088 75 l 25,22,-1
 320 843 l 25,23,-1
 320 0 l 25,24,-1
 64 0 l 25,25,26
 64 1205 64 1205 64 1205 c 0,27,28
 64 1420 64 1420 188 1487 c 1,9,10
EndSplineSet
Validated: 1
EndChar

StartChar: brokenbar
Encoding: 166 166 164
Width: 1408
Flags: MW
LayerCount: 2
Back
Fore
SplineSet
192 256 m 24,0,-1
 1216 256 l 24,1,-1
 1216 0 l 25,2,-1
 192 0 l 25,3,4
 192 0 192 0 192 256 c 24,0,-1
448 768 m 25,5,-1
 704 768 l 25,6,-1
 704 1024 l 24,7,-1
 448 1024 l 24,8,9
 448 1024 448 1024 448 768 c 25,5,-1
192 1792 m 25,10,-1
 629 1792 l 0,11,12
 960 1792 960 1792 960 1461 c 24,13,-1
 960 825 l 0,14,15
 960 768 960 768 1017 768 c 24,16,-1
 1159 768 l 0,17,18
 1216 768 1216 768 1216 640 c 128,-1,19
 1216 512 1216 512 1159 512 c 24,20,-1
 523 512 l 0,21,22
 192 512 192 512 192 843 c 24,23,24
 192 843 192 843 192 949 c 0,25,26
 192 1280 192 1280 523 1280 c 24,27,-1
 704 1280 l 24,28,-1
 704 1536 l 24,29,-1
 192 1536 l 24,30,31
 192 1536 192 1536 192 1792 c 25,10,-1
EndSplineSet
Validated: 1
EndChar

StartChar: section
Encoding: 167 167 165
Width: 1408
Flags: MW
LayerCount: 2
Back
Fore
SplineSet
192 256 m 24,0,-1
 1216 256 l 24,1,-1
 1216 0 l 25,2,-1
 192 0 l 24,3,4
 192 0 192 0 192 256 c 24,0,-1
523 1536 m 0,5,6
 448 1536 448 1536 448 1461 c 24,7,8
 448 1114 448 1114 448 843 c 0,9,10
 448 768 448 768 523 768 c 24,11,-1
 885 768 l 0,12,13
 960 768 960 768 960 843 c 24,14,15
 960 1190 960 1190 960 1461 c 0,16,17
 960 1536 960 1536 885 1536 c 24,18,19
 885 1536 885 1536 523 1536 c 0,5,6
885 1792 m 0,20,21
 1216 1792 1216 1792 1216 1461 c 24,22,23
 1216 986 1216 986 1216 843 c 0,24,25
 1216 512 1216 512 885 512 c 24,26,-1
 523 512 l 0,27,28
 193 512 193 512 192 843 c 24,29,30
 192 1318 192 1318 192 1461 c 0,31,32
 192 1792 192 1792 523 1792 c 24,33,34
 523 1792 523 1792 885 1792 c 0,20,21
EndSplineSet
Validated: 1
EndChar

StartChar: dieresis
Encoding: 168 168 166
Width: 1408
Flags: MW
LayerCount: 2
Back
Fore
SplineSet
576 1792 m 24,0,-1
 832 1792 l 25,1,-1
 832 1536 l 24,2,-1
 576 1536 l 24,3,4
 576 1536 576 1536 576 1792 c 24,0,-1
1344 512 m 1,5,6
 1344 512 1344 512 1344 331 c 0,7,8
 1344 0 1344 0 1013 0 c 24,9,-1
 395 0 l 0,10,11
 64 0 64 0 64 331 c 24,12,13
 64 331 64 331 64 437 c 25,14,-1
 576 949 l 25,15,-1
 576 1280 l 24,16,-1
 832 1280 l 24,17,-1
 832 843 l 25,18,-1
 320 331 l 0,19,20
 320 256 320 256 395 256 c 24,21,-1
 1013 256 l 0,22,23
 1088 256 1088 256 1088 331 c 24,24,-1
 1088 512 l 17,25,26
 1088 512 1088 512 1344 512 c 1,5,6
EndSplineSet
Validated: 1
EndChar

StartChar: copyright
Encoding: 169 169 167
Width: 1408
Flags: MW
LayerCount: 2
Back
Fore
SplineSet
64 1280 m 24,0,-1
 1344 1280 l 24,1,-1
 1344 1024 l 24,2,-1
 320 1024 l 24,3,-1
 320 768 l 25,4,-1
 64 768 l 25,5,6
 64 768 64 768 64 1280 c 24,0,-1
EndSplineSet
Validated: 1
EndChar

StartChar: ordfeminine
Encoding: 170 170 168
Width: 1408
Flags: MW
LayerCount: 2
Back
Fore
SplineSet
64 1280 m 24,0,-1
 1344 1280 l 24,1,-1
 1344 768 l 25,2,-1
 1088 768 l 25,3,-1
 1088 1024 l 24,4,-1
 64 1024 l 24,5,6
 64 1024 64 1024 64 1280 c 24,0,-1
EndSplineSet
Validated: 1
EndChar

StartChar: guillemotleft
Encoding: 171 171 169
Width: 1408
Flags: MW
LayerCount: 2
Back
Fore
SplineSet
651 256 m 1,1,2
 651 256 651 256 1088 693 c 0,3,4
 1088 768 1088 768 1013 768 c 24,5,6
 1013 768 1013 768 757 768 c 24,7,-1
 245 256 l 24,8,9
 245 256 245 256 64 256 c 24,10,11
 64 256 64 256 64 437 c 25,12,13
 64 437 64 437 1163 1536 c 1,14,15
 1163 1536 1163 1536 1344 1536 c 1,16,17
 1344 1536 1344 1536 1344 1355 c 9,18,-1
 1088 1099 l 25,19,20
 1088 1099 1088 1099 1088 1024 c 1,21,22
 1344 1024 1344 1024 1344 693 c 0,23,24
 1344 640 1344 640 1344 587 c 0,25,26
 1344 587 1344 587 1013 256 c 1,27,28
 1013 256 1013 256 1344 256 c 24,29,30
 1344 256 1344 256 1344 0 c 25,31,32
 1344 0 1344 0 576 0 c 0,33,34
 576 0 576 0 576 256 c 0,35,0
 576 256 576 256 651 256 c 1,1,2
64 1792 m 25,36,-1
 320 1792 l 25,37,-1
 320 1024 l 24,38,-1
 64 1024 l 24,39,40
 64 1024 64 1024 64 1792 c 25,36,-1
EndSplineSet
Validated: 1
EndChar

StartChar: logicalnot
Encoding: 172 172 170
Width: 1408
Flags: MW
LayerCount: 2
Back
Fore
SplineSet
757 768 m 1,0,1
 757 768 757 768 832 768 c 1,2,-1
 832 587 l 0,3,4
 832 512 832 512 907 512 c 24,5,6
 907 512 907 512 1088 512 c 24,7,8
 1088 512 1088 512 1088 768 c 25,9,-1
 1344 768 l 25,10,-1
 1344 0 l 25,11,-1
 1088 0 l 25,12,-1
 1088 256 l 24,13,-1
 907 256 l 1,14,15
 576 256 576 256 576 587 c 1,16,17
 576 587 576 587 245 256 c 0,18,19
 245 256 245 256 64 256 c 24,20,21
 64 256 64 256 64 437 c 25,22,23
 64 437 64 437 1163 1536 c 24,24,25
 1163 1536 1163 1536 1344 1537 c 0,26,27
 1344 1537 1344 1537 1344 1355 c 1,28,29
 1344 1355 1344 1355 757 768 c 1,0,1
64 1792 m 25,30,-1
 320 1792 l 25,31,-1
 320 1024 l 24,32,-1
 64 1024 l 24,33,34
 64 1024 64 1024 64 1792 c 25,30,-1
EndSplineSet
Validated: 1
EndChar

StartChar: uni00AD
Encoding: 173 173 171
Width: 1408
Flags: MW
LayerCount: 2
Back
Fore
SplineSet
576 1280 m 24,0,-1
 832 1280 l 24,1,-1
 832 0 l 25,2,-1
 576 0 l 24,3,4
 576 0 576 0 576 1280 c 24,0,-1
576 1792 m 24,5,-1
 832 1792 l 25,6,-1
 832 1536 l 24,7,-1
 576 1536 l 24,8,9
 576 1536 576 1536 576 1792 c 24,5,-1
EndSplineSet
Validated: 1
EndChar

StartChar: registered
Encoding: 174 174 172
Width: 1408
Flags: MW
LayerCount: 2
Back
Fore
SplineSet
1134 896 m 1,0,1
 1315 896 1315 896 1315 693 c 0,2,3
 1315 693 1315 693 1315 313 c 0,4,5
 1315 256 1315 256 1187 256 c 144,-1,6
 1059 256 1059 256 1059 313 c 24,7,-1
 1059 693 l 1,8,9
 1059 843 1059 843 861 843 c 0,10,11
 861 843 861 843 861 949 c 1,12,13
 1059 949 1059 949 1059 1099 c 1,14,-1
 1059 1479 l 0,15,16
 1059 1536 1059 1536 1187 1536 c 128,-1,17
 1315 1536 1315 1536 1315 1479 c 8,18,19
 1315 1188 1315 1188 1315 1099 c 0,20,21
 1315 896 1315 896 1134 896 c 1,0,1
366 896 m 1,22,23
 547 896 547 896 547 693 c 0,24,25
 547 474 547 474 547 313 c 0,26,27
 547 256 547 256 419 256 c 144,-1,28
 291 256 291 256 291 313 c 24,29,-1
 291 693 l 1,30,31
 291 843 291 843 93 843 c 0,32,33
 93 843 93 843 93 949 c 1,34,35
 291 949 291 949 291 1099 c 1,36,-1
 291 1479 l 0,37,38
 291 1536 291 1536 419 1536 c 128,-1,39
 547 1536 547 1536 547 1479 c 8,40,41
 547 1362 547 1362 547 1099 c 0,42,43
 547 896 547 896 366 896 c 1,22,23
EndSplineSet
Validated: 1
EndChar

StartChar: macron
Encoding: 175 175 173
Width: 1408
Flags: MW
LayerCount: 2
Back
Fore
SplineSet
274 896 m 1,0,1
 93 896 93 896 93 1099 c 0,2,3
 93 1188 93 1188 93 1479 c 16,4,5
 93 1536 93 1536 221 1536 c 128,-1,6
 349 1536 349 1536 349 1479 c 0,7,8
 349 1479 349 1479 349 1099 c 1,9,10
 349 949 349 949 547 949 c 1,11,12
 547 843 547 843 547 843 c 0,13,14
 349 843 349 843 349 693 c 1,15,16
 349 693 349 693 349 313 c 24,17,18
 349 256 349 256 221 256 c 136,-1,19
 93 256 93 256 93 313 c 0,20,21
 93 693 93 693 93 693 c 0,22,23
 93 896 93 896 274 896 c 1,0,1
1042 896 m 1,24,25
 861 896 861 896 861 1099 c 0,26,27
 861 1188 861 1188 861 1479 c 16,28,29
 861 1536 861 1536 989 1536 c 128,-1,30
 1117 1536 1117 1536 1117 1479 c 0,31,32
 1117 1479 1117 1479 1117 1099 c 1,33,34
 1117 949 1117 949 1315 949 c 1,35,36
 1315 843 1315 843 1315 843 c 0,37,38
 1117 843 1117 843 1117 693 c 1,39,40
 1117 693 1117 693 1117 313 c 24,41,42
 1117 256 1117 256 989 256 c 136,-1,43
 861 256 861 256 861 313 c 0,44,45
 861 693 861 693 861 693 c 0,46,47
 861 896 861 896 1042 896 c 1,24,25
EndSplineSet
Validated: 1
EndChar

StartChar: degree
Encoding: 176 176 174
Width: 1408
Flags: MW
LayerCount: 2
Back
Fore
SplineSet
245 512 m 24,0,-1
 576 181 l 25,1,-1
 576 0 l 24,2,-1
 395 0 l 24,3,-1
 64 331 l 25,4,-1
 64 512 l 24,5,6
 64 512 64 512 245 512 c 24,0,-1
64 1280 m 24,7,-1
 245 1280 l 24,8,-1
 1344 181 l 25,9,-1
 1344 0 l 25,10,-1
 1163 0 l 24,11,-1
 64 1099 l 25,12,13
 64 1099 64 1099 64 1280 c 24,7,-1
501 1792 m 25,14,-1
 1344 949 l 25,15,-1
 1344 768 l 25,16,-1
 1163 768 l 24,17,-1
 320 1611 l 25,18,-1
 320 1792 l 25,19,-1
 501 1792 l 25,14,-1
1088 1792 m 25,20,-1
 1344 1792 l 25,21,-1
 1344 1536 l 24,22,-1
 1088 1536 l 24,23,24
 1088 1536 1088 1536 1088 1792 c 25,20,-1
EndSplineSet
Validated: 1
EndChar

StartChar: plusminus
Encoding: 177 177 175
Width: 1408
Flags: MW
LayerCount: 2
Back
Fore
SplineSet
576 75 m 17,0,-1
 448 203 l 1,1,2
 448 203 448 203 320 75 c 1,3,4
 320 75 320 75 320 0 c 25,5,-1
 64 0 l 25,6,7
 64 0 64 0 64 256 c 24,8,-1
 139 256 l 17,9,10
 139 256 139 256 267 384 c 1,11,12
 266 385 266 385 139 512 c 1,13,-1
 64 512 l 24,14,15
 64 512 64 512 64 768 c 25,16,17
 139 768 139 768 139 768 c 129,-1,18
 139 768 139 768 267 896 c 1,19,20
 267 896 267 896 139 1024 c 1,21,22
 139 1024 139 1024 64 1024 c 25,23,24
 64 1280 64 1280 64 1280 c 24,25,26
 139 1280 139 1280 139 1280 c 129,-1,27
 139 1280 139 1280 267 1408 c 1,28,29
 267 1408 267 1408 64 1611 c 1,30,31
 64 1792 64 1792 64 1792 c 24,32,33
 245 1792 245 1792 245 1792 c 128,-1,34
 245 1792 245 1792 448 1590 c 1,35,36
 576 1717 576 1717 576 1717 c 1,37,38
 576 1792 576 1792 576 1792 c 153,-1,39
 576 1792 576 1792 832 1792 c 25,40,-1
 832 1717 l 1,41,42
 832 1717 832 1717 960 1589 c 1,43,44
 1163 1792 1163 1792 1163 1792 c 129,-1,45
 1163 1792 1163 1792 1344 1792 c 25,46,47
 1344 1536 1344 1536 1344 1536 c 24,48,49
 1269 1536 1269 1536 1269 1536 c 129,-1,50
 1269 1536 1269 1536 1141 1408 c 1,51,52
 1269 1280 1269 1280 1269 1280 c 137,-1,53
 1269 1280 1269 1280 1344 1280 c 25,54,55
 1344 1152 1344 1152 1344 1024 c 24,56,57
 1344 1024 1344 1024 1269 1024 c 1,58,59
 1205 960 1205 960 1141 896 c 1,60,61
 1141 896 1141 896 1269 768 c 1,62,63
 1269 768 1269 768 1344 768 c 25,64,65
 1344 512 1344 512 1344 512 c 24,66,67
 1269 512 1269 512 1269 512 c 129,-1,68
 1269 512 1269 512 1141 384 c 1,69,70
 1141 384 1141 384 1344 181 c 1,71,72
 1344 90 1344 90 1344 0 c 24,73,74
 1344 0 1344 0 1163 0 c 0,75,76
 1163 0 1163 0 967 210 c 1,77,78
 967 210 967 210 832 75 c 1,79,80
 832 56 832 56 832 0 c 25,81,-1
 576 0 l 24,82,-1
 576 75 l 17,0,-1
779 384 m 1,83,84
 779 384 779 384 704 459 c 1,85,86
 704 459 704 459 629 384 c 1,87,88
 629 384 629 384 704 309 c 1,89,90
 704 309 704 309 779 384 c 1,83,84
960 565 m 129,-1,92
 960 565 960 565 1035 640 c 1,93,94
 960 715 960 715 960 715 c 1,95,96
 885 640 885 640 885 640 c 1,97,91
 960 565 960 565 960 565 c 129,-1,92
704 821 m 1,98,99
 749 864 749 864 779 896 c 1,100,101
 779 896 779 896 704 971 c 1,102,103
 704 971 704 971 629 896 c 1,104,105
 704 821 704 821 704 821 c 1,98,99
373 640 m 1,106,107
 373 640 373 640 448 565 c 1,108,109
 523 640 523 640 523 640 c 129,-1,110
 523 640 523 640 449 716 c 0,111,112
 449 716 449 716 373 640 c 1,106,107
960 1077 m 1,113,114
 1035 1152 1035 1152 1035 1152 c 1,115,116
 998 1189 998 1189 960 1227 c 1,117,118
 960 1227 960 1227 885 1152 c 1,119,120
 960 1077 960 1077 960 1077 c 1,113,114
448 1077 m 129,-1,122
 448 1077 448 1077 523 1152 c 1,123,124
 523 1152 523 1152 448 1227 c 1,125,126
 448 1227 448 1227 373 1152 c 1,127,121
 448 1077 448 1077 448 1077 c 129,-1,122
779 1408 m 129,-1,129
 779 1408 779 1408 704 1483 c 1,130,131
 704 1483 704 1483 629 1408 c 1,132,133
 704 1333 704 1333 704 1333 c 1,134,128
 779 1408 779 1408 779 1408 c 129,-1,129
EndSplineSet
Validated: 1
EndChar

StartChar: uni00B2
Encoding: 178 178 176
Width: 1408
Flags: MW
LayerCount: 2
Back
Fore
SplineSet
1163 768 m 24,0,-1
 1344 768 l 25,1,-1
 1344 331 l 25,2,-1
 1013 0 l 24,3,-1
 576 0 l 24,4,-1
 576 181 l 25,5,6
 576 181 576 181 1163 768 c 24,0,-1
1163 1792 m 24,7,-1
 1344 1792 l 25,8,-1
 1344 1355 l 25,9,-1
 245 256 l 24,10,-1
 64 256 l 24,11,-1
 64 693 l 25,12,13
 64 693 64 693 1163 1792 c 24,7,-1
64 1792 m 25,14,-1
 576 1792 l 24,15,-1
 576 1611 l 25,16,-1
 245 1280 l 24,17,-1
 64 1280 l 17,18,19
 64 1280 64 1280 64 1792 c 25,14,-1
EndSplineSet
Validated: 1
EndChar

StartChar: uni00B3
Encoding: 179 179 177
Width: 1408
Flags: MW
LayerCount: 2
Back
Fore
SplineSet
448 1792 m 29,0,-1
 960 1792 l 25,1,-1
 960 0 l 25,2,-1
 448 0 l 25,3,-1
 448 1792 l 29,0,-1
EndSplineSet
Validated: 1
EndChar

StartChar: acute
Encoding: 180 180 178
Width: 1408
Flags: MW
LayerCount: 2
Back
Fore
SplineSet
576 1792 m 25,0,-1
 1088 1792 l 25,1,-1
 1088 0 l 25,2,-1
 320 0 l 25,3,-1
 320 256 l 24,4,-1
 576 256 l 24,5,-1
 576 1792 l 25,0,-1
EndSplineSet
Validated: 1
EndChar

StartChar: mu
Encoding: 181 181 179
Width: 1408
Flags: MW
LayerCount: 2
Back
Fore
SplineSet
576 1792 m 25,0,-1
 1088 1792 l 25,1,-1
 1088 0 l 25,2,-1
 320 0 l 25,3,-1
 320 256 l 24,4,-1
 576 256 l 24,5,-1
 576 512 l 24,6,-1
 320 512 l 24,7,-1
 320 768 l 25,8,-1
 576 768 l 25,9,-1
 576 1792 l 25,0,-1
EndSplineSet
Validated: 1
EndChar

StartChar: paragraph
Encoding: 182 182 180
Width: 1408
Flags: MW
LayerCount: 2
Back
Fore
SplineSet
1088 1792 m 25,0,-1
 1344 1792 l 25,1,-1
 1344 0 l 25,2,-1
 1088 0 l 25,3,-1
 1088 1792 l 25,0,-1
320 1792 m 25,4,-1
 832 1792 l 25,5,-1
 832 0 l 25,6,-1
 64 0 l 25,7,-1
 64 256 l 24,8,-1
 320 256 l 24,9,-1
 320 1792 l 25,4,-1
EndSplineSet
Validated: 1
EndChar

StartChar: periodcentered
Encoding: 183 183 181
Width: 1408
Flags: MW
LayerCount: 2
Back
Fore
SplineSet
64 256 m 24,0,-1
 1344 256 l 24,1,-1
 1344 0 l 25,2,-1
 64 0 l 25,3,4
 64 0 64 0 64 256 c 24,0,-1
EndSplineSet
Validated: 1
EndChar

StartChar: cedilla
Encoding: 184 184 182
Width: 1408
Flags: MW
LayerCount: 2
Back
Fore
SplineSet
64 768 m 25,0,-1
 1344 768 l 25,1,-1
 1344 0 l 25,2,-1
 64 0 l 25,3,-1
 64 256 l 24,4,-1
 1088 256 l 24,5,-1
 1088 512 l 24,6,-1
 64 512 l 24,7,8
 64 512 64 512 64 768 c 25,0,-1
EndSplineSet
Validated: 1
EndChar

StartChar: uni00B9
Encoding: 185 185 183
Width: 1408
Flags: MW
LayerCount: 2
Back
Fore
SplineSet
64 256 m 24,0,-1
 832 256 l 24,1,-1
 832 0 l 25,2,-1
 64 0 l 25,3,4
 64 0 64 0 64 256 c 24,0,-1
1088 1792 m 25,5,-1
 1344 1792 l 25,6,-1
 1344 0 l 25,7,-1
 1088 0 l 25,8,-1
 1088 1792 l 25,5,-1
320 1792 m 25,9,-1
 832 1792 l 25,10,-1
 832 512 l 24,11,-1
 64 512 l 24,12,-1
 64 768 l 25,13,-1
 320 768 l 25,14,-1
 320 1792 l 25,9,-1
EndSplineSet
Validated: 1
EndChar

StartChar: ordmasculine
Encoding: 186 186 184
Width: 1408
Flags: MW
LayerCount: 2
Back
Fore
SplineSet
960 1792 m 25,0,-1
 1216 1792 l 25,1,-1
 1216 0 l 25,2,-1
 960 0 l 25,3,-1
 960 1792 l 25,0,-1
192 1792 m 25,4,-1
 704 1792 l 25,5,-1
 704 0 l 25,6,-1
 192 0 l 25,7,-1
 192 1792 l 25,4,-1
EndSplineSet
Validated: 1
EndChar

StartChar: guillemotright
Encoding: 187 187 185
Width: 1408
Flags: MW
LayerCount: 2
Back
Fore
SplineSet
64 256 m 24,0,-1
 832 256 l 24,1,-1
 832 0 l 25,2,-1
 64 0 l 25,3,4
 64 0 64 0 64 256 c 24,0,-1
64 768 m 25,5,-1
 1344 768 l 25,6,-1
 1344 0 l 25,7,-1
 1088 0 l 25,8,-1
 1088 512 l 24,9,-1
 64 512 l 24,10,11
 64 512 64 512 64 768 c 25,5,-1
EndSplineSet
Validated: 1
EndChar

StartChar: onequarter
Encoding: 188 188 186
Width: 1408
Flags: MW
LayerCount: 2
Back
Fore
SplineSet
1088 1792 m 25,0,-1
 1344 1792 l 25,1,-1
 1344 0 l 25,2,-1
 64 0 l 25,3,-1
 64 256 l 25,4,-1
 1088 256 l 25,5,-1
 1088 1792 l 25,0,-1
320 1792 m 25,6,-1
 832 1792 l 25,7,-1
 832 512 l 25,8,-1
 64 512 l 25,9,-1
 64 768 l 25,10,-1
 320 768 l 25,11,-1
 320 1792 l 25,6,-1
EndSplineSet
Validated: 1
EndChar

StartChar: onehalf
Encoding: 189 189 187
Width: 1408
Flags: MW
LayerCount: 2
Back
Fore
SplineSet
320 1792 m 25,0,-1
 832 1792 l 25,1,-1
 832 256 l 25,2,-1
 1088 256 l 25,3,-1
 1088 1792 l 25,4,-1
 1344 1792 l 25,5,-1
 1344 0 l 25,6,-1
 64 0 l 25,7,-1
 64 256 l 25,8,-1
 320 256 l 25,9,-1
 320 1792 l 25,0,-1
EndSplineSet
Validated: 1
EndChar

StartChar: threequarters
Encoding: 190 190 188
Width: 1408
Flags: MW
LayerCount: 2
Back
Fore
SplineSet
576 1792 m 25,0,-1
 1088 1792 l 25,1,-1
 1088 0 l 25,2,-1
 320 0 l 25,3,-1
 320 256 l 25,4,-1
 576 256 l 25,5,-1
 576 512 l 25,6,-1
 320 512 l 25,7,-1
 320 768 l 25,8,-1
 576 768 l 25,9,-1
 576 1792 l 25,0,-1
EndSplineSet
Validated: 1
EndChar

StartChar: questiondown
Encoding: 191 191 189
Width: 1408
Flags: MW
LayerCount: 2
Back
Fore
SplineSet
64 256 m 25,0,-1
 1344 256 l 25,1,-1
 1344 0 l 25,2,-1
 64 0 l 25,3,-1
 64 256 l 25,0,-1
EndSplineSet
Validated: 1
EndChar

StartChar: Agrave
Encoding: 192 192 190
Width: 1408
Flags: MW
LayerCount: 2
Back
Fore
SplineSet
192 1792 m 25,0,-1
 704 1792 l 25,1,-1
 704 256 l 25,2,-1
 1216 256 l 25,3,-1
 1216 0 l 25,4,-1
 192 0 l 25,5,-1
 192 1792 l 25,0,-1
EndSplineSet
Validated: 1
EndChar

StartChar: Aacute
Encoding: 193 193 191
Width: 1408
Flags: MW
LayerCount: 2
Back
Fore
SplineSet
320 1792 m 25,0,-1
 832 1792 l 25,1,-1
 832 256 l 25,2,-1
 1344 256 l 25,3,-1
 1344 0 l 25,4,-1
 64 0 l 25,5,-1
 64 256 l 25,6,-1
 320 256 l 25,7,-1
 320 1792 l 25,0,-1
EndSplineSet
Validated: 1
EndChar

StartChar: Acircumflex
Encoding: 194 194 192
Width: 1408
Flags: MW
LayerCount: 2
Back
Fore
SplineSet
64 256 m 25,0,-1
 1344 256 l 25,1,-1
 1344 0 l 25,2,-1
 64 0 l 25,3,-1
 64 256 l 25,0,-1
EndSplineSet
Validated: 1
EndChar

StartChar: Atilde
Encoding: 195 195 193
Width: 1408
Flags: MW
LayerCount: 2
Back
Fore
SplineSet
192 1792 m 25,0,-1
 704 1792 l 25,1,-1
 704 256 l 25,2,-1
 1216 256 l 25,3,-1
 1216 0 l 25,4,-1
 192 0 l 25,5,-1
 192 1792 l 25,0,-1
EndSplineSet
Validated: 1
EndChar

StartChar: Adieresis
Encoding: 196 196 194
Width: 1408
Flags: MW
LayerCount: 2
Back
Fore
SplineSet
64 256 m 25,0,-1
 1344 256 l 25,1,-1
 1344 0 l 25,2,-1
 64 0 l 25,3,-1
 64 256 l 25,0,-1
EndSplineSet
Validated: 1
EndChar

StartChar: Aring
Encoding: 197 197 195
Width: 1408
Flags: MW
LayerCount: 2
Back
Fore
SplineSet
320 1792 m 25,0,-1
 832 1792 l 25,1,-1
 832 256 l 25,2,-1
 1344 256 l 25,3,-1
 1344 0 l 25,4,-1
 64 0 l 25,5,-1
 64 256 l 25,6,-1
 320 256 l 25,7,-1
 320 1792 l 25,0,-1
EndSplineSet
Validated: 1
EndChar

StartChar: AE
Encoding: 198 198 196
Width: 1408
Flags: MW
LayerCount: 2
Back
Fore
SplineSet
192 1792 m 25,0,-1
 704 1792 l 25,1,-1
 704 768 l 25,2,-1
 1216 768 l 25,3,-1
 1216 512 l 25,4,-1
 704 512 l 25,5,-1
 704 256 l 25,6,-1
 1216 256 l 25,7,-1
 1216 0 l 25,8,-1
 192 0 l 25,9,-1
 192 1792 l 25,0,-1
EndSplineSet
Validated: 1
EndChar

StartChar: Ccedilla
Encoding: 199 199 197
Width: 1408
Flags: MW
LayerCount: 2
Back
Fore
SplineSet
832 1792 m 25,0,-1
 1088 1792 l 25,1,-1
 1088 256 l 25,2,-1
 1344 256 l 25,3,-1
 1344 0 l 25,4,-1
 832 0 l 25,5,-1
 832 1792 l 25,0,-1
64 1792 m 25,6,-1
 576 1792 l 25,7,-1
 576 0 l 25,8,-1
 64 0 l 25,9,-1
 64 1792 l 25,6,-1
EndSplineSet
Validated: 1
EndChar

StartChar: Egrave
Encoding: 200 200 198
Width: 1408
Flags: MW
LayerCount: 2
Back
Fore
SplineSet
960 1792 m 25,0,-1
 1216 1792 l 25,1,-1
 1216 512 l 25,2,-1
 960 512 l 25,3,-1
 960 1792 l 25,0,-1
192 1792 m 25,4,-1
 704 1792 l 25,5,-1
 704 256 l 25,6,-1
 1216 256 l 25,7,-1
 1216 0 l 25,8,-1
 192 0 l 25,9,-1
 192 1792 l 25,4,-1
EndSplineSet
Validated: 1
EndChar

StartChar: Eacute
Encoding: 201 201 199
Width: 1408
Flags: MW
LayerCount: 2
Back
Fore
SplineSet
960 256 m 25,0,-1
 1216 256 l 25,1,-1
 1216 0 l 25,2,-1
 960 0 l 25,3,-1
 960 256 l 25,0,-1
192 768 m 25,4,-1
 1216 768 l 25,5,-1
 1216 512 l 25,6,-1
 704 512 l 25,7,-1
 704 0 l 25,8,-1
 192 0 l 25,9,-1
 192 768 l 25,4,-1
EndSplineSet
Validated: 1
EndChar

StartChar: Ecircumflex
Encoding: 202 202 200
Width: 1408
Flags: MW
LayerCount: 2
Back
Fore
SplineSet
64 256 m 25,0,-1
 1344 256 l 25,1,-1
 1344 0 l 25,2,-1
 64 0 l 25,3,-1
 64 256 l 25,0,-1
1088 1792 m 25,4,-1
 1344 1792 l 25,5,-1
 1344 512 l 25,6,-1
 1088 512 l 25,7,-1
 1088 1792 l 25,4,-1
320 1792 m 25,8,-1
 832 1792 l 25,9,-1
 832 512 l 25,10,-1
 64 512 l 25,11,-1
 64 768 l 25,12,-1
 320 768 l 25,13,-1
 320 1792 l 25,8,-1
EndSplineSet
Validated: 1
EndChar

StartChar: Edieresis
Encoding: 203 203 201
Width: 1408
Flags: MW
LayerCount: 2
Back
Fore
SplineSet
1088 256 m 25,0,-1
 1344 256 l 25,1,-1
 1344 0 l 25,2,-1
 1088 0 l 25,3,-1
 1088 256 l 25,0,-1
64 256 m 25,4,-1
 832 256 l 25,5,-1
 832 0 l 25,6,-1
 64 0 l 25,7,-1
 64 256 l 25,4,-1
64 768 m 25,8,-1
 1344 768 l 25,9,-1
 1344 512 l 25,10,-1
 64 512 l 25,11,-1
 64 768 l 25,8,-1
EndSplineSet
Validated: 1
EndChar

StartChar: Igrave
Encoding: 204 204 202
Width: 1408
Flags: MW
LayerCount: 2
Back
Fore
SplineSet
960 256 m 25,0,-1
 1216 256 l 25,1,-1
 1216 0 l 25,2,-1
 960 0 l 25,3,-1
 960 256 l 25,0,-1
960 1792 m 25,4,-1
 1216 1792 l 25,5,-1
 1216 512 l 25,6,-1
 960 512 l 25,7,-1
 960 1792 l 25,4,-1
192 1792 m 25,8,-1
 704 1792 l 25,9,-1
 704 0 l 25,10,-1
 192 0 l 25,11,-1
 192 1792 l 25,8,-1
EndSplineSet
Validated: 1
EndChar

StartChar: Iacute
Encoding: 205 205 203
Width: 1408
Flags: MW
LayerCount: 2
Back
Fore
SplineSet
64 256 m 25,0,-1
 1344 256 l 25,1,-1
 1344 0 l 25,2,-1
 64 0 l 25,3,-1
 64 256 l 25,0,-1
64 768 m 25,4,-1
 1344 768 l 25,5,-1
 1344 512 l 25,6,-1
 64 512 l 25,7,-1
 64 768 l 25,4,-1
EndSplineSet
Validated: 1
EndChar

StartChar: Icircumflex
Encoding: 206 206 204
Width: 1408
Flags: MW
LayerCount: 2
Back
Fore
SplineSet
64 256 m 25,0,-1
 832 256 l 25,1,-1
 832 0 l 25,2,-1
 64 0 l 25,3,-1
 64 256 l 25,0,-1
1088 256 m 25,4,-1
 1344 256 l 25,5,-1
 1344 0 l 25,6,-1
 1088 0 l 25,7,-1
 1088 256 l 25,4,-1
1088 1792 m 25,8,-1
 1344 1792 l 25,9,-1
 1344 512 l 25,10,-1
 1088 512 l 25,11,-1
 1088 1792 l 25,8,-1
320 1792 m 25,12,-1
 832 1792 l 25,13,-1
 832 512 l 25,14,-1
 64 512 l 25,15,-1
 64 768 l 25,16,-1
 320 768 l 25,17,-1
 320 1792 l 25,12,-1
EndSplineSet
Validated: 1
EndChar

StartChar: Idieresis
Encoding: 207 207 205
Width: 1408
Flags: MW
LayerCount: 2
Back
Fore
SplineSet
64 256 m 25,0,-1
 1344 256 l 25,1,-1
 1344 0 l 25,2,-1
 64 0 l 25,3,-1
 64 256 l 25,0,-1
320 1792 m 25,4,-1
 832 1792 l 25,5,-1
 832 768 l 25,6,-1
 1344 768 l 25,7,-1
 1344 512 l 25,8,-1
 64 512 l 25,9,-1
 64 768 l 25,10,-1
 320 768 l 25,11,-1
 320 1792 l 25,4,-1
EndSplineSet
Validated: 1
EndChar

StartChar: Eth
Encoding: 208 208 208
Width: 1408
Flags: MW
LayerCount: 2
Back
Fore
SplineSet
320 1792 m 25,0,-1
 832 1792 l 25,1,-1
 832 256 l 25,2,-1
 1088 256 l 25,3,-1
 1088 1792 l 25,4,-1
 1344 1792 l 25,5,-1
 1344 0 l 25,6,-1
 64 0 l 25,7,-1
 64 256 l 25,8,-1
 320 256 l 25,9,-1
 320 1792 l 25,0,-1
EndSplineSet
Validated: 1
EndChar

StartChar: Ntilde
Encoding: 209 209 209
Width: 1408
Flags: MW
LayerCount: 2
Back
Fore
SplineSet
64 256 m 25,0,-1
 1344 256 l 25,1,-1
 1344 0 l 25,2,-1
 64 0 l 25,3,-1
 64 256 l 25,0,-1
64 768 m 25,4,-1
 1344 768 l 25,5,-1
 1344 512 l 25,6,-1
 64 512 l 25,7,-1
 64 768 l 25,4,-1
EndSplineSet
Validated: 1
EndChar

StartChar: Ograve
Encoding: 210 210 210
Width: 1408
Flags: MW
LayerCount: 2
Back
Fore
SplineSet
2932 -1048 m 1053,0,-1
64 256 m 25,1,-1
 1344 256 l 25,2,-1
 1344 0 l 25,3,-1
 64 0 l 25,4,-1
 64 256 l 25,1,-1
EndSplineSet
Validated: 1
EndChar

StartChar: Oacute
Encoding: 211 211 211
Width: 1408
Flags: MW
LayerCount: 2
Back
Fore
SplineSet
192 1792 m 25,0,-1
 704 1792 l 25,1,-1
 704 256 l 25,2,-1
 960 256 l 25,3,-1
 960 1792 l 25,4,-1
 1216 1792 l 25,5,-1
 1216 0 l 25,6,-1
 192 0 l 25,7,-1
 192 1792 l 25,0,-1
EndSplineSet
Validated: 1
EndChar

StartChar: Ocircumflex
Encoding: 212 212 212
Width: 1408
Flags: MW
LayerCount: 2
Back
Fore
SplineSet
192 1792 m 25,0,-1
 704 1792 l 25,1,-1
 704 768 l 25,2,-1
 1216 768 l 25,3,-1
 1216 512 l 25,4,-1
 704 512 l 25,5,-1
 704 256 l 25,6,-1
 1216 256 l 25,7,-1
 1216 0 l 25,8,-1
 192 0 l 25,9,-1
 192 1792 l 25,0,-1
EndSplineSet
Validated: 1
EndChar

StartChar: Otilde
Encoding: 213 213 213
Width: 1408
Flags: MW
LayerCount: 2
Back
Fore
SplineSet
576 768 m 25,0,-1
 832 768 l 25,1,-1
 832 0 l 25,2,-1
 576 0 l 25,3,-1
 576 768 l 25,0,-1
EndSplineSet
Validated: 1
EndChar

StartChar: Odieresis
Encoding: 214 214 214
Width: 1408
Flags: MW
LayerCount: 2
Back
Fore
SplineSet
576 256 m 25,0,-1
 832 256 l 25,1,-1
 832 0 l 25,2,-1
 576 0 l 25,3,-1
 576 256 l 25,0,-1
EndSplineSet
Validated: 1
EndChar

StartChar: multiply
Encoding: 215 215 215
Width: 1408
Flags: MW
LayerCount: 2
Back
Fore
SplineSet
320 1792 m 25,0,-1
 832 1792 l 25,1,-1
 832 256 l 25,2,-1
 1088 256 l 25,3,-1
 1088 1792 l 25,4,-1
 1344 1792 l 25,5,-1
 1344 0 l 25,6,-1
 64 0 l 25,7,-1
 64 256 l 25,8,-1
 320 256 l 25,9,-1
 320 1792 l 25,0,-1
EndSplineSet
Validated: 1
EndChar

StartChar: Oslash
Encoding: 216 216 216
Width: 1408
Flags: MW
LayerCount: 2
Back
Fore
SplineSet
1088 1792 m 25,0,-1
 1344 1792 l 25,1,-1
 1344 0 l 25,2,-1
 64 0 l 25,3,-1
 64 256 l 25,4,-1
 1088 256 l 25,5,-1
 1088 512 l 25,6,-1
 64 512 l 25,7,-1
 64 768 l 25,8,-1
 1088 768 l 25,9,-1
 1088 1792 l 25,0,-1
EndSplineSet
Validated: 1
EndChar

StartChar: Ugrave
Encoding: 217 217 217
Width: 1408
Flags: MW
LayerCount: 2
Back
Fore
SplineSet
1088 1792 m 25,0,-1
 1344 1792 l 25,1,-1
 1344 0 l 25,2,-1
 64 0 l 25,3,-1
 64 256 l 25,4,-1
 1088 256 l 25,5,-1
 1088 1792 l 25,0,-1
EndSplineSet
Validated: 1
EndChar

StartChar: Uacute
Encoding: 218 218 218
Width: 1408
Flags: MW
LayerCount: 2
Back
Fore
SplineSet
576 256 m 25,0,-1
 832 256 l 25,1,-1
 832 0 l 25,2,-1
 576 0 l 25,3,-1
 576 256 l 25,0,-1
EndSplineSet
Validated: 1
EndChar

StartChar: Ucircumflex
Encoding: 219 219 219
Width: 1408
Flags: MW
LayerCount: 2
Back
Fore
SplineSet
64 1792 m 25,0,-1
 1344 1792 l 25,1,-1
 1344 0 l 25,2,-1
 64 0 l 25,3,-1
 64 1792 l 25,0,-1
EndSplineSet
Validated: 1
EndChar

StartChar: Udieresis
Encoding: 220 220 220
Width: 1408
Flags: MW
LayerCount: 2
Back
Fore
SplineSet
64 256 m 25,0,-1
 1344 256 l 25,1,-1
 1344 0 l 25,2,-1
 64 0 l 25,3,-1
 64 256 l 25,0,-1
EndSplineSet
Validated: 1
EndChar

StartChar: Yacute
Encoding: 221 221 221
Width: 1408
Flags: MW
LayerCount: 2
Back
Fore
SplineSet
320 1792 m 25,0,-1
 1088 1792 l 25,1,-1
 1088 0 l 25,2,-1
 320 0 l 25,3,-1
 320 1792 l 25,0,-1
EndSplineSet
Validated: 1
EndChar

StartChar: Thorn
Encoding: 222 222 222
Width: 1408
Flags: MW
LayerCount: 2
Back
Fore
SplineSet
320 1792 m 25,0,-1
 1088 1792 l 25,1,-1
 1088 0 l 25,2,-1
 320 0 l 25,3,-1
 320 1792 l 25,0,-1
EndSplineSet
Validated: 1
EndChar

StartChar: germandbls
Encoding: 223 223 223
Width: 1408
Flags: MW
LayerCount: 2
Back
Fore
SplineSet
64 1792 m 25,0,-1
 1344 1792 l 25,1,-1
 1344 768 l 25,2,-1
 64 768 l 25,3,-1
 64 1792 l 25,0,-1
EndSplineSet
Validated: 1
EndChar

StartChar: agrave
Encoding: 224 224 224
Width: 1408
Flags: MW
LayerCount: 2
Back
Fore
SplineSet
395 1280 m 0,0,1
 320 1280 320 1280 320 1205 c 0,2,3
 320 1205 320 1205 320 843 c 0,4,5
 320 768 320 768 395 768 c 24,6,7
 395 768 395 768 501 768 c 0,8,9
 576 768 576 768 576 843 c 24,10,11
 576 843 576 843 576 1205 c 0,12,13
 576 1280 576 1280 501 1280 c 0,14,15
 501 1280 501 1280 395 1280 c 0,0,1
704 588 m 1,16,17
 650 512 650 512 501 512 c 0,18,19
 501 512 501 512 395 512 c 0,20,21
 65 512 65 512 64 843 c 24,22,23
 64 1190 64 1190 64 1205 c 0,24,25
 64 1536 64 1536 395 1536 c 24,26,27
 395 1536 395 1536 501 1536 c 0,28,29
 655 1536 655 1536 704 1460 c 1,30,31
 757 1536 757 1536 907 1536 c 0,32,33
 907 1536 907 1536 1344 1536 c 1,34,35
 1344 1536 1344 1536 1344 1280 c 9,36,-1
 907 1280 l 0,37,38
 833 1280 833 1280 832 1205 c 24,39,40
 832 986 832 986 832 843 c 0,41,42
 832 768 832 768 907 768 c 24,43,-1
 1344 768 l 25,44,45
 1344 768 1344 768 1344 512 c 1,46,47
 1344 512 1344 512 907 512 c 0,48,49
 760 512 760 512 704 588 c 1,16,17
EndSplineSet
Validated: 1
EndChar

StartChar: aacute
Encoding: 225 225 225
Width: 1408
Flags: MW
LayerCount: 2
Back
Fore
SplineSet
448 1024 m 25,0,-1
 448 768 l 25,1,-1
 704 768 l 25,2,-1
 704 587 l 0,3,4
 704 512 704 512 779 512 c 24,5,6
 779 512 779 512 885 512 c 0,7,8
 960 512 960 512 960 587 c 24,9,10
 960 587 960 587 960 949 c 0,11,12
 960 1024 960 1024 885 1024 c 24,13,14
 885 1024 885 1024 448 1024 c 25,0,-1
448 1536 m 25,15,-1
 448 1280 l 25,16,17
 448 1280 448 1280 885 1280 c 0,18,19
 960 1280 960 1280 960 1355 c 24,20,21
 960 1355 960 1355 960 1461 c 0,22,23
 960 1536 960 1536 885 1536 c 24,24,25
 885 1536 885 1536 448 1536 c 25,15,-1
1140 1152 m 1,26,27
 1216 1098 1216 1098 1216 949 c 0,28,29
 1216 949 1216 949 1216 587 c 0,30,31
 1216 256 1216 256 885 256 c 24,32,33
 885 256 885 256 779 256 c 1,34,35
 448 256 448 256 448 512 c 1,36,-1
 448 0 l 25,37,-1
 192 0 l 25,38,-1
 192 1792 l 25,39,40
 194 1792 194 1792 885 1792 c 0,41,42
 1216 1792 1216 1792 1216 1461 c 24,43,44
 1216 1461 1216 1461 1216 1355 c 0,45,46
 1216 1202 1216 1202 1140 1152 c 1,26,27
EndSplineSet
Validated: 1
EndChar

StartChar: acircumflex
Encoding: 226 226 226
Width: 1408
Flags: MW
LayerCount: 2
Back
Fore
SplineSet
64 1792 m 25,0,-1
 1344 1792 l 25,1,-1
 1344 1024 l 25,2,-1
 1088 1024 l 25,3,-1
 1088 1536 l 25,4,-1
 320 1536 l 25,5,-1
 320 0 l 25,6,-1
 64 0 l 25,7,-1
 64 1792 l 25,0,-1
EndSplineSet
Validated: 1
EndChar

StartChar: atilde
Encoding: 227 227 227
Width: 1408
Flags: MW
LayerCount: 2
Back
Fore
SplineSet
64 1280 m 25,0,-1
 1344 1280 l 25,1,-1
 1344 1024 l 25,2,-1
 1088 1024 l 25,3,-1
 1088 256 l 25,4,-1
 832 256 l 25,5,-1
 832 1024 l 25,6,-1
 576 1024 l 25,7,-1
 576 256 l 25,8,-1
 320 256 l 25,9,-1
 320 1024 l 25,10,-1
 64 1024 l 25,11,-1
 64 1280 l 25,0,-1
EndSplineSet
Validated: 1
EndChar

StartChar: adieresis
Encoding: 228 228 228
Width: 1408
Flags: MW
LayerCount: 2
Back
Fore
SplineSet
523 896 m 1,0,1
 523 896 523 896 64 1355 c 1,2,-1
 64 1792 l 25,3,-1
 1344 1792 l 25,4,-1
 1344 1280 l 25,5,-1
 1088 1280 l 25,6,-1
 1088 1536 l 25,7,-1
 245 1536 l 25,8,-1
 832 949 l 25,9,-1
 832 843 l 25,10,-1
 245 256 l 25,11,-1
 1088 256 l 25,12,-1
 1088 512 l 25,13,-1
 1344 512 l 25,14,-1
 1344 0 l 25,15,-1
 64 0 l 25,16,-1
 64 437 l 1,17,-1
 523 896 l 1,0,1
EndSplineSet
Validated: 1
EndChar

StartChar: aring
Encoding: 229 229 229
Width: 1408
Flags: MW
LayerCount: 2
Back
Fore
SplineSet
832 1024 m 25,0,1
 832 1024 832 1024 395 1024 c 0,2,3
 320 1024 320 1024 320 949 c 24,4,5
 320 949 320 949 320 587 c 0,6,7
 320 512 320 512 395 512 c 24,8,9
 395 512 395 512 757 512 c 0,10,11
 832 512 832 512 832 587 c 24,12,13
 832 587 832 587 832 1024 c 25,0,1
832 1536 m 25,14,-1
 1088 1536 l 25,15,-1
 1088 1280 l 25,16,-1
 1344 1280 l 25,17,-1
 1344 1024 l 25,18,-1
 1088 1024 l 25,19,-1
 1088 587 l 0,20,21
 1088 256 1088 256 757 256 c 0,22,23
 757 256 757 256 395 256 c 0,24,25
 64 256 64 256 64 587 c 0,26,27
 64 587 64 587 64 949 c 0,28,29
 64 1280 64 1280 395 1280 c 24,30,-1
 832 1280 l 25,31,-1
 832 1536 l 25,14,-1
EndSplineSet
Validated: 1
EndChar

StartChar: ae
Encoding: 230 230 230
Width: 1408
Flags: MW
LayerCount: 2
Back
Fore
SplineSet
64 1280 m 25,0,-1
 320 1280 l 25,1,-1
 320 587 l 0,2,3
 320 512 320 512 395 512 c 24,4,5
 395 512 395 512 757 512 c 0,6,7
 832 512 832 512 832 587 c 24,8,-1
 832 768 l 25,9,-1
 1088 768 l 25,10,-1
 1088 1280 l 25,11,-1
 1344 1280 l 25,12,-1
 1344 0 l 25,13,-1
 1088 0 l 25,14,-1
 1088 512 l 17,15,16
 1088 256 1088 256 757 256 c 8,17,18
 757 256 757 256 395 256 c 0,19,20
 64 256 64 256 64 587 c 24,21,22
 64 587 64 587 64 1280 c 25,0,-1
EndSplineSet
Validated: 1
EndChar

StartChar: ccedilla
Encoding: 231 231 231
Width: 1408
Flags: MW
LayerCount: 2
Back
Fore
SplineSet
64 1280 m 25,0,-1
 1344 1280 l 25,1,-1
 1344 1024 l 25,2,-1
 832 1024 l 25,3,-1
 832 256 l 25,4,-1
 576 256 l 25,5,-1
 576 1024 l 25,6,-1
 64 1024 l 25,7,-1
 64 1280 l 25,0,-1
EndSplineSet
Validated: 1
EndChar

StartChar: egrave
Encoding: 232 232 232
Width: 1408
Flags: MW
LayerCount: 2
Back
Fore
SplineSet
395 1024 m 0,0,1
 320 1024 320 1024 320 949 c 24,2,3
 320 949 320 949 320 331 c 0,4,5
 320 256 320 256 395 256 c 24,6,7
 395 256 395 256 1013 256 c 0,8,9
 1088 256 1088 256 1088 331 c 24,10,11
 1088 331 1088 331 1088 949 c 0,12,13
 1088 1024 1088 1024 1013 1024 c 24,14,15
 1013 1024 1013 1024 395 1024 c 0,0,1
320 1792 m 25,16,-1
 1088 1792 l 25,17,-1
 1088 1536 l 25,18,-1
 832 1536 l 25,19,-1
 832 1280 l 25,20,-1
 1013 1280 l 0,21,22
 1344 1280 1344 1280 1344 949 c 24,23,24
 1344 949 1344 949 1344 331 c 0,25,26
 1344 0 1344 0 1013 0 c 24,27,28
 1013 0 1013 0 395 0 c 0,29,30
 64 0 64 0 64 331 c 24,31,32
 64 331 64 331 64 949 c 0,33,34
 64 1280 64 1280 395 1280 c 24,35,-1
 576 1280 l 25,36,-1
 576 1536 l 25,37,-1
 320 1536 l 25,38,-1
 320 1792 l 25,16,-1
EndSplineSet
Validated: 1
EndChar

StartChar: eacute
Encoding: 233 233 233
Width: 1408
Flags: MW
LayerCount: 2
Back
Fore
SplineSet
320 768 m 25,0,-1
 1088 768 l 25,1,2
 1088 768 1088 768 1088 1205 c 0,3,4
 1088 1280 1088 1280 1013 1280 c 24,5,6
 1013 1280 1013 1280 395 1280 c 0,7,8
 320 1280 320 1280 320 1205 c 24,9,10
 320 1205 320 1205 320 768 c 25,0,-1
1013 1536 m 0,11,12
 1344 1536 1344 1536 1344 1205 c 24,13,14
 1344 1205 1344 1205 1344 0 c 25,15,-1
 1088 0 l 25,16,-1
 1088 512 l 25,17,-1
 320 512 l 25,18,-1
 320 0 l 25,19,-1
 64 0 l 25,20,21
 64 0 64 0 64 1205 c 0,22,23
 64 1536 64 1536 395 1536 c 24,24,25
 395 1536 395 1536 1013 1536 c 0,11,12
EndSplineSet
Validated: 1
EndChar

StartChar: ecircumflex
Encoding: 234 234 234
Width: 1408
Flags: MW
LayerCount: 2
Back
Fore
SplineSet
1013 1536 m 0,0,1
 1344 1536 1344 1536 1344 1205 c 24,2,3
 1344 1205 1344 1205 1344 768 c 0,4,5
 1344 512 1344 512 1088 512 c 9,6,7
 1088 512 1088 512 1088 256 c 25,8,9
 1088 256 1088 256 1344 256 c 1,10,-1
 1344 0 l 25,11,-1
 832 0 l 25,12,13
 832 0 832 0 832 512 c 17,14,15
 832 768 832 768 1088 768 c 8,16,17
 1088 768 1088 768 1088 1205 c 0,18,19
 1088 1280 1088 1280 1013 1280 c 24,20,21
 1013 1280 1013 1280 395 1280 c 0,22,23
 320 1280 320 1280 320 1205 c 24,24,25
 320 1205 320 1205 320 768 c 17,26,27
 576 768 576 768 576 512 c 8,28,29
 576 512 576 512 576 0 c 25,30,-1
 64 0 l 25,31,-1
 64 256 l 25,32,-1
 320 256 l 25,33,34
 320 256 320 256 320 512 c 17,35,36
 64 512 64 512 64 768 c 8,37,38
 64 768 64 768 64 1205 c 0,39,40
 64 1536 64 1536 395 1536 c 24,41,42
 395 1536 395 1536 1013 1536 c 0,0,1
EndSplineSet
Validated: 1
EndChar

StartChar: edieresis
Encoding: 235 235 235
Width: 1408
Flags: MW
LayerCount: 2
Back
Fore
SplineSet
1088 949 m 0,0,1
 1088 1024 1088 1024 1013 1024 c 24,2,3
 1013 1024 1013 1024 395 1024 c 0,4,5
 320 1024 320 1024 320 949 c 24,6,7
 320 949 320 949 320 331 c 0,8,9
 320 256 320 256 395 256 c 24,10,11
 395 256 395 256 1013 256 c 0,12,13
 1088 256 1088 256 1088 331 c 24,14,15
 1088 331 1088 331 1088 949 c 0,0,1
832 1792 m 25,16,-1
 832 1536 l 25,17,-1
 395 1536 l 0,18,19
 320 1536 320 1536 320 1461 c 24,20,21
 320 1461 320 1461 320 1355 c 0,22,23
 320 1280 320 1280 395 1280 c 24,24,-1
 1013 1280 l 0,25,26
 1344 1280 1344 1280 1344 949 c 24,27,28
 1344 949 1344 949 1344 331 c 0,29,30
 1344 0 1344 0 1013 0 c 24,31,32
 1013 0 1013 0 395 0 c 0,33,34
 64 0 64 0 64 331 c 24,35,36
 64 331 64 331 64 949 c 17,37,38
 64 1280 64 1280 320 1280 c 9,39,-1
 64 1280 l 25,40,41
 64 1282 64 1282 64 1461 c 0,42,43
 64 1792 64 1792 395 1792 c 24,44,45
 395 1792 395 1792 832 1792 c 25,16,-1
EndSplineSet
Validated: 1
EndChar

StartChar: igrave
Encoding: 236 236 236
Width: 1408
Flags: MW
LayerCount: 2
Back
Fore
SplineSet
1088 1205 m 0,0,1
 1088 1280 1088 1280 1013 1280 c 24,2,3
 1013 1280 1013 1280 907 1280 c 0,4,5
 832 1280 832 1280 832 1205 c 24,6,7
 832 1205 832 1205 832 843 c 0,8,9
 832 768 832 768 907 768 c 24,10,11
 907 768 907 768 1013 768 c 0,12,13
 1088 768 1088 768 1088 843 c 24,14,15
 1088 843 1088 843 1088 1205 c 0,0,1
395 1280 m 0,16,17
 320 1280 320 1280 320 1205 c 24,18,19
 320 1205 320 1205 320 843 c 0,20,21
 320 768 320 768 395 768 c 24,22,23
 395 768 395 768 501 768 c 0,24,25
 576 768 576 768 576 843 c 24,26,27
 576 843 576 843 576 1205 c 0,28,29
 576 1280 576 1280 501 1280 c 24,30,31
 501 1280 501 1280 395 1280 c 0,16,17
704 588 m 1,32,33
 654 512 654 512 501 512 c 0,34,35
 395 512 395 512 395 512 c 0,36,37
 64 512 64 512 64 843 c 0,38,39
 64 1205 64 1205 64 1205 c 0,40,41
 64 1536 64 1536 395 1536 c 24,42,43
 501 1536 501 1536 501 1536 c 0,44,45
 655 1536 655 1536 704 1460 c 1,46,47
 753 1536 753 1536 907 1536 c 0,48,49
 1013 1536 1013 1536 1013 1536 c 0,50,51
 1344 1536 1344 1536 1344 1205 c 24,52,53
 1344 843 1344 843 1344 843 c 0,54,55
 1344 512 1344 512 1013 512 c 0,56,57
 907 512 907 512 907 512 c 0,58,59
 754 512 754 512 704 588 c 1,32,33
EndSplineSet
Validated: 1
EndChar

StartChar: iacute
Encoding: 237 237 237
Width: 1408
Flags: MW
LayerCount: 2
Back
Fore
SplineSet
245 0 m 9,0,-1
 64 0 l 1,1,-1
 64 181 l 1,2,-1
 189 306 l 1,3,4
 64 379 64 379 64 587 c 0,5,6
 64 587 64 587 64 1205 c 0,7,8
 64 1536 64 1536 395 1536 c 24,9,10
 395 1536 395 1536 757 1536 c 0,11,12
 964 1536 964 1536 1039 1411 c 1,13,14
 1039 1411 1039 1411 1163 1536 c 1,15,-1
 1344 1536 l 1,16,-1
 1344 1355 l 1,17,-1
 1088 1099 l 9,18,19
 1088 1092 1088 1092 1088 587 c 16,20,21
 1088 256 1088 256 757 256 c 0,22,23
 757 256 757 256 501 256 c 1,24,-1
 245 0 l 9,0,-1
320 1205 m 0,25,26
 320 1205 320 1205 320 693 c 1,27,28
 320 693 320 693 832 1205 c 0,29,30
 832 1280 832 1280 757 1280 c 0,31,32
 757 1280 757 1280 395 1280 c 0,33,34
 320 1280 320 1280 320 1205 c 0,25,26
757 512 m 16,35,36
 832 512 832 512 832 587 c 0,37,38
 832 587 832 587 832 843 c 1,39,40
 832 843 832 843 501 512 c 9,41,-1
 757 512 l 16,35,36
EndSplineSet
Validated: 1
EndChar

StartChar: icircumflex
Encoding: 238 238 238
Width: 1408
Flags: MW
LayerCount: 2
Back
Fore
SplineSet
1216 1792 m 25,0,-1
 1216 1536 l 25,1,-1
 523 1536 l 0,2,3
 448 1536 448 1536 448 1461 c 24,4,5
 448 1461 448 1461 448 1024 c 25,6,-1
 960 1024 l 25,7,-1
 960 768 l 25,8,-1
 448 768 l 25,9,10
 448 768 448 768 448 331 c 0,11,12
 448 256 448 256 523 256 c 24,13,-1
 1216 256 l 25,14,-1
 1216 0 l 25,15,16
 1216 0 1216 0 523 0 c 0,17,18
 192 0 192 0 192 331 c 24,19,20
 192 331 192 331 192 1461 c 0,21,22
 192 1792 192 1792 523 1792 c 24,23,24
 523 1792 523 1792 1216 1792 c 25,0,-1
EndSplineSet
Validated: 1
EndChar

StartChar: idieresis
Encoding: 239 239 239
Width: 1408
Flags: MW
LayerCount: 2
Back
Fore
SplineSet
1013 1792 m 0,0,1
 1344 1792 1344 1792 1344 1461 c 24,2,3
 1344 1461 1344 1461 1344 0 c 25,4,-1
 1088 0 l 25,5,-1
 1088 1461 l 0,6,7
 1088 1536 1088 1536 1013 1536 c 24,8,9
 1013 1536 1013 1536 395 1536 c 0,10,11
 320 1536 320 1536 320 1461 c 24,12,-1
 320 0 l 25,13,-1
 64 0 l 25,14,15
 64 0 64 0 64 1461 c 0,16,17
 64 1792 64 1792 395 1792 c 24,18,19
 395 1792 395 1792 1013 1792 c 0,0,1
EndSplineSet
Validated: 1
EndChar

StartChar: eth
Encoding: 240 240 240
Width: 1408
Flags: MW
LayerCount: 2
Back
Fore
SplineSet
64 512 m 25,0,-1
 1344 512 l 25,1,-1
 1344 256 l 25,2,-1
 64 256 l 25,3,-1
 64 512 l 25,0,-1
64 1024 m 25,4,-1
 1344 1024 l 25,5,-1
 1344 768 l 25,6,-1
 64 768 l 25,7,-1
 64 1024 l 25,4,-1
64 1536 m 25,8,-1
 1344 1536 l 25,9,-1
 1344 1280 l 25,10,-1
 64 1280 l 25,11,-1
 64 1536 l 25,8,-1
EndSplineSet
Validated: 1
EndChar

StartChar: ntilde
Encoding: 241 241 241
Width: 1408
Flags: MW
LayerCount: 2
Back
Fore
SplineSet
64 256 m 25,0,-1
 1344 256 l 25,1,-1
 1344 0 l 25,2,-1
 64 0 l 25,3,-1
 64 256 l 25,0,-1
576 1792 m 25,4,-1
 832 1792 l 25,5,-1
 832 1280 l 25,6,-1
 1344 1280 l 25,7,-1
 1344 1024 l 25,8,-1
 832 1024 l 25,9,-1
 832 512 l 25,10,-1
 576 512 l 25,11,-1
 576 1024 l 25,12,-1
 64 1024 l 25,13,-1
 64 1280 l 25,14,-1
 576 1280 l 25,15,-1
 576 1792 l 25,4,-1
EndSplineSet
Validated: 1
EndChar

StartChar: ograve
Encoding: 242 242 242
Width: 1408
Flags: MW
LayerCount: 2
Back
Fore
SplineSet
64 256 m 25,0,-1
 1344 256 l 25,1,-1
 1344 0 l 25,2,-1
 64 0 l 25,3,-1
 64 256 l 25,0,-1
245 1792 m 25,4,-1
 1344 693 l 25,5,-1
 1344 512 l 25,6,-1
 1163 512 l 25,7,-1
 64 1611 l 25,8,-1
 64 1792 l 25,9,-1
 245 1792 l 25,4,-1
EndSplineSet
Validated: 1
EndChar

StartChar: oacute
Encoding: 243 243 243
Width: 1408
Flags: MW
LayerCount: 2
Back
Fore
SplineSet
64 256 m 25,0,-1
 1344 256 l 25,1,-1
 1344 0 l 25,2,-1
 64 0 l 25,3,-1
 64 256 l 25,0,-1
64 693 m 25,4,-1
 1163 1792 l 25,5,-1
 1344 1792 l 25,6,-1
 1344 1611 l 25,7,-1
 245 512 l 25,8,-1
 64 512 l 25,9,-1
 64 693 l 25,4,-1
EndSplineSet
Validated: 1
EndChar

StartChar: ocircumflex
Encoding: 244 244 244
Width: 1408
Flags: MW
LayerCount: 2
Back
Fore
SplineSet
757 1792 m 4,0,1
 1088 1792 1088 1792 1088 1461 c 28,2,3
 1088 1461 1088 1461 1088 1024 c 29,4,-1
 832 1024 l 29,5,-1
 832 1461 l 4,6,7
 832 1536 832 1536 757 1536 c 28,8,9
 757 1536 757 1536 651 1536 c 4,10,11
 576 1536 576 1536 576 1461 c 28,12,-1
 576 0 l 29,13,-1
 320 0 l 29,14,15
 320 0 320 0 320 1461 c 4,16,17
 320 1792 320 1792 651 1792 c 28,18,19
 651 1792 651 1792 757 1792 c 4,0,1
EndSplineSet
Validated: 1
EndChar

StartChar: otilde
Encoding: 245 245 245
Width: 1408
Flags: MW
LayerCount: 2
Back
Fore
SplineSet
651 0 m 0,0,1
 320 0 320 0 320 331 c 24,2,3
 320 331 320 331 320 768 c 25,4,-1
 576 768 l 25,5,-1
 576 331 l 0,6,7
 576 256 576 256 651 256 c 24,8,9
 651 256 651 256 757 256 c 0,10,11
 832 256 832 256 832 331 c 24,12,-1
 832 1792 l 25,13,-1
 1088 1792 l 25,14,15
 1088 1792 1088 1792 1088 331 c 0,16,17
 1088 0 1088 0 757 0 c 24,18,19
 757 0 757 0 651 0 c 0,0,1
EndSplineSet
Validated: 1
EndChar

StartChar: odieresis
Encoding: 246 246 246
Width: 1408
Flags: MW
LayerCount: 2
Back
Fore
SplineSet
576 512 m 25,0,-1
 832 512 l 25,1,-1
 832 256 l 25,2,-1
 576 256 l 25,3,-1
 576 512 l 25,0,-1
64 1024 m 25,4,-1
 1344 1024 l 25,5,-1
 1344 768 l 25,6,-1
 64 768 l 25,7,-1
 64 1024 l 25,4,-1
576 1536 m 25,8,-1
 832 1536 l 25,9,-1
 832 1280 l 25,10,-1
 576 1280 l 25,11,-1
 576 1536 l 25,8,-1
EndSplineSet
Validated: 1
EndChar

StartChar: divide
Encoding: 247 247 247
Width: 1408
Flags: MW
LayerCount: 2
Back
Fore
SplineSet
64 437 m 0,0,1
 64 768 64 768 395 768 c 24,2,-1
 1013 768 l 0,3,4
 1088 768 1088 768 1088 843 c 24,5,-1
 1088 1024 l 25,6,-1
 1344 1024 l 25,7,8
 1344 1024 1344 1024 1344 843 c 0,9,10
 1344 512 1344 512 1013 512 c 24,11,-1
 395 512 l 0,12,13
 320 512 320 512 320 437 c 24,14,-1
 320 256 l 25,15,-1
 64 256 l 25,16,17
 64 256 64 256 64 437 c 0,0,1
64 1205 m 0,18,19
 64 1536 64 1536 395 1536 c 24,20,-1
 1013 1536 l 0,21,22
 1088 1536 1088 1536 1088 1611 c 24,23,-1
 1088 1792 l 25,24,-1
 1344 1792 l 25,25,26
 1344 1792 1344 1792 1344 1611 c 0,27,28
 1344 1280 1344 1280 1013 1280 c 24,29,-1
 395 1280 l 0,30,31
 320 1280 320 1280 320 1205 c 24,32,-1
 320 1024 l 25,33,-1
 64 1024 l 25,34,35
 64 1024 64 1024 64 1205 c 0,18,19
EndSplineSet
Validated: 1
EndChar

StartChar: oslash
Encoding: 248 248 248
Width: 1408
Flags: MW
LayerCount: 2
Back
Fore
SplineSet
885 1536 m 0,0,1
 885 1536 885 1536 523 1536 c 0,2,3
 448 1536 448 1536 448 1461 c 24,4,5
 448 1461 448 1461 448 1355 c 0,6,7
 448 1280 448 1280 523 1280 c 24,8,9
 523 1280 523 1280 885 1280 c 0,10,11
 960 1280 960 1280 960 1355 c 24,12,13
 960 1355 960 1355 960 1461 c 0,14,15
 960 1536 960 1536 885 1536 c 0,0,1
885 1792 m 0,16,17
 1216 1792 1216 1792 1216 1461 c 24,18,19
 1216 1461 1216 1461 1216 1355 c 0,20,21
 1216 1024 1216 1024 885 1024 c 24,22,23
 885 1024 885 1024 523 1024 c 0,24,25
 192 1024 192 1024 192 1355 c 24,26,27
 192 1355 192 1355 192 1461 c 0,28,29
 192 1792 192 1792 523 1792 c 24,30,31
 523 1792 523 1792 885 1792 c 0,16,17
EndSplineSet
Validated: 1
EndChar

StartChar: ugrave
Encoding: 249 249 249
Width: 1408
Flags: MW
LayerCount: 2
Back
Fore
SplineSet
448 1280 m 25,0,-1
 960 1280 l 25,1,-1
 960 1024 l 25,2,-1
 1216 1024 l 25,3,-1
 1216 768 l 25,4,-1
 960 768 l 25,5,-1
 960 512 l 25,6,-1
 448 512 l 25,7,-1
 448 768 l 25,8,-1
 192 768 l 25,9,-1
 192 1024 l 25,10,-1
 448 1024 l 25,11,-1
 448 1280 l 25,0,-1
EndSplineSet
Validated: 1
EndChar

StartChar: uacute
Encoding: 250 250 250
Width: 1408
Flags: MW
LayerCount: 2
Back
Fore
SplineSet
576 1024 m 29,0,-1
 832 1024 l 25,1,-1
 832 768 l 25,2,-1
 576 768 l 25,3,-1
 576 1024 l 29,0,-1
EndSplineSet
Validated: 1
EndChar

StartChar: ucircumflex
Encoding: 251 251 251
Width: 1408
Flags: MW
LayerCount: 2
Back
Fore
SplineSet
576 1792 m 25,0,-1
 1344 1792 l 25,1,-1
 1344 1536 l 25,2,-1
 832 1536 l 25,3,-1
 832 587 l 0,4,5
 832 256 832 256 501 256 c 24,6,7
 501 256 501 256 395 256 c 0,8,9
 64 256 64 256 64 587 c 16,10,11
 64 587 64 587 64 1024 c 9,12,-1
 320 1024 l 25,13,-1
 320 587 l 0,14,15
 320 512 320 512 395 512 c 24,16,17
 395 512 395 512 501 512 c 0,18,19
 576 512 576 512 576 587 c 24,20,-1
 576 1792 l 25,0,-1
EndSplineSet
Validated: 1
EndChar

StartChar: udieresis
Encoding: 252 252 252
Width: 1408
Flags: MW
LayerCount: 2
Back
Fore
SplineSet
192 1280 m 25,0,1
 192 1280 192 1280 885 1280 c 0,2,3
 1216 1280 1216 1280 1216 949 c 24,4,5
 1216 949 1216 949 1216 256 c 25,6,-1
 960 256 l 25,7,-1
 960 949 l 0,8,9
 960 1024 960 1024 885 1024 c 24,10,11
 885 1024 885 1024 448 1024 c 25,12,-1
 448 256 l 25,13,-1
 192 256 l 25,14,-1
 192 1280 l 25,0,1
EndSplineSet
Validated: 1
EndChar

StartChar: yacute
Encoding: 253 253 253
Width: 1408
Flags: MW
LayerCount: 2
Back
Fore
SplineSet
448 1792 m 25,0,-1
 960 1792 l 25,1,-1
 960 1024 l 25,2,-1
 704 1024 l 25,3,-1
 704 768 l 25,4,-1
 960 768 l 25,5,-1
 960 512 l 25,6,-1
 448 512 l 25,7,-1
 448 1280 l 25,8,-1
 704 1280 l 25,9,-1
 704 1536 l 25,10,-1
 448 1536 l 25,11,-1
 448 1792 l 25,0,-1
EndSplineSet
Validated: 1
EndChar

StartChar: thorn
Encoding: 254 254 254
Width: 1408
Flags: MW
LayerCount: 2
Back
Fore
SplineSet
320 1280 m 25,0,-1
 1088 1280 l 25,1,-1
 1088 256 l 25,2,-1
 320 256 l 25,3,-1
 320 1280 l 25,0,-1
EndSplineSet
Validated: 1
EndChar

